<?xml version="1.0" encoding="UTF-8"?><svg id="Layer_1" xmlns="http://www.w3.org/2000/svg" viewBox="0 0 20 20"><defs><style>.cls-1{fill:#67297d;}</style></defs><path class="cls-1" d="m11.96,18.09c-2.14,0-4.2-.9-5.67-2.51-.43-.47-.39-1.2.08-1.62.47-.43,1.2-.39,1.62.08,1.2,1.32,2.98,1.96,4.75,1.7,2.93-.43,4.97-3.16,4.54-6.08-.09-.63.34-1.21.97-1.3.63-.09,1.21.34,1.3.97.61,4.18-2.3,8.08-6.48,8.69-.37.05-.74.08-1.11.08Z"/><path class="cls-1" d="m.37,14.58c0-.55.44-.99.99-.99.17,0,.39.04.67.04.5,0,.89-.29,1.25-1.21L1.01,7.2c-.16-.38-.2-.52-.2-.74,0-.6.47-1.05,1.08-1.05s.95.29,1.22.99l1.22,3.06,1.02-3.04c.23-.7.57-1,1.15-1,.61,0,1.08.45,1.08,1.03,0,.22-.03.36-.33,1.15l-1.73,4.53c-.82,2.4-1.91,3.48-3.6,3.48-.9,0-1.54-.2-1.54-1.02Z"/><path class="cls-1" d="m8.3,11.52V3.08c0-.7.44-1.16,1.11-1.16s1.12.47,1.12,1.16v2.75c.51-.42,1.08-.58,1.59-.58,1.63,0,2.72,1.27,2.72,3.19v3.09c0,.7-.45,1.16-1.12,1.16s-1.11-.47-1.11-1.16v-2.96c0-1.16-.51-1.3-.9-1.3-.7,0-1.18.45-1.18,1.12v3.13c0,.7-.45,1.16-1.12,1.16s-1.11-.47-1.11-1.16Z"/></svg>