<?xml version="1.0" encoding="utf-8"?>
<!-- Generator: Adobe Illustrator 27.4.1, SVG Export Plug-In . SVG Version: 6.00 Build 0)  -->
<svg version="1.1" id="Layer_1" xmlns="http://www.w3.org/2000/svg" xmlns:xlink="http://www.w3.org/1999/xlink" x="0px" y="0px"
	 viewBox="0 0 328 74.3" style="enable-background:new 0 0 328 74.3;" xml:space="preserve">
<style type="text/css">
	.st0{fill:#690080;}
	.st1{fill:#690080;}
</style>
<g>
	<path class="st1" d="M0,65c0-3.9,3-6.9,6.9-6.9c1.2,0,2.7,0.3,4.7,0.3c3.5,0,6.2-2,8.7-8.4L4.5,13.5C3.4,10.9,3,9.9,3,8.3
		C3,4.2,6.3,1,10.6,1c4.1,0,6.6,2,8.5,6.9l8.5,21.3L34.7,8c1.6-4.9,4-7,8-7c4.3,0,7.5,3.1,7.5,7.2c0,1.5-0.2,2.5-2.3,8L35.9,47.8
		c-5.7,16.8-13.3,24.3-25.1,24.3C4.5,72.1,0,70.7,0,65z"/>
	<path class="st1" d="M51.8,26.9C51.8,10.8,62.5,0,78.4,0c15.5,0,26,10.5,26,26.2c0,16.2-10.7,26.9-26.7,26.9
		C62.2,53.1,51.8,42.7,51.8,26.9z M89,26.4c0-7.5-4.4-12.6-10.8-12.6c-6.5,0-10.9,5.2-10.9,12.8s4.4,12.7,10.8,12.7
		C84.6,39.3,89,34.1,89,26.4z"/>
	<path class="st1" d="M135.8,53.4c3.3-0.3,6.3-1.1,8.9-2.3c8-3.9,10.9-12.6,10.9-21c0,0,0-21.3,0-21.3c0-4.5-3.4-7.8-7.8-7.8
		c-4.4,0-7.7,3.4-7.7,7.8v19.9c0,4.7-1.2,10.2-7.5,10.2c-6.3,0-7.5-5.5-7.5-10.2V8.7c0-4.5-3.4-7.8-7.7-7.8c-4.5,0-7.8,3.4-7.8,7.8
		v21.3c0,7.2,2,14.8,8,19.3C122.1,52.7,129.3,54,135.8,53.4z"/>
	<path class="st1" d="M0,65c0-3.9,3-6.9,6.9-6.9c1.2,0,2.7,0.3,4.7,0.3c3.5,0,6.2-2,8.7-8.4L4.5,13.5C3.4,10.9,3,9.9,3,8.3
		C3,4.2,6.3,1,10.6,1c4.1,0,6.6,2,8.5,6.9l8.5,21.3L34.7,8c1.6-4.9,4-7,8-7c4.3,0,7.5,3.1,7.5,7.2c0,1.5-0.2,2.5-2.3,8L35.9,47.8
		c-5.7,16.8-13.3,24.3-25.1,24.3C4.5,72.1,0,70.7,0,65z"/>
	<path class="st1" d="M51.8,26.9C51.8,10.8,62.5,0,78.4,0c15.5,0,26,10.5,26,26.2c0,16.2-10.7,26.9-26.7,26.9
		C62.2,53.1,51.8,42.7,51.8,26.9z M89,26.4c0-7.5-4.4-12.6-10.8-12.6c-6.5,0-10.9,5.2-10.9,12.8s4.4,12.7,10.8,12.7
		C84.6,39.3,89,34.1,89,26.4z"/>
	<path class="st1" d="M135.8,53.4c3.3-0.3,6.3-1.1,8.9-2.3c8-3.9,10.9-12.6,10.9-21c0,0,0-21.3,0-21.3c0-4.5-3.4-7.8-7.8-7.8
		c-4.4,0-7.7,3.4-7.7,7.8v19.9c0,4.7-1.2,10.2-7.5,10.2c-6.3,0-7.5-5.5-7.5-10.2V8.7c0-4.5-3.4-7.8-7.7-7.8c-4.5,0-7.8,3.4-7.8,7.8
		v21.3c0,7.2,2,14.8,8,19.3C122.1,52.7,129.3,54,135.8,53.4z"/>
	<g>
		<path class="st1" d="M222.8,24.6c-2.8,0-4.5,1.9-4.8,4.4h9.2C226.8,26.2,225,24.6,222.8,24.6z"/>
		<path class="st1" d="M242.9,24.7c-2.9,0-4.7,2.3-4.7,5.9c0,3.7,1.8,6,4.7,6c2.7,0,4.5-2.4,4.5-6C247.4,27,245.7,24.7,242.9,24.7z"
			/>
		<path class="st1" d="M302.6,1.2H189.8c-14,0-25.4,11.2-25.4,25v1.9c0,13.8,11.4,25,25.4,25h112.8c14,0,25.4-11.2,25.4-25v-1.9
			C328,12.4,316.6,1.2,302.6,1.2z M210.6,38.1c0,1.5-1,2.5-2.5,2.5c-1.6,0-2.5-1-2.5-2.5v-9.1c0-3.3-1.7-4.3-3.4-4.3
			c-2.3,0-4.2,1.6-4.2,3.8v9.5c0,1.5-1,2.5-2.5,2.5c-1.5,0-2.5-1-2.5-2.5V13.9c0-1.6,1-2.6,2.5-2.6c1.5,0,2.5,1,2.5,2.6v8.6
			c1.4-1.3,3.2-2.1,5.2-2.1c4.5,0,7.5,3.3,7.5,8.4V38.1z M223.7,36.8c1.4,0,2.6-0.3,3.6-0.7c0.7-0.3,1.3-0.6,2-0.6
			c1.2,0,2,0.9,2,2.1c0,1.1-1,1.9-2.5,2.5c-1.6,0.6-3.7,1-5.5,1C217.1,41.1,213,37,213,31c0-6.2,4.1-10.6,9.9-10.6
			c6.3,0,9.1,5.4,9.1,9.6c0,1.3-1,2.5-2.6,2.5h-11.3C218.8,35.3,220.8,36.8,223.7,36.8z M252.3,38.4c0,1.3-1,2.3-2.3,2.3
			c-1.2,0-2.1-0.8-2.3-2.2c-1.2,1.6-3.4,2.6-5.5,2.6c-5.2,0-9-4.4-9-10.5c0-5.8,3.7-10.3,9-10.3c2,0,4,0.9,5.2,2.7
			c0.2-1,1.3-2.2,2.5-2.2c1.4,0,2.5,1.1,2.5,2.5L252.3,38.4z M261.7,38.1c0,1.6-1,2.6-2.5,2.6c-1.5,0-2.5-1-2.5-2.6V13.9
			c0-1.5,1-2.6,2.5-2.6c1.5,0,2.5,1.1,2.5,2.6V38.1z M274.3,41.1c-3.7,0-6.6-2.3-6.6-7.1v-8.9h-2.5c-1.2,0-2.3-1-2.3-2.2
			c0-1.2,1-2.1,2.3-2.1h2.5v-3.7c0-1.4,1.1-2.5,2.5-2.5c1.4,0,2.5,1.1,2.5,2.5v3.7h4c1.3,0,2.3,1,2.3,2.1c0,1.2-1,2.2-2.3,2.2h-4v9
			c0,2.2,1,2.7,2.2,2.7c1.4,0,1.9-0.8,3.1-0.8c1.2,0,2.1,0.9,2.1,2C280,40.2,276.3,41.1,274.3,41.1z M299.8,38.1
			c0,1.5-1,2.5-2.5,2.5c-1.6,0-2.5-1-2.5-2.5v-9.1c0-3.3-1.7-4.3-3.4-4.3c-2.3,0-4.2,1.6-4.2,3.8v9.5c0,1.5-1,2.5-2.5,2.5
			c-1.5,0-2.5-1-2.5-2.5V13.9c0-1.6,1-2.6,2.5-2.6c1.5,0,2.5,1,2.5,2.6v8.6c1.4-1.3,3.2-2.1,5.2-2.1c4.5,0,7.5,3.3,7.5,8.4V38.1z"/>
	</g>
</g>
</svg>
