<?xml version="1.0" encoding="utf-8"?>
<!-- Generator: Adobe Illustrator 27.3.0, SVG Export Plug-In . SVG Version: 6.00 Build 0)  -->
<svg version="1.1" xmlns="http://www.w3.org/2000/svg" xmlns:xlink="http://www.w3.org/1999/xlink" x="0px" y="0px"
	 viewBox="0 0 200 200" style="enable-background:new 0 0 200 200;" xml:space="preserve">
<style type="text/css">
	.st0{opacity:0.2;}
	.st1{fill:#60167B;}
	.st2{fill:#74348C;}
	.st3{fill:#412760;}
	.st4{fill:#250849;}
	.st5{fill:none;}
	.st6{fill:none;stroke:#391F5A;stroke-width:1.0129;stroke-linecap:round;stroke-linejoin:round;stroke-miterlimit:10;}
</style>
<g id="Layer_1">
</g>
<g id="Layer_2">
	<g>
		<g>
			<g>
				<path class="st3" d="M142.8,113.3c0.2,0,0.3-0.2,0-0.4l-0.5,0.1L142.8,113.3z"/>
				<path class="st3" d="M141.6,110.9c-0.5-0.2-1.1-0.3-1.1,0.2c0.6,0,0.6,0.2,1.2,0.2c0.3,0.2,0.4,0.6,0.2,0.6
					c0.2,0,0.4,0.5,0.7,0.4c-0.1-0.6-0.6-1-1.2-1.3C141.3,110.9,141.5,110.9,141.6,110.9z"/>
				<path class="st3" d="M115.6,84l0.1,0.2C115.7,84.2,115.7,84.1,115.6,84z"/>
				<path class="st3" d="M99.4,67.5c0.1,0.1,0.2,0.1,0.2,0.1C99.5,67.6,99.4,67.5,99.4,67.5z"/>
				<path class="st3" d="M96.9,64.4c0.1,0.1,0.1,0.1,0.2,0.2C97,64.5,96.9,64.4,96.9,64.4z"/>
				<path class="st3" d="M115.6,84l-0.3-0.5C115.1,83.6,115.4,83.8,115.6,84z"/>
				<path class="st3" d="M137.2,108c0.1,0.1,0.2,0.1,0.3,0.2L137.2,108C137.3,107.9,137.2,107.9,137.2,108z"/>
				<path class="st3" d="M123,91l0.1,0.1c0.1,0,0.1,0,0.2,0L123,91z"/>
				<path class="st3" d="M128.6,96.5c-0.1-0.1-0.4,0.1-0.6,0.1c0.2,0,0.3,0,0.4,0.1C128.6,96.7,128.6,96.6,128.6,96.5z"/>
				<path class="st3" d="M137,105.7l0.2,0.1C137.1,105.8,137,105.8,137,105.7z"/>
				<path class="st3" d="M119.1,87c0,0,0-0.1,0-0.1C119.1,86.9,119.1,87,119.1,87z"/>
				<path class="st3" d="M135.5,117.2C135.6,117.3,135.6,117.3,135.5,117.2C135.6,117.2,135.6,117.2,135.5,117.2z"/>
				<path class="st3" d="M143.4,112.7L143.4,112.7L143.4,112.7L143.4,112.7L143.4,112.7L143.4,112.7L143.4,112.7L143.4,112.7
					L143.4,112.7l0,0.1l0,0c0,0.1,0.1,0.1,0.1,0.2l0-0.1l0-0.1L143.4,112.7L143.4,112.7L143.4,112.7L143.4,112.7L143.4,112.7
					L143.4,112.7L143.4,112.7L143.4,112.7z"/>
				<path class="st3" d="M91.1,59.5C91.1,59.5,91.1,59.5,91.1,59.5C91.3,59.6,91.2,59.6,91.1,59.5z"/>
				<path class="st3" d="M43.1,89.9c0.3-0.8,0.5,1.2,0.7,0C43.7,90,43.2,88.9,43.1,89.9z"/>
				<path class="st3" d="M137.1,107.8l-0.2-0.2C137,107.7,137,107.7,137.1,107.8z"/>
				<path class="st3" d="M43.8,89.9L43.8,89.9l0-0.1C43.9,89.8,43.8,89.9,43.8,89.9z"/>
				<path class="st3" d="M74.3,55.4c0,0.1,0.1,0.1,0.2,0.1C74.5,55.5,74.4,55.5,74.3,55.4z"/>
				<path class="st3" d="M86.8,58.2L86.5,58C86.7,58.1,86.7,58.1,86.8,58.2z"/>
				<path class="st3" d="M67.7,56.7c-0.2,0-0.2,0-0.5,0.1c0,0,0,0,0.1,0C67.4,56.8,67.5,56.7,67.7,56.7z"/>
				<path class="st3" d="M61.2,59c0,0,0.1,0,0.1,0c0.1,0,0.1-0.1,0.2-0.1L61.2,59z"/>
				<path class="st3" d="M118,126.4c0.2,0,0.3,0.1,0.4,0.2C118.2,126.4,119.1,126,118,126.4z"/>
				<path class="st3" d="M137.4,107.8c-0.1,0-0.2,0-0.2,0l0.2,0.1C137.3,107.9,137.4,107.9,137.4,107.8z"/>
				<path class="st3" d="M68.1,59.4l-1,0.2C67.4,59.6,67.7,59.5,68.1,59.4z"/>
				<path class="st3" d="M72.4,122.3c0.1,0,0.2,0.1,0.2,0.1C72.6,122.3,72.5,122.3,72.4,122.3z"/>
				<path class="st3" d="M64.3,60.6c-0.2-0.1-0.4,0-0.6,0c0,0-0.1,0.1-0.1,0.1C63.8,60.7,64.1,60.6,64.3,60.6z"/>
				<path class="st3" d="M118.4,126.6L118.4,126.6L118.4,126.6z"/>
				<path class="st3" d="M124.5,123.3c-0.9,0.4-0.2,0.6-0.3,0.9c-1,0.6-0.6-0.1-1.1-0.1c-0.6,0.4-1,1-1.5,1.1
					c-0.1-0.1-0.2,0-0.1-0.2c-0.6,0.6-2.2,0.8-2.9,1.5c-0.1,0-0.1,0-0.1-0.1c0.2,0.2,0.3,0.4,0.3,0.5c-0.4,0.2-0.7,0.6-1,0.3
					c0.3-0.1,0.3-0.2,0.3-0.3l-0.4,0.3c-0.5-0.3,0.6-0.4,0.5-0.7c-0.8,0.5-1.8,1-2.5,1.1c-0.2-0.4,1.6-0.5,0.6-0.7l1.1-0.1
					c-1-0.4,0.6-0.1-0.3-0.6c-1.4,0.2-1.5,0.6-2.9,0.8c-0.3,0.3,0.2,0.3-0.1,0.6c-1.9,0.9-1.7-0.6-3.1,0.2c-0.3,0.3-0.4,0.9-1.5,0.7
					l0.3-0.5c-1.4,0.1-0.7,0.8-2.2,0.7c0.2-0.2,1.1-0.3,0.8-0.3c-1-0.2-0.6,0.4-1.3,0.5l-0.2-0.4c-0.4,0.1-0.7,0.2-1.1,0.2
					c-0.4,0.1-0.8,0.1-1.2,0.2c-0.8,0.1-1.6,0.3-2.4,0.3c0.1-0.1,0.4-0.3,0-0.4c-2,0.4-4.4-0.1-6.3-0.4l-0.8,0.3
					c-0.2,0-0.3-0.2-0.1-0.2c-0.8-0.2-0.1,0.2-0.4,0.3c-0.4,0-0.6-0.3-0.3-0.3c-1.4,0.1-3.9,0.1-5.3-0.5l0.3-0.1
					c-1.1-0.3-1.4,0.5-2.3-0.1l0.2,0c-1.2-0.4-2.4-0.6-3.6-0.9c-1.2-0.3-2.2-0.8-3-1.3c-0.5,0.4-2.2-1-2.6-0.4
					c-1.2-0.8-0.7-0.8-2.4-1.9c-0.5-0.2-0.9,0.1-1.5-0.1l0.1-0.3l-1,0l-0.2-0.6l-0.6-0.2c0.2,0.1,0.4,0.4,0.3,0.4
					c-0.9-0.2-1.9-1.4-1.8-1.5l-2.1-0.9c0.1-0.1,0.5,0,0.8,0.1c-1.2-0.3,0-0.4-1.1-0.7c0.1,0.1-0.2,0.2-0.2,0.2
					c-0.2-0.2-0.5-0.5-0.9-0.8c-0.4-0.3-0.8-0.6-1.2-0.8l0.3-0.1c-1.3-1-2.9-1.9-4.3-3.1c0.4,0.5,0,0.8-0.4,0.5l0.1-0.5
					c-0.4,0,0.3,0.5-0.4,0.2c-0.5-0.5,0-0.7,0.3-0.5l-0.7-0.5c0-0.1,0.2,0,0.4-0.1c-0.4,0-0.8-1.3-1.5-1.3l0-0.1
					c-1.4-1.2-2.1-1.7-3.2-2.8c-0.3,0.2-0.6-0.3-1.2-0.4c-0.7-0.9-1.5-2-2.3-2.9c-0.7-0.6-0.4,0-0.8-0.2c0.2-0.3-0.7-1.2-0.1-0.8
					c-0.5-0.6-0.8-1-1.2-1.4c-0.3-0.4-0.8-0.8-1.4-1.6c0,0.3,0.1,0.5-0.1,0.4c-0.2-0.3-0.3-0.8-0.2-0.8l0.1,0.1
					c-0.4-0.4-0.7-0.9-1-1.5c-0.2-0.6-0.4-1.2-0.5-1.8c-0.4-1.2-0.5-2.3-1.1-3.1l0.1,0.1c-0.3-0.5-0.6-1.1-0.8-1.7
					c-0.1-0.8,0.3,0.4,0.4-0.2c-0.5-0.9-0.7-1.7-0.7-2.4c0-0.7-0.1-1.4-0.4-2.2c0.5-0.7,0.3-1.8,0.3-2.9c0-1.2-0.1-2.4,0.4-3.2
					l-0.2,0.1c-0.1-0.5,0.2-0.5,0.3-0.8c-0.2,0-0.3,0.4-0.3,0.2c0.3-3.7,2.2-7.4,4.3-10.4c0.7-1.1-0.6-1.3,0.9-2.4l0,0.6
					c0.3-0.6,0.7-1.2,1.1-1.8c0.5-0.5,0.9-1.1,1.4-1.6c0.5-0.5,1-1,1.5-1.5c0.5-0.5,1-1,1.5-1.5c-0.1,0.2,0,0.3-0.2,0.4
					c0.6-0.1,1.7-1.2,1.6-1.5c0.4-0.2,0.2,0.1,0.5,0.1c0.5-0.2,1-1.1,1.5-1c0.1,0-0.1,0.2-0.2,0.2c0.3-0.3,1.5-0.9,1.1-1
					c1-0.3,1.7-1,2.5-1.2c0.3-0.6,1.7-0.4,1.7-1c0.1,0.3,0.5,0.2,1,0.1c0.5-0.2,1.1-0.4,1.4-0.6c-0.2,0.2,0.6,0,0.4,0.3
					c0.7-0.2,1.4-0.4,1.2-0.7c1.5,0.5,2.7-1,3.5-0.1c1.1-0.2,2.2-0.4,3.2-0.4c0.5,0,1,0,1.6-0.1c0.5,0,1,0.1,1.5,0.1
					c-0.1,0.3-0.6,0.2-1.2,0.1c-0.5-0.1-1,0-1,0.3c0.9-0.1,1.7-0.1,2.5-0.1c0.4,0,0.8,0,1.2,0c0.4,0.1,0.8,0.2,1.3,0.3
					c0.5,0.2-0.3,0.2-0.5,0.2c1.9,0.2,3.5,1,5.2,1.4c0,0-0.2,0-0.4,0c0.3,0.1,0.7,0.4,0.7,0.2l-0.3-0.1c-0.3-0.6,1.5-0.1,1.7-0.3
					c-0.8,0.4,1.4,0.9,0.2,1.3c0.2,0.1,0.5,0.1,0.5-0.1c0.3,0.2,0.3,0.3-0.1,0.3c1.1,0.5,0.9,0,1.8,0.6c-0.1,0.1-0.3,0-0.5,0.1
					c0.3,0,0.6,0.1,0.9,0.2c0.3,0.1,0.6,0.3,1,0.6c-0.1,0-0.1,0.2-0.3,0c0.6,0.5,1.3,0.7,1.9,1.1c0.6,0.4,1.2,0.8,1.8,1.5
					c-0.7,0,0.3,0.5,0.1,0.9l0.8,0.6l-0.1-0.4c0.6,0.6,1.4,0.9,1.8,1.5l-0.6-0.3l1.2,1.1l-0.5-0.8c0.8,0.4,0.3-0.5,1.1,0.4
					c-0.2-0.1,0.6,0.6,0.7,1.1l0,0c0.4,0.2,0.8,0.4,1.2,0.9c0,0.2-0.5,0.3-0.4,0.4c0.6,0,1.5,1.3,2.1,1.4c-0.2-0.1-0.4,0.1-0.4,0.2
					l0.5,0c0.2,0.3,0.2,0.4,0,0.5c0.8,0.9,0.1-0.7,1,0.5c-0.1-0.1-0.1,0-0.3-0.1c0.9,1.1,2.1,1.8,2.9,2.8c-0.1,0.6-0.9-0.7-0.8-0.1
					c1.4,1.3,3.1,2.3,4.3,3.7l-0.2-0.3c0.6-0.3,0.7,1.2,1.6,1.6c-0.2-0.1-0.5,0-0.4,0c0.8,0.9,1.9,1.7,3.4,2.8l-0.3,0
					c0.4,0.6,1.3,1.4,1.8,2c0.3,0,0.6,0.4,0.6,0c1,2.4,3.6,2.9,4.6,5c-0.2-0.2-0.5-0.3-0.4-0.2l1.4,1.2c0.1-0.3,0-0.3-0.2-0.7
					c0.3,0,0.7,0.3,1.1,0.6c-0.7-0.4-0.3,0.3-0.2,0.7c0-0.1,0.2-0.1,0.2-0.2c0.3,1,0.5-0.3,1.2,0.9l-0.2,0.1
					c0.4,0.3,0.9,0.5,1.2,0.9c-0.1,0.4-0.5-0.3-0.7-0.1c0.5,0.5,1.5,0.6,1.7,1.3c-0.3-0.2-0.6-0.5-0.9-0.6c0.2,0.8,0.4,0.8,0.7,1.2
					l0,0l0.8,1l-0.2-0.3c1.3,0,1.4,1.2,2.7,1.7c-1.2-0.5-0.4,0.1-0.7,0.3c0.2,0.3,0.4,0.7,0.2,0.7c0.6,0.2,0.5,0.9,1.4,1.1
					c-0.1,0.1,0.4,0.5,0.1,0.6c0.6,0.5,0-0.3,0.2-0.3c1.1,0.5,1.6,2.3,3.2,3.1c1.2,0.9,1.7,0.8,2.8,1.6c0.2,0.5-0.6,0-0.6,0
					c0.4,0.6,0.8,1,1.4,1.4c-0.2,0-0.1,0.1-0.1,0.4c0.4,0.4,0.6,0,1,0.6c-0.2,0-0.4,0-0.7-0.1c0.5,0.4,1.2,0.7,1.7,1.1
					c0,0.3-0.5-0.1-0.8-0.1c0.6,0.5,1.5,1.3,1.9,1.2l-0.3-0.4c0.2,0.2-0.1,0.3-0.3,0.2c-0.6-0.3-0.6-0.8-0.5-0.9l0.4,0.3
					c0.1-0.8-1.5-1.3-2.1-2l0.6-0.1l-1-0.4c-0.1-0.2,0-0.5,0.4-0.3c-0.3-0.7-0.6-0.3-0.8-0.9c0-0.1,0-0.1,0.1,0l-0.6-0.4
					c0.2,0,0.2-0.3,0.4,0c-0.7-1.1-1.7-1.1-1.7-1.7l0.1,0.1c-1.3-1.1-0.4,0.1-1.6-0.4l0-1.3l-0.4,0.1c-0.1-0.1-0.3-0.4-0.2-0.5
					c-0.6-0.3,0,0.2-0.5,0.1c-0.4-0.8-1.8-1.5-1.5-2.1c-0.4,0,0.4,0.7-0.4,0.2c0.3-0.6-0.8-0.7-1.2-1.4c0.4-0.1,0.8,0.6,0.5-0.2
					c-0.7,0.1-1-1.2-1.5-1.5c-0.3,0.3-1.1-0.9-2-1.5c0.2-0.1-1.3-1.6-1.9-2.5l0.1,0c-0.5,0.2-1.1-0.6-1.7-1.1
					c0.2-0.2,0.4-0.1,0.8,0.1l-0.5-0.5c-0.2,0-0.4-0.1-0.8-0.4l0.4-0.1c-0.7-0.7-1.6-1.1-2.4-2.1c-0.3,0.2,0.1,1.3-1,0.5
					c0.1-0.2,0.3-0.4,0.5-0.2c-0.1-0.1-0.4-0.2-0.5-0.4l0.6,0.2c-0.3-0.5-0.4,0-0.7-0.4c0.2-0.2-0.1-0.4,0.1-0.4
					c0.1,0.1,0.2,0.3,0.4,0.4c-0.3-0.4-0.7-0.9-0.7-1.2c-0.1,0.1-0.2,0.2-0.5,0c-0.7-0.7,0-0.4-0.3-0.9c-0.3,0-0.6-0.6-0.9-0.4
					c-0.2-0.2-0.1-0.4-0.1-0.5c-0.5-0.2-1.7-1.6-1.5-0.9l0.1,0.1c0,0,0,0-0.1,0l0,0l0,0c-1.4-0.9-2.2-2.5-3.5-3.6l0.1-0.1
					c-0.8-0.6-1.6-1.5-2.2-1.8c-0.2-0.2-0.3-0.6-0.1-0.6c-0.6-0.5-0.7-0.4-1.3-1.3c0.7,0.4,0-0.3,0.6,0.4c-0.6-0.8-0.6-1-1.6-1.5
					c0.5,0-0.2-0.8-0.6-1l0.3,0.6c-0.4-0.3-0.7-0.7-1-1l0.5-0.1c-1-1.7-3.1-1.9-3.6-3.5c-0.6-0.2,0.6,0.9,0,0.8
					c-0.6-0.7-0.8-1.8-1-2c-0.7-1-1.2-0.4-2-1.4c0,0.2-0.2,0.6-0.9,0c-0.6-0.7-0.4-1.2,0.1-0.9c0.2,0.1,0.2,0.3,0.2,0.3
					c0.2,0.2,0.6,0.4,0.4,0l-0.2,0c-0.2-0.4-1.1-1.3-0.7-1.2c-0.6-0.4-0.4,0-0.1,0.4c-0.7-1-1.2-1.3-2-2.2c0.1,0.2,0.1,0.4,0,0.3
					c-1.2-1.3-0.8-0.3-1.7-1.1c-0.4-0.6,0.5-0.2-0.5-0.9c-0.5-0.6,0.1-0.4,0.4-0.3c-1.1-0.5-1.6-1.4-2.1-1.8l0.6,0.3
					c-0.3-0.2-0.6-0.3-0.8-0.5l0.1,0.4c-0.3-0.3-0.5-0.4-0.4-0.5c-0.4,0,0,0.5-0.8,0.4c-0.3-0.4-1.3-0.6-1.2-1
					c1.2,0.9,0.1-0.4,1.2,0.2c-0.2-0.1-0.5-0.2-0.8-0.5c0-0.1,0.1,0,0.2,0c-1.1-1-0.7,0-2.1-0.6c0.3-0.1-0.1-0.5-0.4-0.6
					c0.5,0.3,0.1,0.4-0.5,0.4c-0.8-0.5-1-0.3-1.4-0.5l0.5,0.3c-0.3,0.1-0.7-0.1-1.3-0.2c0-0.2,0.6,0.1,0.4-0.1
					c-0.8,0.1-1.4-0.9-2.4-1c-0.4-0.3,0.1-0.4-0.3-0.6c-1.2,0-1.1-0.6-2.3-0.6c0.3,0.4,0.3,0.3-0.5,0.4c0.6,0.1,1.3,0.2,1.9,0.2
					l-1.3,0.1c0.6,0.1,1.2,0.1,1.6,0.2c-0.6,0.1-0.6,0-0.3,0.3c-0.7-0.6-1.6-0.2-2.4-0.6l0.2-0.7c-1.3-0.5-2.5,0-4.3-0.3l0.6,0.2
					c-0.3,0.3-1.1,0-1.7,0.1c0.1-0.2-0.3-0.3-0.6-0.5c0,0.2-1.3,0-1.5,0.5l-0.8-0.3c-1.5,0-1.6,0.9-2.9,1c0.4-0.3-0.3-0.4,0.6-0.7
					c-0.5,0.1-0.9,0.1-0.9,0.2c-0.3-0.1-1.2,0.6-1.7,0.5c-0.2,0.2-0.2,0.4-0.7,0.5c-0.1,0,0-0.1,0-0.1c0,0.1-0.7,0.3-0.2,0.5
					c-0.8-0.2-1.7,0.2-2.6,0.5c-0.9,0.3-1.7,0.8-2.4,0.8c-0.9,0.5-1.9,1.2-2.7,1.7c0-0.1-0.1-0.1,0.1-0.2c-1.2,0.5-0.3,0.9-1.6,1.6
					c-0.8,0.1,0.5-0.6,0-0.5c-0.6-0.5-1.3,1.1-2.4,1.3c0-0.1,0.1-0.1,0.1-0.2c-0.7,0.3-1.2,1.5-2.1,2.2c0,0,0-0.1-0.1-0.1
					c-0.3,0.9-1.2,2.1-1.9,3.1c0-0.5,0.2-0.5-0.2-0.5c-0.3,0.4,0.5,0.2-0.1,1.1c-0.3,0.2-0.9,0.7-1.2,0.6l0.6-0.8
					c-0.7,0.1-0.7,1-1.1,1.4l-0.1-0.2c-0.8,1.3-0.3,1.6-1.2,3l0.2-0.1c0,1-0.6,0.5-0.7,1.5l-0.5,0c-0.1,0.6-0.5,2-0.7,3.1
					c-0.1-0.3-0.1-0.8,0-1.3c0.1-0.5,0.2-1,0.3-1.4c-0.1,0.3-0.3,0.7-0.5,1.2c-0.1,0.4-0.2,0.9-0.1,1.1c0-0.2,0-0.6,0.2-0.7
					c0.1,0.8,0,1.7-0.4,2.8c-0.4-0.2-0.7,0.5-0.9,1.3c-0.3,0.9-0.5,1.8-0.9,2.2c0,2.1-0.7,4.1-0.5,6.5c0.7-0.9,0.1,0.7,0.8,0.5
					c0.1,0.5,0.1,0.8,0,0.8c-0.1,0.6-0.2,1.1-0.3,1.7c-0.2,0.4-0.2-0.5-0.4-0.4c0.1,1.2-0.2,0.6-0.3,1.4c0.2-0.2,0.4,0.4,0.5,1.1
					c0-0.3,0.1-0.7,0.2-1c0.3,0.8,0.3,1.2,0.2,1.6c-0.1,0.4-0.1,0.8,0.3,1.6l-0.4-0.5c0.3,0.9,1,3.2,1.8,3.8c0,0.2-0.1,0.5-0.3,0.1
					c0.4,1,1,2,1.6,3c0.7,0.9,1.3,1.8,1.6,2.6l-0.2,0c0.2,0.3,0.7,0.4,0.8,0.9c-0.1,0-0.2,0-0.1,0.1c0.2,0.1,0.9,0.7,1.1,1.1
					l-0.4-0.2c0.5,0.9,1.2,1.4,1.8,1.9c0.6,0.4,1.3,0.8,1.9,1.4c-0.4,0.4,0.6,1.6,1.1,2.2l-0.1,0c1.5,1.7,3.2,2.4,4.9,3.7
					c0.3,0.7,1.1,1.5,2.1,2.3c1,0.8,2.1,1.6,2.9,2.4c-0.2-0.3,0.3-0.3,0.6-0.1c0.4,0.4,1.3,0.5,1,0.9l-0.1-0.1c0,0.7,1,1.1,1.7,1.5
					l0.5-0.5c0.7,0.9,1.9,1.6,3.1,2.2c1.2,0.5,2.3,0.9,2.6,1.5c0.5,0.1,1.1,0.3,1.7,0.4l-0.2,0.3c0.6,0.3,1.1,0.6,1.6,0.9
					c0.5,0.2,1.1,0.4,2,0.7l-0.4,0.1c1,0.4,1.5-0.5,2.4-0.2l0.1,0.6c1.6,0.6,3.3,1.4,5.1,1.4c0,0.1-0.1,0.2-0.4,0.2
					c0.8,0.2,3,1.1,2.9,0.3c-0.1,0.5,1.8,0.3,2.7,0.3l-0.2,0.3c0.9-0.3,0.9-0.4,2-0.4c0.3,0.1,0.2,0.3-0.1,0.2
					c0.8,0.3,0.7-0.2,1.7,0.1l-0.4,0.2c0.9,0.1,0.8,0,1.3-0.2c0.6-0.1,1.7,0.2,1.8,0.5c0.1-0.2,0.6-0.4,1.2-0.3
					c0.1,0.1-0.1,0.2-0.2,0.2c1.5,0.3,2.2-0.3,3.3,0c0,0.1,0.1,0.2,0.2,0.2c-1.2,0.1-2.2,0-2.1,0c0,0.3,1,0.4,0.2,0.8
					c0.8-0.2,2.1-0.8,3.1-0.7c0,0,0.1,0.1,0.1,0.1l-0.1,0c0.2,0,0.4,0,0.6-0.1c0.3,0,0.5,0.1,0.8,0.1c0.1,0.3,1.1,0.1,1.6,0.1
					c-0.1-0.3,0.6-0.3,0-0.6c0.1,0-0.1,0-0.4,0.1c-0.1,0-0.2,0-0.2,0l0,0c-0.3,0-0.7,0-1.2,0.1c0.4-0.2,0.8-0.4,1.3-0.2
					c0.2-0.2,0.5-0.5,0.6-0.6c0.7,0.5,2,0.5,2.2,0.8c1.4-0.4,3.4-0.6,4.2-1.4c0.4-0.2,0.5,0.1,0.7,0.1c-0.2,0.1-0.5,0.2-0.6,0.3
					c0.8-0.4,2.4-0.7,2.5-1.1c1.1-0.1-0.5,0.5,0.9,0.1l-0.2,0.2c3,0.1,4.1-2.4,7.3-2.6c-0.2,0-0.3,0-0.4,0c3.5-1,6.6-3.3,9.9-4.6
					c0.9-0.4,0.9-0.7,1.3-1.2l0.4,0.2c0.2-0.3,0.4-0.6,0.6-0.9c1-1.1,2.6-0.8,3.8-2.4l-0.3-0.1c0.3-0.2,0.7-0.5,1-0.8
					c0.3-0.3,0.6-0.5,0.6-0.4c0-0.1,0-0.3,0.3-0.4l0.1,0.1l1-1.4c1-0.8,0.4,0.7,1.8-0.5c0.5-0.5,1.1-1.7,0.8-1.7
					c-0.2,0.2-0.6,0.4-0.8,0.3l0.4-0.5c-0.1-0.1-0.1-0.3-0.2-0.4c0.1,0.1,0.2,0.1,0.2,0.2c-0.2-0.2-0.4-0.4-0.6-0.6c0,0-0.1,0-0.1,0
					c-0.1,0-0.2,0-0.3,0c-0.2,0-0.5,0.1-0.8,0.3l-0.5,1l-0.4,0l0.6-0.6c-0.6,0.1-0.6,0.5-0.8,0.9c-0.2-0.1-0.3,0-0.5,0.1l-0.4,1.1
					c-0.2-0.1,0.1-0.6-0.5-0.3c-0.2,0.5,0.7,0.1,0.2,0.7c-0.5,0.1-0.6-0.1-0.9,0.5c-0.2-0.1-0.1-0.2,0-0.4c-0.3,0.5-1,0.9-1.1,1.3
					c-0.6,0.1-1.4,1.1-1.7,0.7c-0.1,0.2-0.5,0.9-0.9,1.2c0.3-1.1-1.5,1-1.7,0.3c-0.2,0.9-1.9,1.4-2.7,2.3c0-0.1,0.1-0.2,0.2-0.2
					c-0.6,0.3-0.8,0.2-1.3,0.4c0.2,0.5-0.7,1.1-1,1.6c-0.9-0.1,0.2-0.7-0.3-1c0.2,0.4-1.1,0.9-0.7,1.1c-0.7,0-0.5,0.1-1-0.1
					c0.2,0.6-0.5,0.3-0.8,0.9c-0.9,0.1-0.4-0.4-1.2,0.2C123.8,123.9,124.5,123.3,124.5,123.3z M102.3,129.5L102.3,129.5
					c0.2,0,0.4,0,0.5,0C102.7,129.5,102.6,129.5,102.3,129.5z M100.4,129.6c0.2,0,0.5,0,0.9,0c0.1,0.1,0,0.2-0.2,0.2
					C101.1,129.8,100.6,129.7,100.4,129.6z M104.7,131.8c-0.3,0.1-0.4,0-0.5-0.1c0.2,0,0.3,0,0.6-0.1c0,0,0,0,0,0
					C104.8,131.7,104.7,131.8,104.7,131.8z"/>
				<path class="st3" d="M105.2,131.4c0,0,0.1,0,0.1,0C105.3,131.3,105.2,131.3,105.2,131.4l-0.2,0
					C105.1,131.4,105.2,131.4,105.2,131.4z"/>
				<path class="st3" d="M115.8,84.3L115.8,84.3C115.8,84.3,115.8,84.3,115.8,84.3C115.8,84.3,115.8,84.3,115.8,84.3z"/>
				<polygon class="st3" points="74.4,123 74.4,123.1 74.6,123.1 				"/>
				<path class="st3" d="M122.7,92.9c0,0,0,0.1,0,0.2C122.7,93,122.7,93,122.7,92.9z"/>
				<path class="st3" d="M126,96.3l0.4,0.6C126.2,96.6,126.1,96.4,126,96.3z"/>
				<path class="st3" d="M128.4,99c0.1,0,0.1,0,0.2-0.1l0,0L128.4,99z"/>
				<path class="st3" d="M86.2,60.4c0,0-0.1,0-0.1,0C85.7,60.3,85.9,60.4,86.2,60.4z"/>
				<path class="st3" d="M99.9,69.9c-0.2-0.1-0.3-0.2-0.5-0.3C99.6,69.9,99.8,70.1,99.9,69.9z"/>
				<polygon class="st3" points="68.2,59.4 68.2,59.4 68.1,59.4 				"/>
				<path class="st3" d="M98.9,69.1c0.2,0.3,0.4,0.4,0.6,0.6C99.3,69.4,99.1,69.2,98.9,69.1z"/>
				<path class="st3" d="M139.5,110.3l0.1,0.1c0,0,0,0,0.1,0L139.5,110.3z"/>
				<path class="st3" d="M139.7,110.4l0.2,0.1C139.8,110.4,139.7,110.4,139.7,110.4z"/>
				<path class="st3" d="M140.2,110.7l-0.4-0.2C139.9,110.6,140.1,110.7,140.2,110.7z"/>
				<path class="st3" d="M136.2,106.8l-0.1,0C136.1,106.8,136.2,106.8,136.2,106.8z"/>
				<path class="st3" d="M135.1,105.7c0.2,0.3,0.4,0.8,0.8,1.1l0.1,0C135.8,106.8,135.5,105.8,135.1,105.7z"/>
				<path class="st3" d="M131.9,100.3l0.8,0.9c-0.1-0.2-0.1-0.6,0.3-0.2C132.2,99.7,133,101.5,131.9,100.3z"/>
				<path class="st3" d="M129.3,97.5c0.5,0.4,0.1-0.1,0.2-0.2C129.2,97.1,129.1,97.1,129.3,97.5z"/>
				<path class="st3" d="M109.9,78l0.3-0.2C109.8,77.5,110.1,77.9,109.9,78z"/>
				<polygon class="st3" points="105,75.4 105.2,75.9 105.6,75.9 				"/>
				<polygon class="st3" points="104.4,71.7 104.6,71.8 103.9,71.3 				"/>
				<path class="st3" d="M62.2,58.2l0.3,0.3C62.8,58.3,62.7,57.9,62.2,58.2z"/>
				<path class="st3" d="M47.4,72.2c-0.3,0.1-0.7,0.5-0.7,1C47,72.7,47.4,72.4,47.4,72.2z"/>
				<polygon class="st3" points="68.3,123.3 67.9,123.2 68.6,123.5 				"/>
			</g>
			<g>
				<path class="st3" d="M57.6,112.1c-0.2,0-0.3,0.2,0,0.4l0.5-0.1L57.6,112.1z"/>
				<path class="st3" d="M58.9,114.4c0.5,0.2,1.1,0.2,1.1-0.2c-0.6,0-0.6-0.2-1.2-0.2c-0.3-0.2-0.4-0.5-0.3-0.6
					c-0.2,0-0.4-0.5-0.7-0.4c0.1,0.6,0.6,1,1.3,1.2C59.2,114.3,59,114.3,58.9,114.4z"/>
				<path class="st3" d="M92.1,130.5l-0.2-0.1C91.9,130.5,92,130.5,92.1,130.5z"/>
				<path class="st3" d="M115.3,129.4c-0.2,0.1-0.2,0.1-0.2,0.1C115.2,129.5,115.4,129.4,115.3,129.4z"/>
				<path class="st3" d="M119.3,128.8c-0.1,0-0.2,0-0.2,0.1C119.2,128.8,119.3,128.8,119.3,128.8z"/>
				<path class="st3" d="M92.1,130.5l0.6,0.2C92.8,130.6,92.4,130.6,92.1,130.5z"/>
				<path class="st3" d="M63.5,116.9c-0.1-0.1-0.2-0.1-0.3-0.1L63.5,116.9C63.4,116.9,63.4,116.9,63.5,116.9z"/>
				<path class="st3" d="M81.9,128.7l-0.2-0.1c-0.1,0-0.1,0.1-0.2,0.1L81.9,128.7z"/>
				<path class="st3" d="M74.5,125.9c0.2,0.1,0.4-0.2,0.5-0.3c-0.1,0.1-0.3,0.1-0.5,0.1C74.5,125.7,74.5,125.8,74.5,125.9z"/>
				<path class="st3" d="M64,119.1l-0.2-0.1C63.9,119,64,119,64,119.1z"/>
				<path class="st3" d="M87.4,130.2c0,0.1,0,0.1,0,0.1C87.5,130.3,87.5,130.2,87.4,130.2z"/>
				<path class="st3" d="M64.6,107.4C64.5,107.4,64.5,107.4,64.6,107.4C64.5,107.4,64.5,107.4,64.6,107.4z"/>
				<path class="st3" d="M57,112.7L57,112.7L57,112.7L57,112.7L57,112.7L57,112.7L57,112.7L57,112.7L57,112.7l0-0.1l0-0.1
					c0-0.1-0.1-0.1-0.1-0.2l0,0.1l0,0.1L57,112.7L57,112.7L57,112.7L57,112.7L57,112.7L57,112.7L57,112.7L57,112.7z"/>
				<path class="st3" d="M126.3,126.5C126.3,126.5,126.3,126.5,126.3,126.5C126.1,126.6,126.2,126.5,126.3,126.5z"/>
				<path class="st3" d="M153.4,71.9c0.1,0.8-1-0.9-0.7,0.3C152.8,72,153.7,72.8,153.4,71.9z"/>
				<path class="st3" d="M63.6,117.1l0.3,0.2C63.7,117.2,63.7,117.1,63.6,117.1z"/>
				<path class="st3" d="M152.7,72.1L152.7,72.1l0,0.1C152.7,72.2,152.7,72.2,152.7,72.1z"/>
				<path class="st3" d="M140.6,117.2c-0.1,0-0.1,0-0.2,0C140.4,117.2,140.5,117.2,140.6,117.2z"/>
				<path class="st3" d="M129.9,123.9l0.3-0.1C130.1,123.8,130,123.9,129.9,123.9z"/>
				<path class="st3" d="M145.1,112.4c0.1-0.1,0.2-0.1,0.3-0.3c0,0-0.1,0-0.1,0C145.3,112.2,145.2,112.3,145.1,112.4z"/>
				<path class="st3" d="M149.8,107.4c0,0-0.1,0-0.1,0.1c0,0.1-0.1,0.1-0.1,0.2L149.8,107.4z"/>
				<path class="st3" d="M78.8,92.9c-0.2,0-0.3,0-0.4,0C78.7,93,78,93.7,78.8,92.9z"/>
				<path class="st3" d="M63.3,117.1c0.1,0,0.2,0,0.2,0c-0.1,0-0.1-0.1-0.2-0.1C63.3,117,63.3,117,63.3,117.1z"/>
				<path class="st3" d="M143.3,110.2l0.8-0.7C143.9,109.7,143.6,110,143.3,110.2z"/>
				<path class="st3" d="M113.7,60.8l-0.2,0.1C113.6,60.9,113.7,60.8,113.7,60.8z"/>
				<path class="st3" d="M146.3,107.3c0.2,0,0.4-0.1,0.6-0.3c0,0,0-0.1,0-0.1L146.3,107.3z"/>
				<path class="st3" d="M78.4,92.9L78.4,92.9L78.4,92.9z"/>
				<path class="st3" d="M74,98.4c0.7-0.7,0-0.7,0-1c0.8-0.9,0.6-0.2,1.1-0.3c0.5-0.6,0.6-1.3,1-1.7c0.1,0,0.2,0,0.2,0.1
					c0.3-0.8,1.7-1.7,2-2.7c0.1,0,0.1,0,0.2,0c-0.3-0.1-0.4-0.2-0.5-0.3c0.3-0.3,0.4-0.8,0.7-0.7c-0.2,0.2-0.1,0.3-0.2,0.4l0.2-0.4
					c0.6,0-0.4,0.6-0.1,0.8c0.6-0.8,1.1-1.8,1.7-2.2c0.4,0.2-1.1,1.3-0.1,0.9L79.2,92c1.1-0.1-0.5,0.4,0.5,0.4
					c1.1-0.9,1-1.3,2.1-2.2c0.1-0.4-0.3-0.2-0.3-0.6c1.2-1.7,1.9-0.4,2.6-1.9c0.1-0.5-0.2-1,0.8-1.5l0.1,0.6c1-1,0.1-1,1.4-1.9
					c-0.1,0.3-0.7,0.9-0.5,0.8c0.9-0.4,0.3-0.7,0.8-1.2l0.4,0.2c1-1.1,2-2.5,3.1-3.7c0,0.2-0.1,0.4,0.3,0.3c1.3-1.6,3.2-3.1,4.8-4.4
					l0.3-0.8c0.1-0.1,0.3-0.1,0.3,0.1c0.7-0.5-0.1-0.2,0-0.6c0.3-0.3,0.6-0.3,0.4,0c0.8-1.2,2.3-3.3,3.6-4l-0.1,0.3
					c0.9-0.7,0.4-1.4,1.4-1.9l-0.1,0.2c1.9-1.6,3.6-3.9,5.3-4.6c0-0.3,0.4-0.7,0.9-1c0.5-0.3,0.9-0.6,0.8-1c1.3-0.5,1-0.2,2.8-1
					c0.4-0.2,0.4-0.8,0.9-1.2l0.2,0.3c0.2-0.3,0.4-0.5,0.6-0.7l0.6,0.2l0.5-0.3c-0.2,0.1-0.5,0.1-0.5-0.1c0.4-0.3,0.9-0.5,1.4-0.5
					c0.5-0.1,0.8,0,0.9,0.1l1.9-1c0,0.2-0.3,0.3-0.6,0.5c1-0.7,0.3,0.3,1.2-0.3c-0.2,0,0-0.2,0-0.3c0.6,0.1,1.7-0.2,2.6-0.4
					l-0.1,0.3c0.8-0.1,1.6-0.2,2.5-0.4c0.9-0.1,1.7-0.2,2.6-0.2c-0.6-0.1-0.5-0.5,0-0.6l0.2,0.4c0.3-0.2-0.6-0.2,0.2-0.4
					c0.7,0.1,0.4,0.5,0.1,0.6l0.8-0.1c0,0.1-0.2,0.2-0.2,0.3c0.3-0.2,1.4,0.5,1.9,0.1l0,0.1c1.8,0.3,2.6,0.2,4,0.6
					c0.1-0.3,0.6-0.1,1.2-0.3c0.5,0.2,1,0.5,1.6,0.8c0.5,0.3,1.1,0.5,1.7,0.8c0.9,0.2,0.4-0.2,0.8-0.2c-0.1,0.3,1.1,0.8,0.4,0.8
					c0.7,0.3,1.2,0.5,1.7,0.8c0.5,0.2,1,0.5,2,0.9c-0.1-0.2-0.3-0.4-0.1-0.4c0.4,0.1,0.6,0.6,0.5,0.7l-0.1,0c1,0.5,2,1.4,2.7,2.4
					c0.4,0.5,0.8,1,1.1,1.3c0.4,0.4,0.7,0.8,1.1,1l-0.1-0.1c0.5,0.4,1,0.7,1.5,1.1c0.5,0.7-0.5-0.3-0.3,0.4c0.8,0.6,1.2,1.3,1.6,1.9
					c0.4,0.6,0.6,1.3,1.2,1.9c0,0.8,0.4,1.7,1,2.8c0.3,0.5,0.5,1,0.7,1.6c0.2,0.5,0.3,1,0.3,1.5l0.2-0.2c0.4,0.3,0.1,0.5,0.1,0.9
					c0.2-0.1,0.1-0.5,0.3-0.3c1.3,3.5,1.1,7.6,0.4,11.3c-0.3,1.3,1,0.9,0.2,2.6c-0.1-0.2-0.2-0.4-0.3-0.6c-0.1,2.9-1.5,5.5-2.3,8.1
					c0-0.2-0.1-0.3,0-0.5c-0.5,0.4-1.1,1.8-0.8,2c-0.2,0.4-0.2,0-0.5,0.1c-0.2,0.2-0.3,0.6-0.4,0.9c-0.1,0.3-0.3,0.6-0.5,0.6
					c-0.1,0,0-0.2,0.1-0.3c-0.1,0.4-1.1,1.4-0.6,1.3c-0.7,0.8-1.1,1.6-1.8,2.1c-0.1,0.7-1.3,1.2-1.1,1.7c-0.3-0.4-1.7,1-2,1.7
					c0-0.3-0.5,0.3-0.5-0.1c-0.5,0.6-1,1.1-0.7,1.2c-1.5,0.5-1.7,2.3-2.9,2.2c-0.8,0.8-1.4,1.7-2.2,2.4c-0.8,0.7-1.6,1.4-2.4,2.1
					c-0.3-0.5,1.8-1.4,1.4-1.8c-1.4,1.3-2,2.4-3.7,3.4c-0.5,0.2,0.1-0.3,0.2-0.5c-1.5,1.2-3.2,1.9-4.6,3c0,0,0.1-0.2,0.2-0.3
					c-0.3,0.2-0.7,0.3-0.6,0.5l0.3-0.2c0.3,0,0.1,0.4-0.2,0.7c-0.3,0.3-0.7,0.7-0.7,0.8c0.2-0.9-1.6,0.6-1.2-0.6
					c-0.2,0.1-0.4,0.4-0.3,0.5c-0.3,0.1-0.5,0.1-0.2-0.3c-1,0.6-0.5,0.7-1.6,1.2c0-0.1,0.1-0.3,0.2-0.4c-0.4,0.4-0.8,0.9-1.7,1.2
					c0-0.1-0.1-0.1,0.2-0.2c-1.5,0.6-2.4,1.5-4.1,1.9c0.3-0.7-0.6,0-0.8-0.4c-0.3,0.1-0.6,0.3-0.9,0.4c0.1,0,0.3,0.1,0.4,0.1
					c-0.8,0.2-1.4,0.7-2.2,0.7l0.6-0.3l-1.5,0.5l0.9,0c-0.8,0.4,0.2,0.5-0.9,0.7c0.2-0.1-0.8,0.2-1.3,0l0,0
					c-0.4,0.2-0.8,0.5-1.4,0.5c-0.2-0.1,0-0.5-0.1-0.6c-0.3,0.4-1.9,0.4-2.4,0.9c0.2-0.1,0.1-0.4,0.1-0.4l-0.3,0.4
					c-0.4,0-0.5-0.1-0.4-0.3c-1.2,0.1,0.4,0.5-1,0.5c0.1,0,0-0.1,0.3-0.2c-0.7,0-1.4,0.2-2,0.3c-0.7,0.1-1.3,0.2-1.9,0.1
					c-0.4-0.4,1.1-0.2,0.6-0.5c-0.9,0.1-1.8,0.3-2.8,0.4c-0.5,0.1-0.9,0.2-1.4,0.2c-0.5,0-0.9,0-1.4,0l0.3,0.1
					c-0.3,0.6-1.3-0.4-2.2-0.1c0.2,0,0.3-0.3,0.2-0.3c-0.6-0.1-1.2-0.1-1.9,0c-0.4,0-0.7,0.1-1.1,0.1c-0.4,0-0.8,0-1.3,0l0.2-0.1
					c-0.7-0.3-1.9-0.4-2.6-0.5c-0.3,0.1-0.7,0-0.5,0.3c-0.6-0.3-1.1-0.5-1.7-0.6c-0.6-0.1-1.1-0.2-1.7-0.3c-1.1-0.1-2.2-0.2-3.1-0.8
					c0.2,0.1,0.6,0,0.4,0c-0.6-0.1-1.2-0.2-1.8-0.3c0.1,0.3,0.2,0.2,0.5,0.6c-0.3,0.1-0.8,0-1.2-0.1c0.8,0.1,0.1-0.4-0.2-0.7
					c0,0.1-0.1,0.2-0.1,0.2c-0.7-0.8-0.3,0.5-1.5-0.3l0.1-0.1c-0.5-0.1-1-0.1-1.5-0.3c-0.1-0.4,0.5,0,0.7-0.2
					c-0.7-0.2-1.6,0.1-2.1-0.4c0.3,0.1,0.8,0.2,1.1,0.2c-0.5-0.6-0.7-0.5-1.1-0.8l0,0l-1.1-0.7l0.2,0.2c-1.2,0.4-1.8-0.6-3.1-0.7
					c1.3,0,0.3-0.2,0.6-0.5c-0.2-0.2-0.6-0.5-0.4-0.6c-0.7,0-0.8-0.6-1.7-0.6c0-0.1-0.5-0.3-0.3-0.5c-0.7-0.3,0.1,0.3-0.1,0.4
					c-1.2-0.2-2.1-1.8-3.8-2.2c-1.3-0.6-1.8-0.5-3-1.1c-0.3-0.4,0.6-0.1,0.6-0.1c-0.5-0.6-1-0.9-1.6-1.2c0.2,0,0.1-0.2,0-0.4
					c-0.5-0.3-0.6,0.1-1-0.4c0.2,0,0.4-0.1,0.7,0c-0.6-0.3-1.3-0.5-1.8-0.9c0-0.3,0.5,0,0.8,0.1c-0.6-0.4-1.6-1.2-2-1.1l0.3,0.4
					c-0.2-0.2,0.1-0.3,0.3-0.2c0.7,0.2,0.6,0.7,0.6,0.8l-0.4-0.3c0,0.4,0.3,0.7,0.8,1c0.5,0.3,1.1,0.4,1.5,0.8l-0.6,0.2l1.1,0.3
					c0.1,0.2,0,0.5-0.4,0.3c0.4,0.6,0.6,0.2,0.9,0.8c0,0.1,0,0.1-0.1,0.1l0.6,0.3c-0.2,0-0.1,0.4-0.4,0.1c0.8,1,1.8,0.9,2,1.5
					l-0.1,0c1.6,0.8,0.3-0.2,1.7,0.1l0.3,1.2l0.3-0.2c0.1,0.1,0.4,0.3,0.3,0.4c0.7,0.1,0-0.2,0.4-0.2c0.6,0.7,2.1,1,2,1.7
					c0.4-0.1-0.6-0.6,0.3-0.3c-0.1,0.7,1,0.4,1.6,1c-0.4,0.2-1-0.3-0.4,0.3c0.7-0.3,1.3,0.8,2,0.9c0.2-0.4,1.4,0.4,2.4,0.8
					c-0.1,0.1,1.9,0.9,2.8,1.4l-0.1,0.1c0.3-0.4,1.3,0.1,2.1,0.2c-0.1,0.2-0.3,0.3-0.7,0.3l0.7,0.2c0.2-0.1,0.4-0.1,0.9,0l-0.3,0.3
					c0.9,0.2,2,0.1,3.2,0.6c0.1-0.3-0.7-1.1,0.6-1c0,0.2,0,0.5-0.4,0.5c0.1,0,0.4,0,0.6,0.1l-0.6,0.2c0.5,0.3,0.3-0.2,0.8,0
					c-0.1,0.2,0.3,0.2,0.2,0.4c-0.1,0-0.4-0.2-0.6-0.1c0.5,0.2,1.1,0.5,1.2,0.7c0-0.1,0.1-0.3,0.4-0.3c0.9,0.2,0.3,0.4,0.8,0.6
					c0.3-0.1,0.8,0.1,0.9-0.2c0.3,0,0.3,0.2,0.4,0.3c0.5-0.1,2.3,0.3,1.8-0.2l-0.1,0c0,0,0.1,0,0.1,0l0,0l0,0
					c0.8-0.1,1.7,0.1,2.5,0.3c0.8,0.1,1.7,0.3,2.5,0.2l0,0.1c1-0.1,2.2,0,2.9-0.2c0.3,0,0.7,0.3,0.6,0.4c0.7-0.1,0.8-0.3,1.9-0.1
					c-0.7,0.2,0.3,0.2-0.8,0.2c1,0.1,1.2,0.2,2.2-0.1c-0.3,0.3,0.8,0.4,1.2,0.2l-0.7-0.2c0.5-0.1,1-0.1,1.4-0.1l-0.2,0.4
					c1,0.2,1.9-0.2,2.7-0.4c0.8-0.3,1.6-0.5,2.4-0.2c0.5-0.4-1.1,0-0.7-0.4c0.9-0.1,2,0.4,2.2,0.3c1.3,0,1-0.9,2.3-1
					c-0.2-0.1-0.4-0.4,0.5-0.8c0.9-0.2,1.2,0.3,0.7,0.6c-0.2,0.1-0.3,0-0.3,0c-0.3,0.1-0.6,0.3-0.2,0.3l0.1-0.2c0.5,0,1.7-0.3,1.5,0
					c0.6-0.3,0.2-0.3-0.3-0.3c1.2-0.1,1.8-0.4,3-0.7c-0.2,0-0.4-0.1-0.2-0.2c1.7-0.4,0.7-0.5,1.8-1c0.7,0-0.1,0.6,1,0
					c0.7-0.1,0.3,0.3,0,0.5c0.9-0.6,2-0.5,2.6-0.7c-0.2,0.1-0.3,0.2-0.5,0.3c0.3-0.2,0.6-0.3,0.8-0.4l-0.4-0.1
					c0.3-0.1,0.6-0.2,0.6-0.1c0.2-0.3-0.4-0.3,0.1-0.9c0.5-0.1,1.2-0.7,1.5-0.4c-1.4,0.5,0.3,0.3-0.8,0.9c0.2-0.1,0.5-0.3,0.8-0.4
					c0.1,0,0,0.1-0.1,0.2c1.4-0.3,0.4-0.7,1.7-1.3c-0.1,0.3,0.5,0.2,0.7,0.1c-0.5,0.2-0.4-0.2,0-0.6c0.9-0.2,0.8-0.6,1.2-0.8
					l-0.5,0.2c0.1-0.3,0.5-0.5,1-0.9c0.1,0.1-0.4,0.4-0.2,0.3c0.4-0.7,1.6-0.5,2.3-1.2c0.5-0.1,0.3,0.3,0.7,0.2
					c0.8-0.8,1.2-0.3,2-1.2c-0.4,0-0.4,0,0.1-0.7c-0.5,0.4-0.9,0.9-1.5,1.2c0.3-0.3,0.6-0.6,0.8-1c-0.5,0.3-0.9,0.8-1.2,0.9
					c0.4-0.5,0.4-0.4,0-0.5c0.9,0,1.2-1,2-1.3l0.4,0.6c1.3-0.6,1.7-1.7,3.3-2.6l-0.5,0.2c0-0.4,0.9-0.6,1.2-1.2
					c0.1,0.2,0.4,0.1,0.7,0c-0.1-0.1,1-0.9,0.8-1.3l0.8-0.3c1.2-0.9,0.7-1.6,1.8-2.5c-0.1,0.5,0.5,0.2-0.1,0.9
					c0.3-0.3,0.7-0.6,0.6-0.7c0.3-0.1,0.7-1.1,1.1-1.2c0.1-0.2-0.1-0.4,0.3-0.8c0.1,0,0.1,0.1,0.1,0.1c-0.1-0.1,0.4-0.7-0.1-0.6
					c0.8-0.2,1.4-0.9,2.1-1.6c0.6-0.7,1.2-1.5,1.9-1.7c0.6-0.8,1.2-1.9,1.8-2.6c0,0.1,0.1,0.1,0,0.2c0.9-0.9-0.2-1,0.8-2.1
					c0.7-0.4-0.2,0.8,0.2,0.4c0.8,0.2,0.8-1.5,1.6-2.2l-0.1,0.2c0.5-0.6,0.6-1.8,1-2.9c0,0,0,0.1,0.1,0c-0.1-0.9,0.3-2.4,0.4-3.6
					c0.2,0.4,0,0.6,0.4,0.4c0.1-0.5-0.5,0-0.4-1c0.2-0.3,0.6-1,0.9-1l-0.2,1c0.6-0.4,0.3-1.2,0.4-1.7l0.2,0.1c0.1-0.8,0-1.2-0.1-1.6
					c-0.1-0.4-0.1-0.8-0.1-1.6l-0.2,0.2c-0.4-0.9,0.3-0.7,0-1.6l0.5-0.3c-0.1-0.6-0.5-2-0.7-3.1c0.4,0.6,0.6,1.8,0.9,2.5
					c0-0.6-0.1-2-0.4-2.3c0.1,0.2,0.2,0.5,0.1,0.8c-0.4-0.7-0.6-1.6-0.8-2.7c0.5,0,0.4-0.7,0.3-1.6c-0.2-0.9-0.4-1.9-0.1-2.4
					c-0.9-1.9-1.1-4-2.2-6.1c-0.3,1.1-0.3-0.6-0.9-0.1c-0.3-0.5-0.4-0.6-0.4-0.7l-0.5-1.7c0-0.5,0.4,0.4,0.5,0.2
					c-0.6-1.1,0-0.6-0.3-1.4c-0.1,0.3-0.6-0.1-0.9-0.8l0.3,1c-1.4-1.1-0.3-1.6-1.8-2.7c0.2,0.1,0.4,0.2,0.5,0.3
					c-0.3-0.3-0.9-0.9-1.5-1.5c-0.6-0.6-1.2-1.1-1.8-1.2c-0.1-0.2-0.1-0.5,0.3-0.2c-1.5-1.6-4-2.6-5.2-3.7l0.2-0.1
					c-0.4-0.2-0.8-0.1-1.1-0.5c0.1-0.1,0.2-0.1,0.1-0.2c-0.2,0-1.1-0.3-1.5-0.6c0.2,0,0.3,0,0.5,0c-1.8-1.1-3.1-1-4.7-1.4
					c0.2-0.5-1.3-1.3-2.1-1.5l0-0.1c-1.2-0.3-2.2-0.5-3.2-0.5c-1,0-2,0-3.1,0.1c-0.7-0.3-1.9-0.5-3.1-0.4c-0.6,0-1.3,0-2,0.1
					c-0.6,0.1-1.3,0.1-1.8,0.1c0.4,0,0,0.4-0.4,0.5c-0.5-0.1-1.3,0.6-1.4,0.1l0.2,0c-0.5-0.4-1.5,0-2.3,0.2l0,0.7
					c-1.2-0.1-2.5,0.4-3.7,1c-1.1,0.7-2.2,1.2-2.9,1.2c-0.4,0.4-0.9,0.7-1.3,1.2l-0.2-0.3c-0.7,0.3-1.1,0.6-1.6,1
					c-0.5,0.3-1,0.7-1.7,1.3l0.1-0.4c-0.9,0.6-0.3,1.6-1,2.2l-0.6-0.2c-0.7,0.6-1.3,1.1-2,1.7c-0.6,0.6-1.2,1.2-1.7,1.9
					c0-0.1-0.1-0.2,0.1-0.4c-0.6,0.6-2.5,2-1.7,2.3c-0.3-0.3-1.3,1.2-1.8,2l-0.1-0.3c-0.2,0.9-0.2,1-0.9,1.8c-0.2,0.2-0.4,0,0-0.2
					c-0.7,0.5-0.2,0.7-1.1,1.3l0.1-0.4c-0.6,0.6-0.5,0.6-0.7,1.2c-0.3,0.5-1.3,1.1-1.6,1c0,0.2-0.1,0.7-0.5,1c-0.1,0,0-0.2,0-0.3
					c-1.2,0.9-1.3,1.8-2.2,2.3c-0.1-0.1-0.2-0.1-0.3,0c0.8-0.8,1.5-1.5,1.5-1.4c-0.2-0.2-0.9,0.4-0.7-0.4c-0.4,0.7-0.9,2-1.7,2.5
					c-0.1,0-0.1,0-0.2,0l0-0.1c-0.2,0.1-0.3,0.3-0.4,0.5c-0.2,0.2-0.4,0.3-0.6,0.5c-0.3-0.1-0.9,0.7-1.2,1c0.3,0.2-0.2,0.6,0.4,0.4
					c-0.1,0,0-0.1,0.2-0.3c0-0.1,0.1-0.1,0.1-0.2l0,0c0.2-0.2,0.5-0.5,0.8-0.9c-0.1,0.4-0.3,0.8-0.8,1c0,0.3,0,0.7-0.1,0.9
					c-0.8,0.1-1.9,0.8-2.2,0.7c-0.9,1.2-2.3,2.5-2.5,3.6c-0.2,0.4-0.5,0.2-0.6,0.2c0.1-0.2,0.3-0.4,0.4-0.6
					c-0.5,0.7-1.7,1.8-1.5,2.2c-0.9,0.6,0.1-0.7-0.8,0.4l0-0.2c-2.5,1.5-2.4,4-5.3,5.6c0.2-0.1,0.3-0.2,0.4-0.1
					c-2.8,2.2-4.9,5.4-7.8,7.5c-0.8,0.6-0.7,0.9-0.9,1.5l-0.4-0.1l-0.4,1c-0.8,1.3-2.4,1.2-3.3,2.9l0.3,0c-0.5,0.4-1.4,1.6-1.5,1.3
					c0,0.1,0,0.3-0.2,0.4l-0.2-0.1l-0.9,1.4c-1,0.8-0.4-0.7-1.7,0.6c-0.4,0.5-1,1.8-0.7,1.7c0.2-0.2,0.6-0.4,0.7-0.3l-0.4,0.5
					c0.1,0.1,0.1,0.3,0.2,0.4c-0.1-0.1-0.2-0.1-0.2-0.2c0.2,0.2,0.4,0.4,0.6,0.6c0,0,0.1,0,0.1,0c0.1,0,0.2,0,0.3,0
					c0.2,0,0.5-0.1,0.8-0.3l0.5-1l0.4-0.1l-0.6,0.7c0.5-0.2,0.6-0.6,0.8-0.9c0.2,0,0.3,0,0.5-0.1l0.4-1.1c0.2,0.1,0,0.7,0.6,0.2
					c0.2-0.5-0.7,0-0.2-0.7c0.5-0.2,0.6,0.1,0.9-0.5c0.2,0,0.1,0.2,0,0.4c0.3-0.5,1-1.1,0.9-1.5c0.6-0.2,1.2-1.3,1.6-0.9
					c0-0.2,0.4-1,0.7-1.3c-0.2,1.1,1.3-1.3,1.7-0.6c0.1-0.9,1.5-1.9,2.1-3c0,0.1,0,0.2-0.1,0.3c0.5-0.4,0.8-0.5,1.2-0.7
					c-0.3-0.4,0.4-1.2,0.6-1.8c0.9-0.3,0,0.8,0.5,0.9c-0.3-0.2,0.7-1.3,0.3-1.3c0.6-0.2,0.5-0.3,1-0.2c-0.3-0.5,0.3-0.5,0.4-1.1
					c0.9-0.4,0.6,0.2,1.1-0.6C74.5,97.6,74,98.4,74,98.4z M90.1,80.9L90.1,80.9c-0.1,0.2-0.3,0.3-0.3,0.4
					C89.8,81.2,89.9,81.1,90.1,80.9z M91.5,79.5c-0.2,0.2-0.4,0.4-0.6,0.6c-0.1,0-0.2-0.2,0-0.3C90.8,79.9,91.2,79.6,91.5,79.5z
					 M86.8,80.8c0.2-0.3,0.3-0.3,0.4-0.3c-0.1,0.1-0.2,0.2-0.4,0.4c0,0,0,0,0,0.1C86.8,80.9,86.8,80.9,86.8,80.8z"/>
				<path class="st3" d="M86.7,81.5c0,0,0,0.1-0.1,0.1c0.1,0,0.1,0,0.2-0.1c0-0.1,0-0.1,0-0.2C86.8,81.4,86.7,81.5,86.7,81.5z"/>
				<path class="st3" d="M91.8,130.4L91.8,130.4C91.8,130.4,91.8,130.4,91.8,130.4C91.8,130.4,91.8,130.4,91.8,130.4z"/>
				<polygon class="st3" points="111.9,61.8 111.8,61.7 111.7,61.9 				"/>
				<path class="st3" d="M81.4,126.9c0,0,0-0.1-0.1-0.1C81.3,126.7,81.4,126.8,81.4,126.9z"/>
				<path class="st3" d="M77,125.2l-0.6-0.4C76.7,125,76.9,125.1,77,125.2z"/>
				<path class="st3" d="M73.8,123.5c-0.1,0-0.1,0.1-0.1,0.1l0,0L73.8,123.5z"/>
				<path class="st3" d="M128.6,122c0,0,0.1-0.1,0.1-0.1C129,121.7,128.8,121.9,128.6,122z"/>
				<path class="st3" d="M113,128.6c0.2-0.1,0.3-0.2,0.5-0.3C113.2,128.4,113,128.4,113,128.6z"/>
				<polygon class="st3" points="143.3,110.3 143.3,110.3 143.3,110.2 				"/>
				<path class="st3" d="M114.3,128.2c-0.3,0-0.6,0.1-0.8,0.2C113.7,128.3,114,128.3,114.3,128.2z"/>
				<path class="st3" d="M61,114.9l-0.1-0.1c0,0,0,0-0.1,0L61,114.9z"/>
				<path class="st3" d="M60.8,114.8l-0.2-0.1C60.7,114.7,60.8,114.8,60.8,114.8z"/>
				<path class="st3" d="M60.3,114.5l0.4,0.2C60.6,114.6,60.4,114.4,60.3,114.5z"/>
				<path class="st3" d="M64.6,117.9l0.1-0.1C64.7,117.9,64.7,117.9,64.6,117.9z"/>
				<path class="st3" d="M65.8,118.8c-0.3-0.2-0.5-0.7-1-0.9l-0.1,0.1C65,117.8,65.4,118.7,65.8,118.8z"/>
				<path class="st3" d="M70.2,123.3l-1-0.7c0.1,0.2,0.3,0.5-0.2,0.3C70.1,124,68.8,122.4,70.2,123.3z"/>
				<path class="st3" d="M73.5,125.2c-0.6-0.2-0.1,0.2-0.1,0.2C73.8,125.5,73.9,125.6,73.5,125.2z"/>
				<path class="st3" d="M100.5,131.3l-0.1,0.3C100.9,131.6,100.4,131.5,100.5,131.3z"/>
				<polygon class="st3" points="105.6,129.5 105.1,129.3 104.9,129.6 				"/>
				<polygon class="st3" points="109,131.3 108.8,131.4 109.6,131.1 				"/>
				<path class="st3" d="M149.2,108.6l-0.4-0.1C148.6,108.7,148.9,109.1,149.2,108.6z"/>
				<path class="st3" d="M156.8,89.7c0.2-0.2,0.4-0.8,0.2-1.2C156.9,89.1,156.8,89.5,156.8,89.7z"/>
				<polygon class="st3" points="115.5,56.9 115.9,56.7 115.2,57 				"/>
			</g>
		</g>
		<g class="st0">
			<circle class="st1" cx="100.2" cy="35.7" r="14.6"/>
			<g>
				<path class="st2" d="M114,35.7c0.1,0,0.3,0,0.3-0.1l-0.4-0.1L114,35.7z"/>
				<path class="st2" d="M114.7,34.8c-0.2-0.1-0.6-0.3-0.9-0.2c0.4,0.1,0.2,0.2,0.7,0.3c0.1,0.1-0.1,0.2-0.3,0.2
					c0.1,0-0.1,0.2,0.2,0.3c0.3-0.2,0.3-0.4,0-0.6C114.6,34.8,114.7,34.8,114.7,34.8z"/>
				<path class="st2" d="M109,23.4L109,23.4C109.1,23.4,109,23.4,109,23.4z"/>
				<path class="st2" d="M101.2,20.4c0.1,0,0.1,0,0.1-0.1C101.3,20.3,101.2,20.3,101.2,20.4z"/>
				<path class="st2" d="M99.8,19.9C99.8,19.9,99.8,19.9,99.8,19.9C99.8,19.9,99.8,19.8,99.8,19.9z"/>
				<path class="st2" d="M109,23.4l-0.1-0.2C108.8,23.2,109,23.3,109,23.4z"/>
				<path class="st2" d="M113.6,33.3c0,0,0.1,0.1,0.1,0.1C113.7,33.3,113.6,33.3,113.6,33.3L113.6,33.3z"/>
				<path class="st2" d="M112,25.6L112,25.6c0.1,0,0.2,0,0.2,0L112,25.6z"/>
				<path class="st2" d="M113.7,28c0-0.1-0.3,0.1-0.5,0.1c0.1,0,0.2,0,0.3,0C113.6,28.1,113.6,28,113.7,28z"/>
				<path class="st2" d="M114.8,32.4L114.8,32.4C114.9,32.4,114.8,32.4,114.8,32.4z"/>
				<path class="st2" d="M110.6,24.1c0,0,0.1-0.1,0.1-0.1C110.6,24,110.6,24.1,110.6,24.1z"/>
				<path class="st2" d="M112.9,38.5C112.9,38.5,113,38.5,112.9,38.5C113,38.5,112.9,38.5,112.9,38.5z"/>
				<polygon class="st2" points="114.9,35.7 115,35.8 115.2,35.8 				"/>
				<path class="st2" d="M97,19.7C97,19.7,97,19.7,97,19.7C97,19.7,97,19.7,97,19.7z"/>
				<path class="st2" d="M84.5,39.1c0.2-0.3,0.5,0.4,0.7-0.1C85.1,39.1,84.6,38.8,84.5,39.1z"/>
				<path class="st2" d="M113.6,33.2c0,0,0-0.1,0-0.1C113.6,33.1,113.6,33.2,113.6,33.2z"/>
				<path class="st2" d="M85.2,39L85.2,39L85.2,39C85.2,39,85.2,39,85.2,39z"/>
				<path class="st2" d="M91.1,22.4c0,0,0.1,0.1,0.1,0.1C91.2,22.5,91.2,22.4,91.1,22.4z"/>
				<path class="st2" d="M95.6,20.8l-0.1,0C95.5,20.8,95.5,20.8,95.6,20.8z"/>
				<path class="st2" d="M89.5,24.3c-0.1,0-0.1,0-0.1,0.1c0,0,0,0,0,0C89.4,24.4,89.5,24.3,89.5,24.3z"/>
				<path class="st2" d="M87.9,26.2C87.9,26.2,87.9,26.2,87.9,26.2l0.1-0.1L87.9,26.2z"/>
				<path class="st2" d="M110.3,44.3c0.1,0,0.2,0.1,0.3,0.1C110.4,44.3,110.5,44,110.3,44.3z"/>
				<path class="st2" d="M113.8,33.2c-0.1,0-0.1,0-0.2,0c0,0,0,0,0,0.1C113.7,33.2,113.7,33.2,113.8,33.2z"/>
				<path class="st2" d="M91.3,26.4l-0.3,0.2C91.2,26.5,91.3,26.5,91.3,26.4z"/>
				<path class="st2" d="M96.5,48.5L96.5,48.5C96.6,48.4,96.6,48.4,96.5,48.5z"/>
				<path class="st2" d="M90.4,27.3c-0.1,0-0.2,0-0.3,0c0,0,0,0.1,0,0.1L90.4,27.3z"/>
				<path class="st2" d="M110.6,44.4L110.6,44.4L110.6,44.4z"/>
				<path class="st2" d="M111.2,42.1c-0.2,0.3,0.3,0.4,0.5,0.5c-0.1,0.4-0.4,0-0.6,0c0,0.3,0.2,0.7,0.1,0.8c-0.1,0-0.1,0-0.2-0.1
					c0.1,0.4-0.4,0.6-0.3,1.1c0,0-0.1,0-0.1,0c0.2,0.1,0.4,0.3,0.5,0.4c-0.1,0.1,0,0.4-0.2,0.2c0.1-0.1,0-0.1-0.1-0.2l0,0.2
					c-0.4-0.2,0-0.3-0.2-0.5c-0.1,0.3-0.1,0.8-0.3,0.9c-0.3-0.3,0.3-0.5-0.2-0.5l0.4-0.2c-0.7-0.2,0.2-0.1-0.5-0.4
					c-0.4,0.2-0.2,0.5-0.6,0.8c0.1,0.2,0.3,0.2,0.3,0.5c-0.2,0.8-1.1-0.4-1.1,0.3c0.1,0.3,0.4,0.7-0.1,0.7l-0.2-0.4
					c-0.4,0.2,0.2,0.7-0.4,0.7c0-0.2,0.2-0.3,0.1-0.3c-0.5-0.1,0,0.3-0.2,0.5l-0.3-0.3c-0.4,0.3-0.6,0.9-1.1,1.2
					c0-0.1,0-0.3-0.2-0.3c-0.2,0.2-0.6,0.4-0.9,0.5c-0.4,0.1-0.7,0.1-1.1,0l-0.1,0.4c-0.1,0-0.1-0.1-0.1-0.2c-0.3-0.1,0.1,0.2,0,0.4
					c-0.1,0.1-0.2-0.2-0.2-0.3c-0.3,0.4-1.1,1-1.6,0.6l0.1-0.1c-0.4-0.1-0.3,0.8-0.7,0.5l0.1-0.1c-0.8-0.1-1.7,0.3-2.3-0.3
					c-0.2,0.5-0.7-0.3-0.9,0.4c-0.4-0.4-0.3-0.5-0.8-0.9c-0.2-0.1-0.3,0.4-0.6,0.4l0.1-0.4l-0.4,0.3l0-0.5l-0.2,0
					c0.1,0,0.1,0.2,0.1,0.3c-0.4,0.1-0.6-0.4-0.6-0.6l-0.8,0.1c0.1-0.1,0.2-0.1,0.3-0.2c-0.5,0.2,0.1-0.4-0.4-0.2
					c0,0.1-0.1,0.2-0.1,0.3c-0.1-0.3-0.4-0.5-0.7-0.5l0.2-0.2c-0.4-0.3-1-0.4-1.5-0.7c0.1,0.2-0.2,0.6-0.3,0.5l0.2-0.4
					c-0.2,0.1,0.1,0.2-0.3,0.4c-0.2-0.2,0.1-0.5,0.3-0.5l-0.3,0c0.1-0.1,0.1-0.1,0.2-0.2c-0.2,0.1-0.1-0.6-0.5-0.3l0.1-0.1
					c-0.5-0.3-0.7-0.4-1.1-0.7c-0.2,0.2-0.3,0.1-0.6,0.2c-0.2-0.4-0.2-0.8-0.5-1.1c-0.3-0.1-0.3,0.1-0.5,0.1
					c0.2-0.2-0.1-0.5,0.3-0.5c-0.3-0.4-0.5-0.5-1-0.9c-0.1,0.1-0.1,0.2-0.2,0.3c-0.1-0.1,0-0.3,0.1-0.4l0,0c-0.8-0.4,0-1.9-0.8-2.2
					l0,0l-0.5-0.5c0-0.3,0.3,0.1,0.4-0.2c-0.7-0.4-0.2-1-0.7-1.4c0.4-0.3,0.3-0.6,0.2-1c-0.1-0.4-0.3-0.8,0-1.1l-0.2,0
					c-0.2-0.1,0.1-0.2,0.2-0.3c-0.2,0-0.2,0.2-0.3,0.1c-0.3-1.2,0.4-2.5,0.9-3.6c0.2-0.4-1-0.5-0.4-1l0.3,0.3
					c-0.1-0.5,0.1-0.9,0.2-1.4c0.2-0.4,0.4-0.8,0.5-1.3c0.1,0.1,0.2,0.1,0.1,0.2c0.3,0,0.4-0.6,0.2-0.7c0.1-0.1,0.2,0.1,0.4,0.1
					c0.2-0.1-0.1-0.6,0.2-0.5c0.1,0,0,0.1,0,0.1c0-0.2,0.4-0.4,0-0.5c0.3-0.2,0.3-0.6,0.6-0.7c-0.2-0.4,0.5-0.3,0.2-0.7
					c0.4,0.4,0.7-0.1,0.7-0.5c0.1,0.2,0.3,0,0.4,0.2c0.2-0.2,0.3-0.4,0-0.6c0.7,0.2,0.4-1,1.1-0.5c0.2-0.3,0.4-0.6,0.7-0.9
					c0.2-0.3,0.5-0.5,0.8-0.7c0.2,0.5-0.6,0.4-0.3,0.9c0.4-0.5,0.5-1.1,1.2-1.2c0.2,0,0,0.3,0,0.4c0.5-0.5,1.1-0.4,1.6-0.9
					c0,0,0,0.1-0.1,0.2c0.1,0,0.3,0,0.2-0.2l-0.1,0.1c-0.3-0.3,0.2-0.8,0.2-1c0,0.7,0.6,0,0.5,1c0.1-0.1,0.1-0.2,0.1-0.4
					c0.1,0,0.2,0.1,0.1,0.3c0.4-0.2,0.2-0.4,0.5-0.5c0,0.1,0,0.2-0.1,0.3c0.1-0.3,0.3-0.5,0.6-0.5c0,0.1,0,0.2-0.1,0.2
					c0.5-0.1,0.9-0.7,1.5-0.5c-0.2,0.5,0.2,0.2,0.2,0.6c0.1-0.1,0.2-0.1,0.3-0.1l-0.1-0.2c0.3,0,0.5-0.3,0.8-0.1l-0.2,0.2l0.5-0.1
					l-0.3-0.2c0.3-0.2,0-0.6,0.4-0.4c-0.1,0,0.3,0,0.4,0.3l0,0c0.2-0.1,0.3-0.3,0.5-0.1c0,0.2-0.1,0.5-0.1,0.6
					c0.2-0.4,0.7,0,0.9-0.4c-0.1,0.1-0.1,0.3-0.1,0.4l0.2-0.3c0.1,0.1,0.1,0.2,0.1,0.4c0.4,0.2,0-0.6,0.4-0.2c0,0,0,0.1-0.1,0.1
					c0.4,0.2,0.9,0,1.3,0.3c0,0.5-0.4,0-0.4,0.4c0.6,0.1,1.4-0.1,1.9,0.3l-0.1-0.1c0.4-0.5,0.3,0.5,0.7,0.3c-0.1,0-0.3,0.3-0.2,0.2
					c0.3,0.3,0.8,0.3,1.4,0.5l-0.2,0.1c0.1,0.3,0.5,0.5,0.6,0.7c0.2-0.1,0.3,0,0.3-0.2c0,0.6,0.4,0.8,0.8,0.9
					c0.4,0.1,0.8,0.3,0.7,0.8c-0.1-0.1-0.2,0-0.2,0l0.5,0.3c0.2-0.2,0.1-0.2,0.2-0.4c0.2-0.1,0.4,0,0.5,0.1
					c-0.3-0.1-0.3,0.3-0.4,0.5c0.1-0.1,0.2-0.1,0.2-0.2c-0.2,0.6,0.5-0.3,0.5,0.3l-0.1,0.1c0.2,0.1,0.4,0.1,0.5,0.3
					c-0.2,0.2-0.2-0.1-0.5,0.1c0.2,0.2,0.8,0,0.7,0.4c-0.1,0-0.2-0.2-0.4-0.2c-0.2,0.4-0.1,0.4,0,0.6l0,0l0.1,0.4l0-0.1
					c0.9-0.2,0.5,0.4,1.1,0.6c-0.7-0.1-0.3,0.1-0.6,0.2c0,0.1-0.1,0.3-0.2,0.3c0.4,0-0.1,0.4,0.4,0.4c-0.1,0.1,0.1,0.2-0.2,0.3
					c0.2,0.2,0.2-0.1,0.3-0.2c0.6,0.2-0.1,1,0.6,1.4c0.4,0.4,0.8,0.4,1.1,0.8c-0.1,0.2-0.5,0-0.5,0c-0.1,0.3,0,0.5,0.2,0.7
					c-0.1,0-0.2,0-0.3,0.1c0.1,0.2,0.4,0,0.3,0.3c-0.1,0-0.4,0-0.5-0.1c0.1,0.2,0.4,0.4,0.5,0.6c-0.2,0.1-0.3-0.1-0.5-0.2
					c0.1,0.2,0.3,0.6,0.6,0.7l0.1-0.2c0,0.1-0.3,0.1-0.3,0c-0.3-0.2,0.1-0.3,0.2-0.4l0.1,0.2c0.7-0.3-0.2-0.7-0.2-1l0.5,0l-0.5-0.3
					c0.1-0.1,0.4-0.2,0.5-0.1c0.2-0.3-0.2-0.2,0-0.4c0,0,0.1,0,0.1,0l-0.2-0.2c0.1,0,0.3-0.1,0.3,0c0.2-0.5-0.5-0.6-0.2-0.9l0,0
					c-0.3-0.5-0.4,0-0.9-0.2l0.8-0.6l-0.4,0.1c0-0.1,0-0.2,0.1-0.2c-0.3-0.1-0.1,0.1-0.4,0.1c0.2-0.4-0.5-0.7,0.1-1
					c-0.3,0-0.1,0.3-0.4,0.1c0.5-0.4-0.3-0.3-0.1-0.7c0.3-0.1,0.3,0.2,0.4-0.1c-0.6,0.1-0.1-0.6-0.4-0.7c-0.4,0.2-0.4-0.3-0.8-0.6
					c0.2-0.1-0.2-0.7-0.3-1.1l0.1,0c-0.4,0.2-0.5-0.1-0.8-0.3c0.2-0.2,0.3-0.2,0.5-0.2l-0.2-0.2c-0.2,0-0.3,0-0.4-0.1l0.3-0.2
					c-0.3-0.3-0.8-0.3-0.9-0.7c-0.2,0.2-0.4,0.9-0.8,0.7c0.1-0.1,0.3-0.4,0.4-0.3c0,0-0.2,0-0.2-0.1l0.3-0.1c-0.1-0.2-0.2,0.1-0.3,0
					c0.2-0.2,0-0.2,0.2-0.3c0,0,0,0.2,0.1,0.1c-0.1-0.2-0.2-0.4-0.1-0.6c-0.1,0.1-0.2,0.2-0.3,0.2c-0.3-0.2,0.1-0.3,0-0.5
					c-0.2,0.1-0.2-0.2-0.5,0.1c-0.1-0.1,0-0.2,0-0.3c-0.2,0-0.7-0.5-0.8,0l0,0c0,0,0,0,0,0l0,0l0,0c-0.7-0.1-0.9-0.8-1.5-1l0.1-0.1
					c-0.4-0.1-0.7-0.3-1.1-0.2c-0.1,0-0.1-0.3,0-0.4c-0.3,0-0.4,0.1-0.6-0.2c0.3-0.1,0-0.2,0.3,0c-0.3-0.2-0.3-0.4-0.8-0.2
					c0.2-0.2-0.1-0.5-0.3-0.4l0.2,0.3c-0.2,0-0.3-0.1-0.5-0.2l0.2-0.4c-0.6-0.7-1.5,0.5-1.8-0.4c-0.2,0.3,0.4,0.3,0.1,0.6
					c-0.3-0.1-0.6-0.7-0.7-0.8c-0.4-0.3-0.5,0.5-1,0.3c0,0.1,0.1,0.5-0.3,0.7c-0.3-0.1-0.4-0.6-0.1-0.7c0.1,0,0.1,0,0.1,0.1
					c0.1,0,0.3-0.1,0.1-0.3l-0.1,0.1c-0.2-0.2-0.6-0.2-0.5-0.4c-0.3,0.1-0.1,0.2,0.1,0.3c-0.4-0.2-0.7-0.1-1.1-0.2
					c0.1,0.1,0.1,0.2,0.1,0.2c-0.7-0.1-0.3,0.3-0.7,0.4c-0.3-0.2,0.1-0.5-0.4-0.3c-0.3-0.1-0.1-0.4,0-0.5c-0.4,0.3-0.8-0.1-1-0.1
					l0.2-0.1c-0.1,0.1-0.2,0.1-0.3,0.1l0.2,0.3c-0.1,0-0.2,0-0.3-0.1c-0.1,0.2,0.2,0.5,0,0.8c-0.2-0.1-0.5,0.2-0.6-0.1
					c0.5,0-0.1-0.4,0.3-0.5c-0.1,0.1-0.2,0.1-0.3,0c0,0,0-0.1,0-0.1c-0.6-0.2-0.1,0.5-0.7,0.6c0-0.2-0.2-0.4-0.3-0.3
					c0.2-0.1,0.2,0.3,0,0.5c-0.4-0.1-0.3,0.2-0.5,0.2l0.2,0c0,0.2-0.2,0.2-0.4,0.4c-0.1-0.2,0.2-0.2,0.1-0.2
					c-0.1,0.4-0.7-0.2-0.9,0.2c-0.2-0.1-0.2-0.4-0.3-0.4c-0.3,0.4-0.5-0.1-0.8,0.3c0.2,0.2,0.2,0.1,0.1,0.5l0.5-0.5l-0.2,0.6
					c0.2-0.1,0.3-0.4,0.5-0.4c-0.1,0.3-0.1,0.2,0.1,0.4c-0.4-0.3-0.4,0.5-0.8,0.3l-0.3-0.7c-0.6-0.1-0.6,0.7-1.3,0.9l0.2,0
					c0.1,0.3-0.3,0.2-0.4,0.4c-0.1-0.2-0.3-0.2-0.4-0.3c0.1,0.1-0.4,0.3-0.2,0.7l-0.4-0.1c-0.5,0.2-0.1,0.9-0.5,1.2
					C90.2,24,89.9,24,90,23.6c-0.1,0.1-0.3,0.2-0.2,0.3c-0.2,0-0.1,0.6-0.4,0.5c0,0.1,0.2,0.3,0,0.4c0,0-0.1-0.1-0.1-0.1
					c0.1,0.1-0.1,0.3,0.2,0.4c-0.9-0.1-0.9,1-1.7,1c-0.2,0.3-0.4,0.7-0.5,1c0-0.1-0.1-0.1,0-0.1c-0.4,0.3,0.4,0.6,0,0.9
					c-0.5,0,0-0.3-0.3-0.3c-0.7-0.3-0.2,0.6-0.8,0.7l0-0.1c-0.4,0.1,0,0.7-0.3,1.1c0,0-0.1,0-0.1-0.1c0.2,0.4,0.2,1,0.1,1.4
					c-0.3-0.2-0.1-0.2-0.4-0.3c0,0.2,0.5,0.1,0.5,0.5c-0.2,0.1-0.4,0.3-0.8,0.2c0-0.1,0.1-0.2,0.1-0.3c-0.5,0-0.1,0.4-0.2,0.6
					L85,31.4c-0.1,0.6,0.4,0.7,0.2,1.2l0.2,0c0.4,0.4-0.3,0.2,0,0.6l-0.5,0c0.1,0.2,0.3,0.8,0.4,1.2c-0.3-0.2-0.5-0.7-0.6-1
					c0,0.2-0.1,0.7,0.1,0.8c0-0.1-0.1-0.2-0.1-0.3c0.3,0.3,0.5,0.6,0.5,1c-0.9-0.1-0.3,1.1-1,1.4c0.2,0.4,0.2,0.7,0.1,1.1
					c0,0.4-0.1,0.8,0,1.3c0.7-0.4,0.1,0.3,0.8,0.1c0.1,0.2,0.1,0.3,0,0.3l-0.3,0.7c-0.2,0.2-0.2-0.1-0.4-0.1
					c0.1,0.5-0.3,0.3-0.4,0.6c0.2-0.1,0.4,0.1,0.4,0.3l0.2-0.5c0.5,0.5-0.4,0.7,0.1,1.2l-0.3-0.1c0.2,0.3,0.4,1.2,1.1,1.2
					c-0.1,0.1-0.2,0.2-0.3,0.1c0.2,0.8,1.4,1.2,1.4,1.9l-0.2,0c0.1,0.1,0.4,0,0.4,0.3c-0.1,0-0.2,0.1-0.2,0.1c0.1,0,0.5,0.1,0.5,0.3
					l-0.3,0c0.3,0.8,1.1,0.6,1.6,1c-0.4,0.4-0.1,0.9,0,1.2l-0.1,0c0.6,0.7,1.4,0.7,2.2,1c0,0.8,1.3,1.2,1.9,1.8
					c-0.1-0.1,0.2-0.4,0.4-0.4c0.1,0.2,0.6-0.1,0.4,0.3l-0.1,0c-0.1,0.5,0.3,0.6,0.6,0.7l0.3-0.6c0.2,0.6,0.7,0.7,1.2,0.7
					c0.5,0,0.9,0,1.1,0.5c0.2-0.1,0.5-0.1,0.7-0.2l-0.1,0.3c0.5,0.2,0.8,0.3,1.5,0.2l-0.2,0.2c0.4,0,0.6-1,0.9-1l0.1,0.5
					c0.6,0.1,1.3,0.4,2-0.1c0,0.1,0,0.2-0.1,0.3c0.3,0,1.2,0.2,1-0.5c0.1,0.5,0.7-0.1,1-0.3l0,0.3c0.2-0.5,0.2-0.6,0.5-0.8
					c0.1,0,0.1,0.2,0,0.2c0.4,0.1,0.2-0.4,0.6-0.3l-0.1,0.2c0.3-0.1,0.3-0.2,0.4-0.5c0.1-0.2,0.6-0.1,0.8,0.1c0-0.2,0.1-0.5,0.3-0.5
					c0.1,0.1,0,0.2,0,0.2c0.6,0,0.6-0.7,1.1-0.5c0.1,0.1,0.1,0.1,0.1,0.2c-0.4,0.2-0.7,0.3-0.7,0.3c0.1,0.3,0.5,0.2,0.4,0.7
					c0.2-0.3,0.4-1,0.8-1c0,0,0.1,0,0.1,0.1l0,0c0.1,0,0.1-0.1,0.2-0.1c0.1,0,0.2,0,0.3-0.1c0.2,0.2,0.4-0.1,0.6-0.2
					c-0.2-0.3,0-0.4-0.3-0.5c0,0,0,0.1-0.1,0.1c0,0,0,0,0,0.1l0,0c-0.1,0.1-0.2,0.2-0.4,0.2c0-0.2,0.1-0.4,0.3-0.4
					c0-0.2-0.1-0.5-0.1-0.6c0.5,0.3,1,0.3,1.2,0.4c0.3-0.5,1-0.9,0.8-1.6c0.1-0.2,0.3,0,0.4,0.1c0,0.1-0.1,0.2-0.1,0.3
					c0.1-0.3,0.6-0.7,0.4-1c0.4-0.1,0.1,0.5,0.5,0l0.1,0.2c0.6-0.1,0.7-0.7,0.8-1.2c0.1-0.5,0.1-1,0.8-1.2c-0.1,0-0.1,0-0.2,0
					c1.1-0.9,1-2.4,2.1-3.4c0.3-0.3,0-0.4-0.1-0.7l0.4,0l-0.3-0.5c-0.2-0.6,1.2-0.7,0.7-1.5l-0.3,0c0.1-0.2,0-0.8,0.2-0.7
					c0,0-0.2-0.1-0.1-0.2l0.2,0c-0.1-0.2-0.2-0.4-0.3-0.6c0.2-0.5,0.8,0.1,0.8-0.6c-0.1-0.3-0.5-0.7-0.7-0.6c0,0.1-0.1,0.3-0.3,0.3
					l-0.1-0.2c-0.6,0-1.1-0.2-1.6,0.3l0.3,0.4l-0.3,0.1l0-0.3c-0.3,0.2,0,0.3,0.1,0.4c-0.1,0-0.3,0.1-0.3,0.1l0.5,0.4
					c-0.2,0-0.4-0.2-0.6,0c0.2,0.2,0.5-0.1,0.6,0.2c-0.3,0.1-0.5,0.1-0.3,0.3c-0.1,0-0.2,0-0.3-0.1c0.1,0.2,0,0.5,0.3,0.6
					c-0.3,0.1,0,0.6-0.6,0.5c0.1,0.1,0.3,0.4,0.3,0.5c-0.6-0.4-0.2,0.6-0.8,0.3c0.5,0.4,0,0.8,0.2,1.3c0,0-0.1-0.1-0.1-0.1
					c-0.1,0.2-0.3,0.2-0.4,0.3c0.4,0.2,0.4,0.6,0.6,0.8c-0.5,0-0.4-0.4-0.9-0.5c0.4,0.2,0.2,0.6,0.5,0.6c-0.3,0.1-0.2,0.1-0.6,0
					c0.5,0.3,0,0.2,0.3,0.5c-0.4,0.1-0.5-0.2-0.5,0.1C111.2,42.5,111.2,42.1,111.2,42.1z M106.5,47.9L106.5,47.9
					c0.1,0,0.1-0.1,0.1-0.1C106.6,47.9,106.6,47.9,106.5,47.9z M105.9,48.2c0.1,0,0.2-0.1,0.3-0.1c0.1,0.1,0.1,0.2,0,0.2
					C106.2,48.3,106,48.3,105.9,48.2z M108.4,49.6c-0.1,0.1-0.1,0.1-0.2,0c0,0,0.1-0.1,0.2-0.1l0,0
					C108.3,49.5,108.3,49.6,108.4,49.6z"/>
				<path class="st2" d="M108.3,49.1C108.3,49.1,108.3,49.1,108.3,49.1C108.3,49.1,108.3,49.1,108.3,49.1L108.3,49.1L108.3,49.1z"/>
				<path class="st2" d="M109.1,23.5L109.1,23.5C109.1,23.5,109.1,23.5,109.1,23.5C109.1,23.5,109.1,23.5,109.1,23.5z"/>
				<polygon class="st2" points="97.3,48.5 97.2,48.6 97.3,48.5 				"/>
				<path class="st2" d="M111,26.9C111,26.9,111,27,111,26.9C111,27,111,27,111,26.9z"/>
				<path class="st2" d="M111.9,28.2l0,0.3C111.9,28.4,111.9,28.3,111.9,28.2z"/>
				<path class="st2" d="M112.4,29.4c0.1,0,0.1,0,0.1,0l0,0L112.4,29.4z"/>
				<path class="st2" d="M96.3,23C96.3,23,96.3,23,96.3,23C96.2,23.1,96.3,23.1,96.3,23z"/>
				<path class="st2" d="M101.8,21.7c-0.1,0.1-0.1,0.1-0.2,0.1C101.7,21.9,101.8,21.9,101.8,21.7z"/>
				<polygon class="st2" points="91.4,26.4 91.4,26.4 91.3,26.4 				"/>
				<path class="st2" d="M101.4,21.8c0.1,0.1,0.2,0.1,0.3,0C101.6,21.8,101.5,21.8,101.4,21.8z"/>
				<path class="st2" d="M113.7,34.3L113.7,34.3C113.7,34.4,113.7,34.4,113.7,34.3L113.7,34.3z"/>
				<path class="st2" d="M113.7,34.4L113.7,34.4C113.8,34.4,113.8,34.4,113.7,34.4z"/>
				<path class="st2" d="M113.9,34.5l-0.1-0.1C113.8,34.5,113.8,34.5,113.9,34.5z"/>
				<path class="st2" d="M113.6,32.7l-0.1,0C113.5,32.7,113.5,32.7,113.6,32.7z"/>
				<path class="st2" d="M113.4,32.3c0,0.1-0.2,0.3-0.1,0.5l0.1,0C113.3,32.7,113.7,32.3,113.4,32.3z"/>
				<path class="st2" d="M114.2,29.8c0,0.1,0,0.3,0.1,0.5c0.1-0.1,0.2-0.3,0.3-0.1C114.8,29.4,114.4,30.3,114.2,29.8z"/>
				<path class="st2" d="M113.8,28.4c0.2,0.2,0.2-0.1,0.2-0.1C113.9,28.2,113.8,28.2,113.8,28.4z"/>
				<path class="st2" d="M106.5,21.7l0.2-0.3C106.5,21.3,106.6,21.5,106.5,21.7z"/>
				<path class="st2" d="M104.2,22.5l0.1,0.2l0.2-0.2C104.4,22.5,104.3,22.5,104.2,22.5z"/>
				<polygon class="st2" points="103.7,20.1 103.8,20.1 103.5,20.1 				"/>
				<path class="st2" d="M87.9,25.6l0.3,0.2C88.3,25.7,87.9,25.4,87.9,25.6z"/>
				<path class="st2" d="M85,32.5c-0.2,0-0.4,0.2-0.2,0.4C84.9,32.7,85,32.6,85,32.5z"/>
				<polygon class="st2" points="94.6,50.9 94.4,51 94.7,51 				"/>
			</g>
		</g>
		<g>
			<path class="st3" d="M101,130.6c-0.1,0-0.3,0-0.3,0.1l0.4,0.1L101,130.6z"/>
			<path class="st3" d="M100.2,131.1c0.2,0.1,0.5,0.2,0.9,0.1c-0.4-0.1-0.2-0.1-0.7-0.2c0-0.1,0.1-0.1,0.3-0.1
				c-0.1,0,0.1-0.1-0.2-0.2c-0.3,0.1-0.3,0.2-0.1,0.3C100.4,131.1,100.3,131.1,100.2,131.1z"/>
			<path class="st3" d="M99.6,138.1L99.6,138.1C99.6,138.1,99.6,138.1,99.6,138.1z"/>
			<path class="st3" d="M99.4,142.5C99.4,142.5,99.3,142.5,99.4,142.5C99.3,142.5,99.3,142.5,99.4,142.5z"/>
			<path class="st3" d="M98.9,143.3C98.9,143.3,99,143.3,98.9,143.3C98.9,143.3,98.9,143.3,98.9,143.3z"/>
			<path class="st3" d="M99.6,138.1l-0.1,0.1C99.6,138.3,99.6,138.2,99.6,138.1z"/>
			<path class="st3" d="M101.2,132c0,0-0.1,0-0.1-0.1C101.1,132,101.1,132,101.2,132C101.2,132,101.2,132,101.2,132z"/>
			<path class="st3" d="M99.3,136.2L99.3,136.2c0,0-0.1-0.1-0.2-0.1L99.3,136.2z"/>
			<path class="st3" d="M99.2,134.7c0,0,0.3,0,0.5,0.1c-0.1,0-0.2,0-0.2-0.1C99.4,134.7,99.3,134.7,99.2,134.7z"/>
			<path class="st3" d="M99.8,132.4L99.8,132.4C99.8,132.3,99.8,132.3,99.8,132.4z"/>
			<path class="st3" d="M99.2,137.3c-0.1,0-0.1,0-0.1,0C99.1,137.3,99.2,137.3,99.2,137.3z"/>
			<path class="st3" d="M101.8,178.8C101.8,178.8,101.8,178.8,101.8,178.8C101.8,178.8,101.8,178.9,101.8,178.8z"/>
			<path class="st3" d="M100.1,180.6L100.1,180.6c-0.1,0-0.1,0-0.2,0L100.1,180.6z"/>
			<path class="st3" d="M98.5,144.7C98.5,144.7,98.5,144.7,98.5,144.7C98.5,144.6,98.5,144.6,98.5,144.7z"/>
			<path class="st3" d="M98.7,157.3c0.3-0.1,0.4,0.2,0.7,0C99.3,157.3,98.9,157.1,98.7,157.3z"/>
			<path class="st3" d="M101.2,132.1C101.2,132.1,101.2,132.1,101.2,132.1C101.2,132.1,101.2,132.1,101.2,132.1z"/>
			<path class="st3" d="M99.5,157.3C99.5,157.3,99.5,157.3,99.5,157.3L99.5,157.3C99.5,157.3,99.5,157.3,99.5,157.3z"/>
			<path class="st3" d="M98.7,147.8c0.1,0,0.1,0,0.2,0C98.8,147.8,98.8,147.8,98.7,147.8z"/>
			<path class="st3" d="M99.2,145.5L99.2,145.5C99.2,145.5,99.2,145.5,99.2,145.5z"/>
			<path class="st3" d="M99.2,149C99.2,149.1,99.1,149.1,99.2,149C99.2,149.1,99.2,149.1,99.2,149C99.2,149.1,99.1,149.1,99.2,149z"
				/>
			<path class="st3" d="M99.2,150.3C99.2,150.3,99.2,150.3,99.2,150.3C99.2,150.3,99.2,150.3,99.2,150.3L99.2,150.3z"/>
			<path class="st3" d="M101.6,175c-0.1,0-0.2,0-0.3,0.1C101.6,175,101.7,175.2,101.6,175z"/>
			<path class="st3" d="M101,132c0.1,0,0.1,0,0.1,0c0,0,0,0,0,0C101.1,132,101.1,132,101,132z"/>
			<path class="st3" d="M101.9,149.1l-0.1,0.2C101.9,149.2,101.9,149.2,101.9,149.1z"/>
			<path class="st3" d="M101.6,165.8L101.6,165.8C101.6,165.9,101.6,165.8,101.6,165.8z"/>
			<path class="st3" d="M101.9,149.9c-0.1,0-0.2,0.1-0.2,0.1c0,0,0,0,0.1,0L101.9,149.9z"/>
			<path class="st3" d="M101.3,175C101.3,175,101.3,175,101.3,175C101.3,175,101.3,175,101.3,175z"/>
			<path class="st3" d="M102.1,176.4c0-0.2-0.4-0.1-0.7-0.1c-0.1-0.2,0.3-0.1,0.6-0.2c-0.1-0.1-0.5-0.3-0.5-0.4c0.1,0,0.1,0,0.2,0
				c-0.4-0.2,0-0.5-0.5-0.6c0,0,0.1,0,0.1,0c-0.2,0-0.5,0-0.6,0c0-0.1-0.3-0.2,0-0.2c0,0.1,0.1,0.1,0.2,0.1l-0.1-0.1
				c0.4-0.1,0.1,0.1,0.5,0.1c-0.1-0.2-0.5-0.4-0.4-0.5c0.4,0,0.1,0.3,0.5,0.1l-0.2,0.2c0.7-0.2,0,0.1,0.7,0c0.1-0.3-0.2-0.3-0.1-0.6
				c-0.2-0.1-0.3,0-0.6,0c-0.4-0.4,1-0.3,0.5-0.6c-0.3-0.1-0.8-0.1-0.5-0.3l0.5,0.1c0-0.3-0.7-0.2-0.4-0.4c0.2,0,0.2,0.2,0.2,0.2
				c0.4-0.2-0.3-0.1-0.3-0.3l0.4,0c-0.1-0.3-0.4-0.6-0.4-0.9c0.1,0,0.3,0.1,0.4,0c-0.2-0.4,0.1-0.8,0.3-1.2l-0.4-0.1
				c0,0,0.2-0.1,0.2,0c0.1-0.1-0.2,0-0.4-0.1c0-0.1,0.2-0.1,0.3-0.1c-0.3-0.3-0.7-0.7-0.3-1l0.1,0.1c0.1-0.2-0.7-0.2-0.4-0.4l0.1,0
				c0.2-0.5-0.2-1,0.4-1.3c-0.5-0.1,0.2-0.5-0.5-0.5c0.4-0.3,0.5-0.2,0.7-0.6c0-0.1-0.5-0.2-0.5-0.3l0.4,0l-0.4-0.2l0.5-0.1
				l-0.1-0.1c0,0-0.2,0.1-0.3,0.1c-0.2-0.2,0.3-0.4,0.5-0.4l-0.3-0.4c0.2,0,0.2,0.1,0.3,0.1c-0.4-0.2,0.4,0,0-0.3
				c-0.1,0-0.2,0-0.3,0c0.2-0.1,0.2-0.3,0.1-0.5l0.3,0c0.1-0.3-0.1-0.7-0.1-1c-0.1,0.1-0.6,0.1-0.6,0l0.4,0c-0.2-0.1-0.2,0.1-0.5,0
				c0-0.1,0.5-0.1,0.6,0l-0.1-0.2c0.1,0,0.2,0,0.3,0c-0.2-0.1,0.4-0.3,0-0.4l0.1,0c0-0.4-0.1-0.5-0.2-0.8c-0.3,0-0.3-0.1-0.5-0.2
				c0.1-0.2,0.4-0.5,0.4-0.7c-0.2-0.2-0.3-0.1-0.5-0.1c0.3,0,0.3-0.3,0.5-0.1c-0.1-0.3-0.1-0.4-0.3-0.8c-0.1,0-0.2,0.1-0.3,0.1
				c-0.1-0.1,0.1-0.2,0.3-0.2l0,0c-0.5-0.4,0.9-1,0.3-1.4l0,0l-0.3-0.4c0.1-0.2,0.2,0.1,0.4,0c-0.5-0.4,0.1-0.6-0.3-0.9
				c0.9-0.3-0.1-0.9,0.5-1.2l-0.2,0c-0.2-0.1,0.1-0.1,0.2-0.2c-0.2,0-0.2,0.1-0.3,0c-0.3-0.7,0.3-1.5,0.5-2.3
				c0.1-0.3-1.1-0.2-0.6-0.5l0.4,0.1c-0.5-0.6,0-1.1-0.4-1.7c0.1,0,0.2,0,0.2,0.1c0.3-0.1,0-0.4-0.2-0.4c0-0.1,0.2,0,0.3-0.1
				c0.2-0.1-0.4-0.3-0.1-0.4c0,0,0.1,0,0.1,0.1c-0.1-0.1,0-0.4-0.3-0.3c0.2-0.2-0.2-0.4,0.1-0.6c-0.4-0.1,0.2-0.4-0.4-0.4
				c0.6,0,0.4-0.4,0.2-0.5c0.2,0,0.2-0.1,0.4-0.1c0-0.1-0.1-0.3-0.4-0.3c0.7-0.3-0.5-0.5,0.3-0.7c-0.3-0.4-0.5-0.8-0.6-1.2
				c0.6,0,0.1,0.4,0.6,0.4c-0.2-0.4-0.7-0.6-0.6-1c0.1-0.1,0.2,0.1,0.3,0.1c-0.2-0.4,0.1-0.7-0.3-1.1c0.1,0,0.1,0,0.2,0.1
				c0-0.1,0.1-0.2-0.2-0.1l0.1,0.1c-0.4,0.1-0.8-0.3-1-0.3c0.7,0.1,0.2-0.3,1.1-0.2c0,0-0.2-0.1-0.3-0.1c0-0.1,0.1-0.1,0.3,0
				c-0.1-0.2-0.4-0.2-0.4-0.4c0.1,0,0.2,0,0.3,0.1c-0.2-0.1-0.5-0.2-0.4-0.4c0.1,0,0.2,0,0.2,0c0-0.3-0.6-0.5-0.4-0.9
				c0.5,0.1,0.2-0.1,0.6-0.1l-0.1-0.2l-0.2,0.1c0-0.2-0.3-0.3-0.2-0.4l0.2,0.1l-0.1-0.3l-0.2,0.2c-0.2-0.2-0.6,0-0.5-0.2
				c0,0,0-0.2,0.3-0.2c0,0,0,0,0,0c-0.1-0.1-0.3-0.2-0.2-0.3c0.1,0,0.5,0,0.6,0c-0.4-0.1-0.1-0.4-0.5-0.5c0.1,0,0.3,0,0.4,0
				l-0.3-0.1c0.1-0.1,0.1-0.1,0.3-0.1c0.1-0.2-0.6,0.1-0.3-0.2c0,0,0.1,0,0.1,0.1c0.1-0.3-0.2-0.5,0-0.8c0.5-0.1,0.1,0.2,0.5,0.1
				c-0.1-0.4-0.6-0.7-0.4-1.1l-0.1,0.1c-0.7,0,0.3-0.3,0-0.4c0,0,0.4,0.1,0.3,0c0.1-0.2-0.2-0.5-0.4-0.8l0.2,0
				c0.1-0.1,0.1-0.4,0.2-0.5c-0.2,0-0.1-0.1-0.4-0.1c1-0.5-0.5-0.9,0.3-1.3c0,0,0.1,0.1,0.1,0.1l-0.2-0.3c-0.3,0-0.2,0-0.4,0.1
				c-0.2,0-0.3-0.1-0.3-0.2c0.2,0.2,0.5,0,0.6-0.1c-0.1,0-0.2,0-0.3,0c0.5-0.2-0.6,0-0.2-0.3l0.1,0c-0.1-0.1-0.3-0.2-0.2-0.3
				c0.3,0,0.2,0.1,0.4,0.1c0-0.1-0.6-0.3-0.3-0.4c0.1,0.1,0.1,0.1,0.2,0.2c0.4-0.1,0.3-0.2,0.3-0.3l0,0l0.2-0.2l-0.1,0.1
				c-0.9-0.2-0.2-0.4-0.7-0.6c0.5,0.2,0.3,0,0.7,0.1c0.1-0.1,0.2-0.2,0.3-0.1c-0.3-0.1,0.2-0.2-0.2-0.3c0.1,0,0-0.1,0.3-0.1
				c-0.1-0.1-0.2,0-0.4,0c-0.4-0.2,0.5-0.5-0.1-0.8c-0.2-0.3-0.6-0.3-0.8-0.6c0.2-0.1,0.4,0.1,0.4,0.1c0.2-0.1,0.1-0.2,0-0.4
				c0.1,0,0.2,0,0.3,0c0-0.1-0.4-0.1-0.3-0.2c0.1,0,0.3,0.1,0.5,0.1c-0.1-0.1-0.3-0.2-0.4-0.4c0.2,0,0.3,0.1,0.5,0.1
				c-0.1-0.1-0.2-0.4-0.5-0.4l-0.1,0.1c0-0.1,0.3,0,0.3,0c0.3,0.1-0.1,0.2-0.2,0.2l-0.1-0.1c-0.7,0.1,0.1,0.4,0.1,0.6l-0.5-0.1
				l0.4,0.2c-0.1,0-0.4,0.1-0.5,0c-0.3,0.1,0.2,0.1-0.1,0.2c0,0-0.1,0-0.1,0l0.2,0.1c-0.1,0-0.4,0-0.3-0.1c-0.3,0.2,0.4,0.4,0,0.5
				l0,0c0.2,0.3,0.4,0,0.8,0.3l-0.9,0.2l0.4,0c0,0,0,0.1-0.2,0.1c0.3,0.1,0.2,0,0.4,0.1c-0.3,0.2,0.2,0.4-0.4,0.5
				c0.3,0.1,0.2-0.2,0.4,0c-0.6,0,0.1,0.2-0.2,0.3c-0.3,0-0.2-0.2-0.5,0c0.6,0.1-0.1,0.3,0,0.4c0.4,0,0.2,0.3,0.3,0.5
				c-0.2,0-0.2,0.4-0.4,0.6l-0.1,0c0.5,0,0.4,0.2,0.5,0.4c-0.3,0-0.4,0-0.5-0.1l0,0.1c0.1,0,0.2,0.1,0.3,0.2l-0.3,0
				c0,0.2,0.4,0.4,0.2,0.6c0.3,0,0.9-0.2,1.1,0.1c-0.2,0-0.5,0-0.5,0c0,0,0.1,0.1,0.1,0.1l-0.3-0.1c-0.1,0.1,0.2,0.1,0.2,0.1
				c-0.2,0-0.2,0.1-0.4,0.1c0,0,0.1-0.1,0-0.1c0,0.1-0.2,0.2-0.4,0.3c0.1,0,0.3,0,0.4,0.1c0,0.2-0.3,0.1-0.4,0.2
				c0.2,0,0,0.2,0.4,0.2c0,0.1-0.2,0.1-0.3,0.1c0.2,0.1,0,0.4,0.4,0.3l0,0c0,0,0,0,0,0c0,0,0,0,0,0v0c0.4,0.3-0.2,0.6-0.1,0.9
				l-0.1,0c0.1,0.2,0.1,0.4,0.3,0.5c0,0.1-0.2,0.1-0.4,0.1c0.1,0.1,0.2,0.2,0,0.4c-0.2-0.1-0.2,0-0.2-0.1c-0.1,0.2-0.3,0.2,0,0.4
				c-0.3-0.1-0.4,0.1-0.3,0.2l0.2-0.1c0,0.1,0,0.2,0,0.3l-0.4,0c-0.5,0.4,0.8,0.7,0,1c0.3,0.1,0.2-0.2,0.5-0.1
				c-0.1,0.2-0.6,0.3-0.6,0.4c-0.2,0.2,0.6,0.2,0.4,0.5c0.1,0,0.5-0.1,0.7,0.1c-0.1,0.2-0.6,0.2-0.7,0.1c0,0,0-0.1,0.1-0.1
				c-0.1-0.1-0.1-0.1-0.3-0.1l0.1,0c-0.1,0.1-0.1,0.3-0.4,0.3c0.1,0.1,0.2,0.1,0.3,0c-0.2,0.2,0,0.3-0.1,0.6c0.1,0,0.3-0.1,0.3,0
				c-0.2,0.3,0.3,0.1,0.3,0.4c-0.2,0.1-0.5,0-0.3,0.2c-0.2,0.1-0.4,0-0.5,0c0.3,0.2-0.2,0.4-0.2,0.5l-0.1-0.1
				c0.1,0.1,0.1,0.1,0.1,0.2l0.3-0.1c-0.1,0.1-0.1,0.1-0.2,0.1c0.2,0.1,0.5-0.1,0.7,0.1c-0.1,0.1,0.2,0.3-0.2,0.3
				c0.1-0.3-0.4,0-0.5-0.2c0,0,0,0.1,0,0.2c0,0-0.1,0-0.1,0c-0.3,0.3,0.4,0.1,0.4,0.4c-0.2,0-0.4,0.1-0.4,0.1c0-0.1,0.4-0.1,0.5,0
				c-0.2,0.2,0.1,0.2,0.1,0.3l0.1-0.1c0.2,0,0.2,0.1,0.3,0.2c-0.2,0-0.1-0.1-0.2-0.1c0.4,0.1-0.4,0.3-0.1,0.5
				c-0.1,0.1-0.4,0-0.5,0.1c0.3,0.2-0.3,0.2-0.1,0.4c0.3-0.1,0.2-0.1,0.5,0.1l-0.2-0.4l0.4,0.2c0-0.1-0.2-0.2-0.1-0.3
				c0.2,0.1,0.2,0.1,0.4,0c-0.4,0.1,0.3,0.3,0,0.5l-0.7,0c-0.3,0.3,0.4,0.5,0.2,0.8l0.1-0.1c0.3,0,0,0.2,0.2,0.3
				c-0.2,0-0.3,0.1-0.5,0.1c0.2,0,0,0.2,0.5,0.3l-0.3,0.1c-0.1,0.3,0.7,0.3,0.6,0.6c-0.3-0.1-0.4,0-0.6-0.1c0,0.1,0,0.2,0.1,0.2
				c-0.2,0.1,0.3,0.2,0.1,0.3c0.1,0,0.4,0,0.3,0.1c0,0-0.1,0-0.1,0c0.1,0,0.2,0.2,0.4,0.1c-0.8,0.3,0.1,0.7-0.6,1
				c0.1,0.2,0.2,0.4,0.2,0.6c-0.1,0-0.1,0-0.1,0c-0.2,0.2,0.7,0.1,0.4,0.4c-0.4,0.1-0.2-0.1-0.4-0.1c-0.8,0,0.1,0.3-0.4,0.5l0,0
				c-0.3,0.1,0.3,0.3,0.2,0.6c0,0-0.1,0-0.1,0c0.4,0.2,0.5,0.4,0.7,0.7c-0.3-0.1-0.2-0.1-0.5-0.1c0,0.1,0.5,0,0.6,0.2
				c-0.2,0.1-0.3,0.2-0.7,0.2l0-0.2c-0.4,0.1,0,0.2-0.1,0.3l-0.2,0c0.1,0.3,0.5,0.3,0.5,0.6l0.1,0c0.5,0.2-0.3,0.1,0.1,0.3l-0.5,0
				c0.1,0.1,0.5,0.4,0.6,0.6c-0.4-0.1-0.5-0.3-0.8-0.5c0,0.1,0,0.4,0.3,0.4c0,0-0.2-0.1-0.1-0.1c0.4,0.1,0.6,0.3,0.6,0.5
				c-0.9,0-0.2,0.6-1,0.7c0.3,0.4-0.1,0.7-0.1,1.2c0.7-0.2,0,0.1,0.8,0.1c0,0.1,0,0.1,0,0.2l-0.4,0.3c-0.2,0.1-0.2-0.1-0.3-0.1
				c-0.1,0.2-0.3,0.1-0.5,0.2c0.3,0,0.4,0.1,0.3,0.2l0.3-0.2c0.4,0.3-0.6,0.3-0.2,0.6l-0.2-0.1c0.1,0.2,0,0.6,0.6,0.8
				c-0.1,0-0.3,0.1-0.3,0c-0.1,0.4,0.6,0.9,0.3,1.2l-0.2,0c0.1,0.1,0.3,0.1,0.2,0.2c-0.1,0-0.2,0-0.2,0c0.1,0,0.3,0.2,0.2,0.3
				l-0.2-0.1c-0.2,0.4,0.5,0.6,0.6,0.9c-0.5,0-0.7,0.3-0.8,0.4l-0.1,0c-0.1,0.4,0.4,0.7,0.7,1.2c-0.6,0.3-0.2,0.9-0.6,1.3
				c0.1-0.1,0.4,0,0.5,0.1c-0.1,0.1,0.4,0.3-0.1,0.2l0,0c-0.5,0.1-0.4,0.3-0.4,0.4l0.6,0c-0.9,0.4,0.3,1-0.5,1.3
				c0.2,0.1,0.2,0.2,0.3,0.3l-0.3,0c-0.1,0.3-0.1,0.4,0,0.7l-0.2-0.1c0,0.2,1,0.2,1,0.4l-0.5,0.1c0,0.3-0.4,0.7,0,1
				c-0.1,0-0.2,0-0.2-0.1c0,0.2-0.4,0.6,0.4,0.5c-0.5,0,0,0.3,0.2,0.5l-0.3,0c0.4,0.1,0.6,0.2,0.7,0.4c0,0-0.3,0-0.2,0
				c-0.2,0.2,0.3,0.1,0.1,0.3l-0.2-0.1c0,0.2,0.1,0.2,0.3,0.2c0.1,0.1-0.1,0.3-0.4,0.3c0.2,0,0.4,0.1,0.4,0.2c-0.1,0-0.2,0-0.2,0
				c-0.2,0.3,0.4,0.4,0.1,0.6c-0.1,0-0.2,0-0.2,0c0-0.2,0-0.4,0.1-0.4c-0.3,0-0.4,0.2-0.8,0c0.2,0.1,0.8,0.4,0.6,0.6
				c0,0-0.1,0-0.1,0l0,0c0,0,0,0.1,0.1,0.1c-0.1,0.1-0.1,0.1-0.1,0.1c-0.3,0-0.1,0.2-0.2,0.3c0.3,0,0.3,0.1,0.6,0c0,0,0,0-0.1-0.1
				c0,0,0,0,0,0c0,0,0,0,0,0c0-0.1,0-0.1,0-0.2c0.2,0.1,0.3,0.1,0.1,0.2c0.2,0,0.5,0.1,0.6,0.1c-0.5,0.1-0.7,0.4-1,0.4
				c0.2,0.3,0.1,0.6,0.8,0.8c0.1,0.1-0.2,0.1-0.3,0.1c-0.1,0-0.1-0.1-0.1-0.1c0.2,0.2,0.1,0.5,0.5,0.5c-0.2,0.2-0.4-0.1-0.3,0.2
				l-0.1,0c-0.7,0.5,1.2,0.9,0.2,1.5c0.1,0,0.1-0.1,0.2-0.1c-0.4,0.7,0.4,1.4-0.3,2.1c-0.1,0.2,0.2,0.2,0.4,0.3l-0.4,0l0.4,0.2
				c0.3,0.3-0.9,0.5-0.3,0.8l0.2,0c0,0.1,0.1,0.4-0.1,0.4c0,0,0.3,0,0.1,0.1l-0.2,0l0.3,0.3c-0.1,0.2-0.8,0-0.8,0.3
				c0.1,0.1,0.6,0.4,0.7,0.3c0-0.1,0.1-0.1,0.3-0.1l0.1,0.1c0.6,0,1.2,0.1,1.6-0.2l-0.3-0.2l0.3-0.1l0,0.2c0.3-0.1,0-0.2-0.1-0.2
				c0.1,0,0.3,0,0.3-0.1l-0.5-0.2c0.2,0,0.4,0.1,0.6,0c-0.3-0.1-0.5,0.1-0.7-0.1c0.3-0.1,0.5-0.1,0.2-0.2c0.1,0,0.2,0,0.3,0.1
				c-0.2-0.1-0.1-0.3-0.4-0.3c0.3-0.1-0.1-0.3,0.5-0.3c-0.1,0-0.4-0.2-0.4-0.3c0.6,0.2,0-0.4,0.7-0.3c-0.6-0.1-0.3-0.5-0.6-0.7
				c0,0,0.1,0,0.1,0.1c0-0.1,0.2-0.2,0.3-0.2c-0.5,0-0.6-0.2-0.9-0.3c0.5-0.2,0.6,0.1,1,0c-0.4,0-0.4-0.3-0.7-0.2
				c0.3-0.1,0.1-0.1,0.5-0.2c-0.6,0-0.1-0.1-0.5-0.2c0.3-0.2,0.6,0,0.4-0.2C101.9,176.2,102.1,176.4,102.1,176.4z M101.1,171.9
				C101.1,171.9,101.1,171.9,101.1,171.9C101.1,171.9,101.1,171.9,101.1,171.9C101.1,171.9,101.1,171.9,101.1,171.9z M101.1,171.5
				c0,0,0,0.1,0,0.2c-0.1,0-0.2,0-0.2,0C100.9,171.6,101,171.5,101.1,171.5z M98.7,172.3C98.6,172.2,98.7,172.2,98.7,172.3
				c0.1-0.1,0.1,0,0.1,0c0,0,0,0,0,0C98.8,172.3,98.7,172.3,98.7,172.3z"/>
			<path class="st3" d="M99.1,172.4C99.2,172.4,99.2,172.4,99.1,172.4c0.1,0,0.1,0,0.1,0C99.2,172.4,99.2,172.4,99.1,172.4
				C99.1,172.4,99.1,172.4,99.1,172.4z"/>
			<path class="st3" d="M99.7,138.1L99.7,138.1C99.7,138.1,99.7,138.1,99.7,138.1C99.7,138.1,99.7,138.1,99.7,138.1z"/>
			<polygon class="st3" points="101.7,166.3 101.7,166.3 101.7,166.3 			"/>
			<path class="st3" d="M100.8,136C100.9,136,100.9,136,100.8,136C100.9,136,100.9,136,100.8,136z"/>
			<path class="st3" d="M100.9,135.1l0.1-0.1C101,135,100.9,135.1,100.9,135.1z"/>
			<path class="st3" d="M101.1,134.4c-0.1,0-0.1,0-0.1,0c0,0,0,0,0,0L101.1,134.4z"/>
			<path class="st3" d="M101.5,145.4C101.5,145.4,101.5,145.4,101.5,145.4C101.6,145.5,101.6,145.5,101.5,145.4z"/>
			<path class="st3" d="M100.7,142.1c0.1,0,0.1,0.1,0.2,0.1C100.9,142.2,100.9,142.1,100.7,142.1z"/>
			<path class="st3" d="M101.9,149.1C101.9,149.1,101.9,149.1,101.9,149.1C101.9,149.1,101.9,149.1,101.9,149.1L101.9,149.1z"/>
			<path class="st3" d="M100.8,142.4c0.1-0.1,0.1-0.1,0-0.2C100.8,142.3,100.8,142.4,100.8,142.4z"/>
			<path class="st3" d="M101.2,131.4L101.2,131.4C101.2,131.4,101.2,131.4,101.2,131.4L101.2,131.4z"/>
			<path class="st3" d="M101.2,131.4L101.2,131.4C101.2,131.4,101.2,131.4,101.2,131.4z"/>
			<path class="st3" d="M101.1,131.3L101.1,131.3C101.2,131.3,101.2,131.3,101.1,131.3z"/>
			<path class="st3" d="M101.1,132.3l0.1,0C101.2,132.3,101.1,132.3,101.1,132.3z"/>
			<path class="st3" d="M101.1,132.6c0-0.1,0.3-0.2,0.2-0.3l-0.1,0C101.4,132.4,100.9,132.5,101.1,132.6z"/>
			<path class="st3" d="M99.6,133.8l0.1-0.2c-0.1,0-0.3,0.1-0.3,0C98.9,133.8,99.6,133.5,99.6,133.8z"/>
			<path class="st3" d="M99.4,134.5c-0.1-0.1-0.2,0-0.3,0C99.2,134.6,99.3,134.6,99.4,134.5z"/>
			<path class="st3" d="M99.4,139.7l-0.3,0C99.1,139.8,99.2,139.7,99.4,139.7z"/>
			<polygon class="st3" points="101,140.7 101.2,140.6 100.9,140.6 			"/>
			<polygon class="st3" points="98.8,141.3 98.7,141.3 98.8,141.4 			"/>
			<path class="st3" d="M98.9,150.1l0.4,0C99.2,150,98.8,150,98.9,150.1z"/>
			<path class="st3" d="M99.3,153.9c-0.2,0-0.3,0.1-0.1,0.2C99.2,154,99.3,153.9,99.3,153.9z"/>
			<polygon class="st3" points="98.6,165.3 98.5,165.2 98.6,165.3 			"/>
		</g>
		<g class="st0">
			<path class="st1" d="M135.5,136c-36.6,2.5-35.4,35.4-35.4,35.4C136.8,168.9,135.5,136,135.5,136z"/>
			<g>
				<path class="st2" d="M136.4,136c-0.1-0.1-0.3,0-0.3,0.2l0.4,0.1L136.4,136z"/>
				<path class="st2" d="M135.6,137.1c0.2,0.2,0.5,0.4,0.9,0.3c-0.4-0.2-0.2-0.3-0.7-0.5c0-0.2,0.1-0.3,0.3-0.3
					c-0.1-0.1,0.1-0.3-0.2-0.3c-0.3,0.2-0.3,0.5-0.1,0.8C135.8,137.2,135.7,137.1,135.6,137.1z"/>
				<path class="st2" d="M131.3,152.1L131.3,152.1C131.3,152,131.3,152.1,131.3,152.1z"/>
				<path class="st2" d="M125.7,159.8c0-0.1,0-0.1,0-0.1C125.7,159.8,125.7,159.8,125.7,159.8z"/>
				<path class="st2" d="M124.2,160.7C124.3,160.6,124.3,160.6,124.2,160.7C124.3,160.6,124.2,160.6,124.2,160.7z"/>
				<path class="st2" d="M131.3,152.1l-0.2,0.2C131.2,152.3,131.2,152.2,131.3,152.1z"/>
				<path class="st2" d="M136.4,139.4c0-0.1,0-0.1-0.1-0.2C136.4,139.3,136.4,139.3,136.4,139.4L136.4,139.4z"/>
				<path class="st2" d="M132.6,148.1L132.6,148.1c0-0.1-0.1-0.1-0.1-0.2L132.6,148.1z"/>
				<path class="st2" d="M133.4,144.9c0,0.1,0.3,0.2,0.4,0.2c-0.1-0.1-0.2-0.1-0.2-0.2C133.6,145,133.5,144.9,133.4,144.9z"/>
				<path class="st2" d="M135,140L135,140C134.9,139.9,134.9,139.9,135,140z"/>
				<path class="st2" d="M131.7,150.2c0,0-0.1,0-0.1,0C131.6,150.2,131.6,150.2,131.7,150.2z"/>
				<path class="st2" d="M131.5,134.8C131.5,134.8,131.5,134.9,131.5,134.8C131.5,134.8,131.5,134.8,131.5,134.8z"/>
				<polygon class="st2" points="135.5,136.1 135.5,136.1 135.5,136.3 				"/>
				<path class="st2" d="M121.8,162.2C121.8,162.2,121.8,162.2,121.8,162.2C121.8,162.2,121.8,162.2,121.8,162.2z"/>
				<path class="st2" d="M101.8,167.8c-0.3,0.3-0.3-0.5-0.7-0.1C101.2,167.6,101.6,168.1,101.8,167.8z"/>
				<path class="st2" d="M136.4,139.5c0,0,0,0.1,0,0.1C136.4,139.5,136.4,139.5,136.4,139.5z"/>
				<path class="st2" d="M101.1,167.7L101.1,167.7L101.1,167.7C101,167.7,101.1,167.7,101.1,167.7z"/>
				<path class="st2" d="M116.2,165.9c0,0,0.1,0.1,0.1,0.1C116.3,166,116.3,166,116.2,165.9z"/>
				<path class="st2" d="M120.8,163.8l-0.1,0C120.7,163.9,120.8,163.8,120.8,163.8z"/>
				<path class="st2" d="M114,167.4c-0.1,0-0.1,0-0.2,0c0,0,0,0,0,0C113.8,167.5,113.9,167.4,114,167.4z"/>
				<path class="st2" d="M111.4,168.4C111.4,168.4,111.4,168.4,111.4,168.4l0.1,0L111.4,168.4z"/>
				<path class="st2" d="M122.9,137c0.1,0.1,0.2,0.2,0.2,0.2C123,137,123.4,136.8,122.9,137z"/>
				<path class="st2" d="M136.2,139.4c0.1,0,0.1,0.1,0.1,0.1l0-0.1C136.3,139.4,136.3,139.3,136.2,139.4z"/>
				<path class="st2" d="M114.8,170l-0.5,0.1C114.5,170.1,114.7,170.1,114.8,170z"/>
				<path class="st2" d="M105.9,149.1l0-0.1C105.9,149,105.9,149.1,105.9,149.1z"/>
				<path class="st2" d="M113.1,170.7c-0.1-0.1-0.2-0.1-0.3-0.1c0,0,0,0.1,0,0.1L113.1,170.7z"/>
				<path class="st2" d="M123.1,137.2L123.1,137.2L123.1,137.2z"/>
				<path class="st2" d="M125.8,135.6c-0.4,0.1-0.1,0.5-0.1,0.8c-0.5,0.3-0.3-0.3-0.6-0.4c-0.3,0.2-0.4,0.7-0.7,0.7
					c0-0.1-0.1-0.1-0.1-0.2c-0.2,0.4-1,0.3-1.2,0.9c0,0-0.1-0.1-0.1-0.1c0.1,0.2,0.2,0.4,0.3,0.6c-0.2,0.1-0.2,0.4-0.4,0.1
					c0.1,0,0.1-0.1,0.1-0.3l-0.2,0.2c-0.3-0.3,0.2-0.2,0.1-0.5c-0.3,0.3-0.7,0.8-1,0.8c-0.2-0.4,0.6-0.4,0.1-0.6l0.5,0
					c-0.6-0.5,0.3-0.1-0.3-0.6c-0.6,0.1-0.6,0.4-1.2,0.6c-0.1,0.3,0.2,0.3,0.1,0.6c-0.7,0.7-1.1-0.7-1.5,0.1c0,0.3,0.1,0.8-0.4,0.8
					l0-0.5c-0.6,0.2,0,0.8-0.8,0.7c0-0.2,0.4-0.3,0.3-0.4c-0.5-0.2-0.2,0.4-0.4,0.5l-0.2-0.3c-0.6,0.4-1.1,1-1.7,1.4
					c0-0.1,0-0.3-0.2-0.3c-0.7,0.6-1.7,1-2.6,1.2l-0.1,0.5c-0.1,0-0.2,0-0.2-0.2c-0.4,0.1,0.1,0.2,0.1,0.4c-0.1,0.1-0.3,0-0.3-0.2
					c-0.3,0.6-1,1.5-1.7,1.7l0-0.2c-0.5,0.2,0,0.9-0.5,1l0-0.1c-0.9,0.6-1.5,1.7-2.5,1.9c0.3,0.5-0.9,0.6-0.4,1.2
					c-0.7,0.2-0.7,0-1.4,0.5c-0.2,0.2,0.1,0.6,0,0.8l-0.3-0.2l0.1,0.6l-0.5-0.1l-0.1,0.3c0.1-0.1,0.3-0.1,0.4,0
					c-0.1,0.4-0.8,0.7-1,0.6l-0.3,1c-0.1-0.1-0.1-0.3-0.1-0.4c0,0.7-0.4-0.1-0.4,0.5c0.1,0,0.2,0.2,0.2,0.2c-0.3,0.1-0.6,0.6-0.7,1
					l-0.2-0.2c-0.5,0.6-0.7,1.4-1.1,2.2c0.2-0.2,0.6,0.1,0.5,0.3l-0.4-0.1c0.1,0.2,0.3-0.2,0.4,0.3c-0.2,0.3-0.5,0-0.5-0.2l0,0.4
					c-0.1,0-0.1-0.1-0.3-0.2c0.2,0.2-0.6,0.4-0.3,0.8l-0.1,0c-0.4,0.8-0.4,1.2-0.6,1.8c0.3,0.1,0.1,0.4,0.3,0.6
					c-0.3,0.4-0.7,0.8-0.9,1.4c0,0.5,0.2,0.2,0.4,0.5c-0.3-0.1-0.5,0.5-0.6,0.1c-0.2,0.7-0.2,0.9-0.2,1.8c0.1-0.1,0.2-0.2,0.3-0.1
					c0,0.2-0.2,0.3-0.4,0.3l0-0.1c0.2,1.1-1.4,2.1-1,3l0-0.1c0.1,0.3,0.1,0.6,0.2,0.9c-0.1,0.4-0.2-0.3-0.4,0c0.4,1-0.3,1.4,0,2.2
					c-0.5,0.2-0.5,0.8-0.5,1.3l0,0.2l0,0.3c0,0.2,0,0.5,0,0.7c0,0.5-0.1,0.9-0.2,1.3l0.2-0.2c0.2,0.2-0.1,0.5-0.2,0.8
					c0.2-0.2,0.2-0.5,0.3-0.4c0,0.3,0.1,0.6,0.1,1l0,0.3l0,0.1c0,0,0.1,0,0.1,0l0.5,0c0.7,0,1.4,0,2.1,0l1.1,0l0.7,0.1
					c0.4,0,0.9,0,1.3,0c0.6,0,0.2-1.2,1.1-0.8l-0.2,0.4c1.2-0.6,2.6-0.5,3.7-1.1c-0.1,0.1,0,0.2-0.1,0.3c0.3,0.2,1-0.2,0.9-0.4
					c0.2,0,0.1,0.2,0.2,0.3c0.3,0.1,0.5-0.6,0.8-0.3c0,0,0,0.1-0.1,0.1c0.1-0.2,0.8-0.2,0.5-0.5c0.5,0,0.8-0.4,1.2-0.3
					c0.1-0.4,0.8-0.1,0.7-0.6c0.2,0.5,0.9,0.1,1.1-0.2c0,0.2,0.3,0.1,0.3,0.3c0.3-0.1,0.6-0.3,0.4-0.6c0.8,0.4,0.9-1,1.6-0.4
					c0.8-0.7,1.5-1.3,2.3-1.9c0.2,0.5-0.9,0.5-0.6,1c0.7-0.6,0.9-1.2,1.7-1.6c0.2-0.1,0,0.3,0,0.4c0.6-0.7,1.5-0.8,1.9-1.6
					c0,0,0,0.1,0,0.2c0.1-0.1,0.3-0.1,0.2-0.3l-0.1,0.1c-0.4-0.2,0-1-0.1-1.1c0.2,0.7,0.7-0.3,0.9,0.7c0.1-0.1,0.1-0.3,0-0.4
					c0.1,0,0.2,0,0.2,0.2c0.4-0.4,0-0.5,0.4-0.8c0.1,0.1,0,0.2,0.1,0.3c0-0.3,0.1-0.7,0.5-0.9c0,0.1,0.1,0.1,0,0.2
					c0.5-0.5,0.5-1.2,1.2-1.6c0.2,0.5,0.3-0.1,0.7,0.2l0.2-0.4l-0.3,0c0.3-0.3,0.3-0.7,0.6-0.8l-0.1,0.3c0.1-0.2,0.3-0.4,0.4-0.6
					l-0.4,0.2c0.1-0.4-0.4-0.4,0-0.6c0,0.1,0.2-0.3,0.6-0.2v0c0-0.2,0-0.5,0.3-0.6c0.2,0,0.3,0.4,0.5,0.4c-0.2-0.4,0.5-0.7,0.3-1.2
					c0,0.1,0.2,0.3,0.3,0.3l-0.2-0.3c0.2-0.1,0.2-0.1,0.4,0.1c0.4-0.4-0.6-0.2,0-0.5c0,0.1,0,0.1,0,0.2c0.5-0.4,0.5-1.1,1-1.4
					c0.5,0.1-0.2,0.5,0.2,0.5c0.4-0.7,0.5-1.7,1-2.3l-0.1,0.1c-0.5-0.4,0.6-0.3,0.5-0.8c0,0.1,0.3,0.3,0.2,0.2
					c0.3-0.4,0.4-1,0.6-1.8l0.1,0.2c0.3-0.2,0.4-0.7,0.6-1c-0.1-0.2,0-0.3-0.3-0.3c1.3-0.6,0.3-2,1.4-2.6c0,0.1,0,0.3,0.1,0.2
					l0.1-0.8c-0.3,0-0.2,0-0.5,0.1c-0.1-0.1-0.2-0.4-0.1-0.6c0.1,0.4,0.4,0.1,0.6,0c-0.1,0-0.2-0.1-0.3-0.1c0.6-0.2-0.5-0.2,0-0.7
					l0.1,0.1c0-0.2-0.1-0.5,0-0.7c0.3,0,0.1,0.3,0.3,0.3c0.1-0.3-0.4-0.8,0-1c0.1,0.2,0,0.3,0.1,0.5c0.5-0.2,0.4-0.3,0.5-0.5l0,0
					l0.3-0.5l-0.1,0.1c-0.7-0.6,0.1-0.8-0.4-1.5c0.4,0.6,0.3,0.2,0.6,0.3c0.1-0.1,0.3-0.3,0.4-0.2c-0.2-0.3,0.3-0.4,0-0.8
					c0.1,0,0.1-0.3,0.3-0.1c0-0.3-0.2,0-0.4,0c-0.3-0.6,0.7-1.1,0.3-1.9c-0.1-0.7-0.5-0.8-0.6-1.4c0.2-0.2,0.4,0.2,0.4,0.2
					c0.2-0.3,0.2-0.5,0.1-0.8c0.1,0.1,0.2,0,0.3-0.1c0-0.2-0.4-0.2-0.2-0.5c0.1,0.1,0.3,0.2,0.5,0.3c-0.1-0.3-0.3-0.6-0.4-0.9
					c0.2-0.1,0.3,0.2,0.4,0.3c-0.1-0.3-0.1-0.9-0.5-1l-0.1,0.2c0-0.1,0.3,0,0.3,0c0.2,0.3-0.1,0.4-0.3,0.4l-0.1-0.2
					c-0.7,0.2,0.1,0.8,0,1.3l-0.5-0.2l0.4,0.5c-0.1,0.1-0.4,0.1-0.5-0.1c-0.3,0.3,0.2,0.3-0.2,0.5c0,0-0.1,0-0.1,0l0.1,0.3
					c-0.1-0.1-0.4,0-0.3-0.2c-0.4,0.5,0.3,0.9-0.1,1l0,0c0.1,0.7,0.4,0.1,0.7,0.7l-1,0.2l0.4,0.1c0,0.1-0.1,0.2-0.2,0.2
					c0.2,0.3,0.2,0,0.4,0.2c-0.4,0.3,0,1-0.6,1c0.3,0.2,0.3-0.3,0.4,0.1c-0.6,0,0,0.5-0.3,0.7c-0.3-0.2-0.1-0.4-0.4-0.2
					c0.5,0.3-0.3,0.6-0.2,0.9c0.4,0.1,0,0.6,0.1,1.1c-0.1-0.1-0.5,0.8-0.8,1.1l-0.1,0c0.4,0.2,0.2,0.6,0.2,0.9
					c-0.3-0.1-0.3-0.2-0.4-0.4l-0.1,0.3c0.1,0.1,0.2,0.2,0.1,0.4l-0.3-0.2c-0.1,0.4,0.1,0.9-0.3,1.3c0.3,0.1,1-0.1,1,0.5
					c-0.2,0-0.4-0.1-0.5-0.3c0,0.1,0.1,0.2,0,0.3l-0.2-0.3c-0.2,0.2,0.2,0.2,0.1,0.4c-0.2-0.1-0.2,0.1-0.4,0c0-0.1,0.2-0.1,0.1-0.2
					c-0.1,0.2-0.4,0.4-0.6,0.4c0.1,0,0.3,0.1,0.3,0.3c-0.1,0.4-0.3,0-0.5,0.2c0.1,0.2-0.1,0.3,0.2,0.5c-0.1,0.1-0.2,0.1-0.3,0.1
					c0.1,0.3-0.4,0.9,0.1,0.8l0,0c0,0,0,0,0,0l0,0l0,0c0,0.8-0.8,1.2-1,1.8l-0.1-0.1c-0.1,0.4-0.4,0.8-0.3,1.2
					c-0.1,0.1-0.3,0.1-0.4,0c-0.1,0.3,0,0.4-0.4,0.7c0-0.4-0.2,0,0-0.4c-0.3,0.3-0.5,0.2-0.5,0.8c-0.2-0.3-0.5,0-0.5,0.2l0.3-0.1
					c-0.1,0.2-0.2,0.3-0.3,0.5l-0.3-0.3c-0.8,0.4-0.2,1.7-1.2,1.6c0.1,0.3,0.4-0.2,0.6,0.1c-0.3,0.3-1,0.2-1,0.3
					c-0.5,0.2,0.1,0.7-0.3,1c0.2,0,0.5,0.3,0.3,0.7c-0.3,0.2-0.8-0.1-0.7-0.3c0.1-0.1,0.1-0.1,0.1,0c0-0.1,0.1-0.3-0.1-0.3l0.1,0.1
					c-0.2,0-0.6,0.4-0.7,0.2c-0.1,0.3,0.1,0.2,0.3,0.2c-0.5,0.2-0.5,0.5-1,0.7c0.1,0,0.3,0.1,0.2,0.1c-0.6,0.4,0,0.4-0.3,0.8
					c-0.4,0-0.3-0.5-0.5,0c-0.3,0.1-0.3-0.2-0.3-0.4c-0.1,0.5-0.7,0.4-1,0.5l0.1-0.2c-0.1,0.1-0.1,0.2-0.2,0.3l0.3,0.1
					c-0.1,0-0.2,0.1-0.3,0c0,0.2,0.4,0.3,0.3,0.7c-0.2,0-0.3,0.5-0.6,0.2c0.5-0.2-0.3-0.3,0.1-0.6c0,0.1-0.1,0.2-0.3,0.2
					c0,0,0-0.1,0-0.1c-0.6,0,0.1,0.5-0.4,0.8c-0.1-0.2-0.4-0.3-0.4-0.2c0.2-0.1,0.3,0.2,0.2,0.5c-0.4,0.1-0.2,0.3-0.4,0.4l0.2-0.1
					c0.1,0.2-0.1,0.3-0.3,0.5c-0.1-0.1,0.1-0.2,0-0.2c0,0.5-0.8,0-1,0.4c-0.2,0-0.2-0.3-0.4-0.3c-0.2,0.5-0.6,0-0.8,0.4
					c0.3,0.2,0.2,0.1,0.1,0.5l0.5-0.6l-0.2,0.6c0.2-0.1,0.3-0.4,0.5-0.5c-0.1,0.3-0.1,0.3,0.1,0.4c-0.5-0.2-0.4,0.6-0.9,0.5
					l-0.4-0.6c-0.6,0-0.7,0.8-1.4,1l0.3,0c0,0.3-0.4,0.2-0.5,0.5c-0.1-0.2-0.3-0.2-0.4-0.3c0.1,0.2-0.5,0.2-0.3,0.7l-0.4-0.2
					c-0.6,0.1-0.3,0.9-0.9,1.1c0.1-0.3-0.2-0.4,0-0.7c-0.2,0.1-0.3,0.1-0.3,0.3c-0.2-0.1-0.4,0.5-0.6,0.3c0,0.1,0,0.4-0.2,0.4
					c0,0,0-0.1,0-0.1c0,0.1-0.3,0.3,0,0.5c-0.8-0.5-1.5,0.6-2.2,0.1c-0.4,0.2-0.8,0.4-1.2,0.5c0-0.1,0-0.1,0-0.1
					c-0.5-0.1-0.1,0.8-0.7,0.7c-0.4-0.3,0.2-0.3,0-0.4c-0.3-0.7-0.7,0.3-1.1-0.1l0.1-0.1c-0.4-0.2-0.6,0.5-1.1,0.5c0,0,0-0.1,0-0.1
					c-0.2,0.5-0.8,0.8-1.3,0.9c0.1-0.3,0.2-0.2,0-0.5c-0.2,0.1,0.2,0.5-0.3,0.6c-0.2-0.1-0.5-0.2-0.6-0.6l0.4-0.1
					c-0.3-0.4-0.5,0.1-0.7,0.1l0-0.2c-0.6,0.2-0.5,0.6-1.2,0.7l0.1,0.1c-0.3,0.5-0.3-0.2-0.6,0.2l-0.2-0.5c-0.1,0.1-0.3,0.2-0.5,0.3
					c-0.2,0.1-0.4,0.3-0.6,0.3c0.1-0.2,0.3-0.3,0.4-0.5c0.1-0.1,0.4-0.3,0.5-0.4c-0.1,0-0.3,0-0.5,0.1c-0.1,0-0.2,0.1-0.2,0.3
					c0.1-0.1,0.1-0.2,0.2-0.1c-0.1,0.4-0.5,0.6-0.9,0.7c0.3-0.5,0.1-0.5,0-0.6c-0.2,0.1-0.1-0.3,0.2-0.6c-0.2,0-0.1-0.2,0-0.4
					c0.1,0,0.2-0.6,0.2-1c-0.8,0.3,0-0.3-0.7-0.3c0-0.2,0-0.3,0-0.3l0.5-0.6c0.2-0.1,0.1,0.2,0.3,0.2c0.1-0.5,0.3-0.2,0.6-0.4
					c-0.3,0-0.4-0.2-0.2-0.5l-0.4,0.3c-0.3-0.7,0.7-0.5,0.4-1.2l0.2,0.2c-0.1-0.4,0.2-1.2-0.3-1.7c0.1,0,0.3-0.1,0.3,0.1
					c0.3-0.8-0.2-2,0.3-2.5l0.2,0.1c0-0.2-0.3-0.4,0-0.5c0.1,0,0.2,0.1,0.2,0c0-0.1-0.2-0.5,0-0.7l0.1,0.2c0.5-0.7-0.1-1.3,0-2
					c0.5,0.2,0.9-0.4,1.1-0.6l0.1,0c0.4-0.8,0.2-1.6,0.4-2.5c0.7-0.2,1-1.5,1.8-2.1c-0.2,0.1-0.4-0.2-0.3-0.4c0.2-0.1,0-0.7,0.4-0.4
					l0,0.1c0.5,0.1,0.6-0.3,0.8-0.6l-0.5-0.4c1.3-0.2,1-2.1,2-1.9c0-0.3,0.2-0.5,0.2-0.7l0.3,0.2c0.4-0.4,0.7-0.5,1.1-1.1l0.1,0.3
					c0.3-0.3-0.4-1.1-0.2-1.3l0.5,0.3c0.5-0.5,1.3-0.7,1.5-1.5c0,0.1,0.1,0.2,0.1,0.3c0.3-0.2,1.2-0.5,0.6-1
					c0.3,0.4,0.6-0.4,0.7-0.8l0.2,0.3c0-0.5-0.1-0.6,0.2-1c0.1,0,0.2,0.2,0.1,0.2c0.4-0.1,0-0.4,0.5-0.5l0,0.3
					c0.3-0.2,0.2-0.3,0.2-0.6c0.1-0.3,0.6-0.3,0.8-0.1c-0.1-0.2,0-0.5,0.2-0.5c0.1,0.1,0.1,0.2,0,0.2c0.6-0.1,0.6-0.8,1.1-0.8
					c0.1,0.1,0.1,0.1,0.2,0.1c-0.4,0.2-0.8,0.4-0.7,0.4c0.2,0.3,0.5,0.1,0.5,0.6c0.1-0.4,0.3-1.1,0.7-1.1c0,0,0.1,0,0.1,0.1l0,0
					c0.1,0,0.1-0.1,0.2-0.2c0.1,0,0.2,0,0.3-0.1c0.2,0.2,0.5-0.1,0.6-0.2c-0.2-0.3,0.1-0.4-0.3-0.5c0,0,0,0.1-0.1,0.1
					c0,0,0,0-0.1,0.1l0,0c-0.1,0.1-0.3,0.2-0.4,0.2c0.1-0.2,0.1-0.4,0.4-0.4c0-0.2,0-0.5,0-0.6c0.5,0.3,1,0.3,1.2,0.6
					c0.5-0.4,1.2-0.7,1.3-1.4c0.1-0.1,0.3,0.1,0.3,0.2c-0.1,0.1-0.2,0.1-0.2,0.2c0.2-0.3,0.9-0.4,0.8-0.9c0.5,0-0.1,0.5,0.4,0.2
					l0,0.2c0.7,0.1,1-0.3,1.4-0.7c0.4-0.4,0.8-0.8,1.6-0.5c-0.1,0-0.2,0-0.2-0.1c1.5-0.1,2.9-1.1,4.4-0.8c0.4,0.1,0.4-0.2,0.6-0.5
					l0.2,0.4l0.4-0.5c0.6-0.4,1.2,0.7,1.9,0l-0.1-0.2c0.3,0,0.9-0.2,0.9,0.1c0,0,0.1-0.3,0.2-0.1l0,0.2l0.7-0.4
					c0.5,0.1,0,0.8,0.8,0.7c0.3-0.1,0.8-0.6,0.7-0.8c-0.1,0-0.3-0.1-0.3-0.3l0.3-0.1c0-0.6,0.2-1.2-0.5-1.5l-0.4,0.4l-0.2-0.3
					l0.4-0.1c-0.2-0.2-0.4,0-0.5,0.2c-0.1-0.1-0.1-0.2-0.2-0.3l-0.4,0.6c-0.1-0.2,0.2-0.5-0.2-0.6c-0.2,0.3,0.3,0.5-0.1,0.7
					c-0.2-0.2-0.2-0.5-0.4-0.2c-0.1-0.1,0-0.2,0.1-0.3c-0.2,0.2-0.6,0.1-0.7,0.4c-0.3-0.3-0.8,0.2-0.8-0.3c-0.1,0.1-0.3,0.5-0.6,0.5
					c0.3-0.7-0.8,0.1-0.8-0.6c-0.2,0.6-1,0.4-1.5,0.8c0-0.1,0.1-0.2,0.1-0.1c-0.3,0-0.4-0.1-0.6-0.2c0.1,0.5-0.4,0.7-0.5,1
					c-0.4-0.4,0.1-0.6-0.1-1c0.1,0.4-0.5,0.5-0.3,0.8c-0.3-0.2-0.3-0.1-0.5-0.4c0.1,0.6-0.2,0.2-0.4,0.6c-0.5-0.2-0.2-0.5-0.6-0.2
					C125.5,135.9,125.8,135.6,125.8,135.6z M116.6,140.3L116.6,140.3c0.1-0.1,0.1-0.1,0.2-0.1C116.7,140.2,116.6,140.3,116.6,140.3z
					 M115.8,140.8c0.1,0,0.2-0.1,0.3-0.2c0.1,0.1,0.1,0.2,0,0.2C116.2,140.7,116,140.8,115.8,140.8z M118.5,142
					c-0.1,0.1-0.2,0.1-0.2,0c0.1,0,0.1-0.1,0.2-0.1l0,0C118.5,141.9,118.5,141.9,118.5,142z"/>
				<path class="st2" d="M118.5,141.5C118.5,141.5,118.5,141.4,118.5,141.5C118.5,141.4,118.5,141.4,118.5,141.5L118.5,141.5
					L118.5,141.5z"/>
				<path class="st2" d="M131.4,152L131.4,152C131.4,152,131.4,152,131.4,152C131.4,152,131.4,152,131.4,152z"/>
				<polygon class="st2" points="106.4,148.2 106.4,148.3 106.4,148.2 				"/>
				<path class="st2" d="M134.2,148.1c0,0,0.1,0,0.1,0C134.3,148.1,134.2,148.1,134.2,148.1z"/>
				<path class="st2" d="M134.9,146.2l0.2-0.2C135,146.1,134.9,146.1,134.9,146.2z"/>
				<path class="st2" d="M135.4,144.7c-0.1,0-0.1,0-0.1-0.1l0,0L135.4,144.7z"/>
				<path class="st2" d="M122.2,165.7C122.2,165.7,122.2,165.7,122.2,165.7C122.1,165.8,122.1,165.8,122.2,165.7z"/>
				<path class="st2" d="M127.3,160.1c0,0.1,0,0.2,0,0.3C127.3,160.3,127.4,160.2,127.3,160.1z"/>
				<polygon class="st2" points="114.9,170 114.9,170 114.8,170 				"/>
				<path class="st2" d="M127,160.6c0.1-0.1,0.2-0.1,0.2-0.3C127.1,160.4,127,160.5,127,160.6z"/>
				<path class="st2" d="M136.6,138L136.6,138C136.6,137.9,136.5,137.9,136.6,138L136.6,138z"/>
				<path class="st2" d="M136.5,137.9L136.5,137.9C136.5,137.8,136.5,137.9,136.5,137.9z"/>
				<path class="st2" d="M136.4,137.6l0.1,0.2C136.5,137.7,136.5,137.7,136.4,137.6z"/>
				<path class="st2" d="M136.2,140l0.1,0C136.3,140.1,136.3,140.1,136.2,140z"/>
				<path class="st2" d="M136.2,140.7c0-0.1,0.3-0.3,0.3-0.6l-0.1,0C136.5,140.2,136,140.5,136.2,140.7z"/>
				<path class="st2" d="M134.2,143l0.2-0.5c-0.1,0.1-0.3,0.1-0.3-0.1C133.6,143,134.4,142.3,134.2,143z"/>
				<path class="st2" d="M133.7,144.5c0-0.3-0.2,0-0.3-0.1C133.5,144.6,133.6,144.7,133.7,144.5z"/>
				<path class="st2" d="M129.4,155l-0.3-0.2C129.1,155,129.3,154.9,129.4,155z"/>
				<polygon class="st2" points="129.5,157.8 129.8,157.7 129.6,157.4 				"/>
				<polygon class="st2" points="126.9,157.4 127,157.3 126.8,157.7 				"/>
				<path class="st2" d="M111.7,167.9l0.2,0.3C112,168.2,111.9,167.7,111.7,167.9z"/>
				<path class="st2" d="M103.8,170.1c-0.1-0.2-0.4-0.3-0.5-0.1C103.5,170.1,103.7,170.2,103.8,170.1z"/>
				<polygon class="st2" points="107.5,151.9 107.6,152.1 107.6,151.7 				"/>
			</g>
		</g>
		<g class="st0">
			<path class="st1" d="M77.1,126c0,0,73.5-10.6,62.7-65.6c0,0,22,12.5,13.5,39.6C153.3,100,134.9,143.9,77.1,126z"/>
			<path class="st1" d="M103,130.9c-7.6,0-16.3-1.3-26.1-4.3l-2.6-0.8l2.7-0.4c0.4-0.1,38.7-5.9,55.5-29.5c7.1-10,9.4-22,6.7-35.4
				l-0.3-1.3l1.2,0.7c0.2,0.1,22.4,13.1,13.8,40.3C153.7,100.6,140.5,130.9,103,130.9z M79.7,126.2c16.2,4.6,38.4,6.6,56.7-6.9
				c11.6-8.5,16.2-19.4,16.3-19.5c3.5-11,2.3-20.9-3.4-29.4c-3.1-4.6-6.8-7.5-8.6-8.7c2.3,13.2-0.1,25-7.2,34.9
				C119,117.1,88.7,124.4,79.7,126.2z"/>
		</g>
	</g>
</g>
</svg>
