<?xml version="1.0" encoding="utf-8"?>
<!-- Generator: Adobe Illustrator 27.4.0, SVG Export Plug-In . SVG Version: 6.00 Build 0)  -->
<svg version="1.1" id="Capa_1" xmlns="http://www.w3.org/2000/svg" xmlns:xlink="http://www.w3.org/1999/xlink" x="0px" y="0px"
	 viewBox="0 0 200 200" style="enable-background:new 0 0 200 200;" xml:space="preserve">
<style type="text/css">
	.st0{clip-path:url(#SVGID_00000153693348449730218030000003265359343429903028_);}
	.st1{fill:#FFFFFF;}
	.st2{opacity:0.2;}
</style>
<g id="Layer_1">
</g>
<g>
	<defs>
		<rect id="SVGID_1_" x="40.6" y="16.3" width="118.7" height="167.4"/>
	</defs>
	<clipPath id="SVGID_00000065774949411644365330000018100206622529523599_">
		<use xlink:href="#SVGID_1_"  style="overflow:visible;"/>
	</clipPath>
	<g style="clip-path:url(#SVGID_00000065774949411644365330000018100206622529523599_);">
		<path class="st1" d="M144.5,113.8c0.2,0,0.3-0.2,0-0.5l-0.5,0.1L144.5,113.8z"/>
		<path class="st1" d="M143.2,111.3c-0.5-0.2-1.1-0.3-1.2,0.2c0.6,0,0.6,0.2,1.3,0.3c0.3,0.2,0.4,0.6,0.2,0.7c0.2,0,0.4,0.5,0.7,0.5
			c-0.1-0.6-0.6-1.1-1.3-1.4C142.9,111.3,143.1,111.4,143.2,111.3z"/>
		<path class="st1" d="M116.2,83.4l0.1,0.2C116.3,83.6,116.3,83.5,116.2,83.4z"/>
		<path class="st1" d="M99.4,66.3c0.1,0.1,0.2,0.1,0.3,0.1C99.5,66.3,99.4,66.2,99.4,66.3z"/>
		<path class="st1" d="M96.8,63c0.1,0.1,0.1,0.1,0.2,0.2C96.9,63.1,96.8,63,96.8,63z"/>
		<path class="st1" d="M116.2,83.4l-0.4-0.5C115.7,82.9,116,83.2,116.2,83.4z"/>
		<path class="st1" d="M138.7,108.3c0.1,0.1,0.2,0.1,0.3,0.2L138.7,108.3C138.7,108.2,138.7,108.3,138.7,108.3L138.7,108.3z"/>
		<path class="st1" d="M123.9,90.7l0.1,0.1c0.1,0,0.2,0,0.2,0L123.9,90.7L123.9,90.7z"/>
		<path class="st1" d="M129.7,96.4c-0.1-0.1-0.4,0.1-0.6,0.1c0.2,0,0.3,0,0.5,0.1C129.7,96.6,129.7,96.5,129.7,96.4z"/>
		<path class="st1" d="M138.4,105.9l0.2,0.1C138.6,106.1,138.5,106,138.4,105.9z"/>
		<path class="st1" d="M119.9,86.5c0,0,0-0.1,0-0.1C119.9,86.4,119.9,86.4,119.9,86.5z"/>
		<path class="st1" d="M136.9,117.9C136.9,117.9,137,117.9,136.9,117.9C137,117.9,137,117.9,136.9,117.9z"/>
		<path class="st1" d="M145.1,113.2L145.1,113.2l0,0.1l0,0.1c0,0,0.1,0.1,0.1,0.2v-0.1l0-0.1L145.1,113.2L145.1,113.2L145.1,113.2
			L145.1,113.2z"/>
		<path class="st1" d="M90.7,57.9C90.7,57.9,90.8,58,90.7,57.9C91,58.1,90.9,58,90.7,57.9z"/>
		<path class="st1" d="M40.9,89.5c0.3-0.8,0.5,1.3,0.8,0C41.5,89.6,41,88.4,40.9,89.5z"/>
		<path class="st1" d="M138.6,108.1l-0.2-0.2C138.4,108,138.5,108,138.6,108.1z"/>
		<path class="st1" d="M41.6,89.5l0-0.1C41.7,89.4,41.6,89.5,41.6,89.5z"/>
		<path class="st1" d="M73.3,53.6c0,0,0.1,0.1,0.2,0.2C73.5,53.8,73.4,53.7,73.3,53.6z"/>
		<path class="st1" d="M86.3,56.5L86,56.4C86.1,56.5,86.2,56.5,86.3,56.5z"/>
		<path class="st1" d="M66.5,55c-0.2,0-0.3,0-0.5,0.1c0,0,0.1,0,0.1,0C66.1,55.1,66.3,55,66.5,55z"/>
		<path class="st1" d="M59.7,57.4c0,0,0.1,0,0.2,0c0.1,0,0.1-0.1,0.2-0.1L59.7,57.4L59.7,57.4z"/>
		<path class="st1" d="M118.7,127.4c0.2,0.1,0.3,0.1,0.4,0.2C118.9,127.4,119.9,127,118.7,127.4z"/>
		<path class="st1" d="M138.8,108.1c-0.1,0-0.2,0-0.3,0l0.2,0.2C138.7,108.2,138.8,108.2,138.8,108.1z"/>
		<path class="st1" d="M66.9,57.8l-1,0.2C66.1,58,66.5,57.9,66.9,57.8z"/>
		<path class="st1" d="M71.3,123.2c0.1,0,0.2,0.1,0.2,0.1C71.5,123.2,71.4,123.2,71.3,123.2z"/>
		<path class="st1" d="M62.9,59.1c-0.2-0.1-0.4,0-0.6,0c0,0-0.1,0.1-0.1,0.1C62.4,59.2,62.7,59.1,62.9,59.1z"/>
		<path class="st1" d="M125.4,124.2c-0.9,0.4-0.3,0.6-0.3,1c-1.1,0.6-0.7-0.1-1.1-0.1c-0.6,0.5-1,1-1.6,1.2
			c-0.1-0.1-0.2-0.1-0.1-0.2c-0.6,0.6-2.3,0.8-3,1.6c-0.1,0-0.1,0-0.2-0.1c0.2,0.2,0.3,0.4,0.3,0.6c-0.4,0.2-0.7,0.6-1,0.3
			c0.3-0.1,0.3-0.2,0.4-0.3l-0.4,0.3c-0.5-0.3,0.6-0.4,0.5-0.7c-0.8,0.5-1.8,1-2.6,1.1c-0.3-0.4,1.6-0.5,0.6-0.7l1.1-0.1
			c-1-0.4,0.7-0.1-0.3-0.6c-1.5,0.2-1.5,0.6-3,0.8c-0.3,0.3,0.2,0.3-0.1,0.6c-2,0.9-1.8-0.6-3.2,0.2c-0.3,0.3-0.4,0.9-1.5,0.8
			l0.3-0.5c-1.4,0.2-0.7,0.8-2.2,0.7c0.2-0.2,1.1-0.3,0.9-0.3c-1-0.2-0.6,0.4-1.4,0.5l-0.2-0.4c-0.4,0.1-0.8,0.2-1.1,0.2
			c-0.4,0.1-0.8,0.1-1.2,0.2c-0.8,0.1-1.6,0.3-2.5,0.4c0.1-0.1,0.4-0.3,0-0.4c-2.1,0.4-4.5-0.1-6.5-0.4l-0.8,0.3
			c-0.2,0-0.3-0.2-0.1-0.2c-0.8-0.2-0.1,0.2-0.5,0.4c-0.5,0-0.6-0.3-0.3-0.4c-1.4,0.1-4.1,0.1-5.5-0.5l0.3-0.1
			c-1.1-0.3-1.4,0.5-2.4-0.1h0.2c-1.2-0.4-2.5-0.7-3.7-1c-1.2-0.3-2.3-0.8-3.1-1.4c-0.5,0.4-2.3-1-2.7-0.4c-1.2-0.8-0.8-0.9-2.5-1.9
			c-0.5-0.3-0.9,0.1-1.6-0.1l0.2-0.4h-1l-0.2-0.6l-0.6-0.2c0.2,0.1,0.4,0.4,0.3,0.5c-1-0.2-1.9-1.4-1.9-1.6l-2.2-0.9
			c0.1-0.1,0.5,0,0.8,0.1c-1.3-0.3,0-0.5-1.1-0.7c0.1,0.2-0.2,0.2-0.3,0.2c-0.2-0.2-0.5-0.5-1-0.8c-0.4-0.3-0.9-0.6-1.3-0.9l0.3-0.1
			c-1.3-1.1-3-2-4.5-3.2c0.4,0.6,0,0.8-0.4,0.5l0.1-0.5c-0.4-0.1,0.3,0.5-0.4,0.3c-0.5-0.5-0.1-0.7,0.3-0.5l-0.7-0.5
			c0-0.1,0.2,0,0.4-0.1c-0.4-0.1-0.8-1.3-1.5-1.3l0.1-0.1c-1.4-1.3-2.2-1.7-3.3-2.9c-0.3,0.2-0.7-0.3-1.2-0.4c-0.7-0.9-1.5-2-2.4-3
			c-0.8-0.6-0.4,0-0.9-0.2c0.2-0.3-0.7-1.3-0.1-0.9c-0.5-0.6-0.8-1-1.2-1.5c-0.3-0.4-0.9-0.9-1.5-1.7c0,0.3,0.1,0.5-0.1,0.5
			c-0.2-0.3-0.3-0.8-0.2-0.8l0.1,0.1c-0.4-0.4-0.7-1-1-1.6c-0.2-0.6-0.4-1.3-0.6-1.9c-0.4-1.2-0.5-2.4-1.2-3.2l0.1,0.1
			c-0.3-0.5-0.6-1.1-0.9-1.7c-0.2-0.9,0.4,0.4,0.4-0.2c-0.5-0.9-0.7-1.7-0.7-2.5c-0.1-0.8-0.1-1.5-0.4-2.3c0.5-0.7,0.3-1.8,0.3-3
			c0-1.2-0.1-2.5,0.4-3.3l-0.2,0.1c-0.2-0.5,0.2-0.5,0.3-0.8c-0.2,0-0.3,0.5-0.4,0.2c0.3-3.9,2.3-7.7,4.5-10.8
			c0.8-1.2-0.6-1.4,0.9-2.5l0,0.7c0.3-0.7,0.7-1.3,1.1-1.9c0.5-0.6,1-1.1,1.5-1.7c0.5-0.6,1.1-1,1.6-1.5c0.5-0.5,1-1.1,1.5-1.6
			c-0.1,0.2,0,0.3-0.2,0.4c0.7-0.1,1.8-1.3,1.7-1.5c0.4-0.2,0.2,0.1,0.5,0.1c0.6-0.2,1.1-1.1,1.5-1c0.1,0-0.1,0.2-0.2,0.2
			c0.3-0.3,1.6-0.9,1.1-1c1-0.4,1.8-1,2.6-1.2c0.4-0.6,1.8-0.4,1.8-1c0.1,0.3,0.5,0.2,1.1,0.1c0.5-0.2,1.2-0.4,1.5-0.6
			c-0.2,0.2,0.6,0,0.4,0.3c0.7-0.2,1.4-0.5,1.2-0.7c1.5,0.5,2.8-1,3.7-0.1c1.1-0.2,2.2-0.4,3.3-0.4c0.5,0,1.1-0.1,1.6-0.1
			c0.5,0,1.1,0.1,1.6,0.1c-0.1,0.3-0.7,0.2-1.2,0.2c-0.5-0.1-1.1,0-1.1,0.3c1-0.1,1.8-0.1,2.6-0.1c0.4,0,0.8,0,1.2,0
			c0.4,0.1,0.8,0.2,1.3,0.3c0.5,0.2-0.3,0.2-0.5,0.2c2,0.2,3.6,1.1,5.4,1.5c0,0.1-0.2,0-0.4,0c0.3,0.1,0.7,0.4,0.8,0.2L86.1,59
			c-0.4-0.6,1.6-0.1,1.7-0.3c-0.9,0.4,1.5,0.9,0.2,1.4c0.2,0.1,0.5,0.1,0.6-0.1c0.3,0.2,0.3,0.4-0.1,0.4c1.1,0.5,0.9,0,1.9,0.6
			C90.4,61,90.2,61,90,61c0.3,0,0.6,0.1,1,0.2c0.3,0.1,0.7,0.3,1,0.7c-0.1,0-0.1,0.2-0.3,0c0.7,0.5,1.3,0.7,2,1.1
			c0.6,0.4,1.3,0.8,1.8,1.5c-0.8,0,0.3,0.5,0.1,0.9l0.8,0.6l-0.1-0.4c0.6,0.6,1.4,0.9,1.8,1.6l-0.6-0.3l1.2,1.1l-0.5-0.8
			c0.8,0.5,0.4-0.5,1.1,0.4c-0.2-0.1,0.6,0.6,0.7,1.1c0.4,0.2,0.8,0.4,1.2,0.9c0,0.2-0.5,0.3-0.5,0.4c0.6,0,1.5,1.4,2.2,1.5
			c-0.2-0.1-0.4,0.1-0.4,0.2l0.5,0c0.2,0.4,0.2,0.4,0,0.5c0.8,0.9,0.2-0.7,1,0.5c-0.1-0.1-0.1,0-0.3-0.1c0.9,1.1,2.1,1.9,3,2.9
			c-0.1,0.6-0.9-0.7-0.9-0.1c1.4,1.3,3.2,2.4,4.5,3.8l-0.2-0.3c0.7-0.3,0.8,1.2,1.6,1.7c-0.2-0.1-0.5,0.1-0.4,0c0.8,1,2,1.7,3.5,3
			l-0.3-0.1c0.4,0.6,1.3,1.5,1.9,2.1c0.3,0.1,0.6,0.4,0.6,0c1.1,2.5,3.8,3,4.8,5.2c-0.2-0.2-0.6-0.3-0.4-0.2l1.5,1.2
			c0.1-0.3-0.1-0.3-0.2-0.8c0.3,0.1,0.8,0.3,1.1,0.7c-0.7-0.5-0.3,0.3-0.2,0.7c0-0.1,0.2-0.1,0.2-0.2c0.3,1.1,0.5-0.3,1.3,0.9
			l-0.2,0.1c0.4,0.3,0.9,0.5,1.3,0.9c-0.1,0.4-0.5-0.3-0.7-0.1c0.6,0.5,1.5,0.6,1.8,1.4c-0.3-0.2-0.6-0.5-0.9-0.7
			c0.3,0.8,0.4,0.8,0.7,1.3l0-0.1l0.8,1l-0.2-0.3c1.3,0.1,1.5,1.3,2.8,1.8c-1.3-0.5-0.4,0.1-0.7,0.3c0.2,0.3,0.4,0.8,0.3,0.7
			c0.7,0.2,0.5,0.9,1.5,1.2c-0.1,0.1,0.5,0.5,0.1,0.6c0.6,0.5,0-0.3,0.2-0.3c1.2,0.6,1.7,2.4,3.3,3.2c1.3,0.9,1.7,0.8,2.9,1.7
			c0.2,0.5-0.6,0-0.6,0c0.4,0.7,0.8,1.1,1.5,1.5c-0.2,0-0.1,0.1-0.1,0.4c0.4,0.4,0.6-0.1,1,0.6c-0.2,0-0.5,0-0.8-0.1
			c0.6,0.4,1.2,0.7,1.8,1.1c0,0.3-0.5-0.1-0.8-0.1c0.6,0.5,1.6,1.3,2,1.3l-0.3-0.4c0.2,0.2-0.1,0.3-0.3,0.2
			c-0.7-0.3-0.6-0.8-0.5-0.9l0.4,0.3c0.2-0.9-1.5-1.4-2.2-2.1l0.7-0.1l-1-0.4c-0.1-0.3,0-0.6,0.5-0.3c-0.3-0.7-0.6-0.3-0.8-1
			c0-0.1,0-0.1,0.1-0.1l-0.6-0.4c0.2,0,0.2-0.3,0.4,0c-0.7-1.1-1.7-1.2-1.8-1.8l0.1,0.1c-1.4-1.1-0.4,0.2-1.7-0.5l0.1-1.3l-0.4,0.2
			c-0.1-0.1-0.4-0.4-0.2-0.5c-0.7-0.3,0,0.2-0.5,0.1c-0.4-0.9-1.8-1.6-1.5-2.2c-0.4,0,0.4,0.8-0.4,0.2c0.3-0.7-0.9-0.7-1.2-1.5
			c0.4-0.1,0.8,0.6,0.5-0.2c-0.8,0.1-1-1.2-1.6-1.6c-0.3,0.3-1.2-0.9-2.1-1.6c0.2-0.1-1.3-1.7-2-2.6l0.1,0c-0.5,0.2-1.2-0.7-1.8-1.1
			c0.2-0.2,0.4-0.2,0.8,0.1l-0.5-0.5c-0.2,0-0.4-0.1-0.8-0.4l0.4-0.1c-0.7-0.7-1.7-1.1-2.5-2.2c-0.3,0.2,0.1,1.4-1,0.6
			c0.1-0.2,0.3-0.4,0.6-0.2c-0.1-0.1-0.4-0.2-0.5-0.4l0.6,0.2c-0.3-0.5-0.4,0-0.7-0.4c0.2-0.2-0.1-0.4,0.1-0.5
			c0.1,0.1,0.2,0.4,0.4,0.4c-0.3-0.4-0.7-1-0.7-1.2c-0.1,0.1-0.2,0.2-0.5,0c-0.7-0.7,0-0.5-0.3-1c-0.3-0.1-0.6-0.6-0.9-0.4
			c-0.2-0.2-0.1-0.4-0.1-0.5c-0.5-0.2-1.7-1.7-1.6-1l0.1,0.1c0,0-0.1,0-0.1-0.1c-1.5-0.9-2.3-2.6-3.6-3.7l0.1-0.1
			c-0.8-0.6-1.6-1.5-2.3-1.8c-0.2-0.2-0.3-0.7-0.1-0.7c-0.6-0.5-0.8-0.4-1.4-1.4c0.7,0.4-0.1-0.3,0.7,0.4c-0.6-0.8-0.6-1.1-1.6-1.6
			c0.5,0-0.2-0.8-0.6-1.1l0.3,0.7c-0.4-0.3-0.7-0.7-1-1l0.5-0.1c-1.1-1.8-3.2-2-3.7-3.7c-0.6-0.2,0.6,0.9,0.1,0.8
			c-0.6-0.7-0.9-1.8-1.1-2c-0.7-1.1-1.3-0.4-2.1-1.5c0,0.2-0.2,0.6-1,0c-0.6-0.7-0.4-1.3,0.1-0.9c0.2,0.2,0.2,0.3,0.2,0.3
			c0.3,0.2,0.6,0.4,0.4,0l-0.2,0c-0.2-0.4-1.1-1.3-0.8-1.3c-0.6-0.4-0.4,0-0.1,0.4c-0.7-1-1.3-1.3-2.1-2.3c0.1,0.2,0.1,0.4,0,0.3
			c-1.3-1.4-0.8-0.3-1.8-1.1c-0.4-0.7,0.5-0.3-0.5-0.9c-0.5-0.6,0.1-0.4,0.4-0.3c-1.1-0.5-1.7-1.5-2.2-1.9l0.6,0.3
			c-0.3-0.2-0.6-0.3-0.8-0.5l0.1,0.5c-0.3-0.3-0.5-0.4-0.4-0.5c-0.4,0,0,0.6-0.8,0.4c-0.3-0.4-1.3-0.6-1.3-1
			c1.2,0.9,0.1-0.4,1.2,0.2c-0.2-0.1-0.5-0.2-0.8-0.5c0-0.1,0.1-0.1,0.2,0c-1.1-1-0.8,0-2.1-0.7c0.3-0.1-0.1-0.5-0.4-0.6
			c0.6,0.3,0.1,0.5-0.5,0.4c-0.8-0.6-1-0.3-1.4-0.5l0.5,0.3c-0.3,0.1-0.7-0.1-1.3-0.2c0-0.2,0.6,0.1,0.4-0.1c-0.8,0.1-1.4-0.9-2.5-1
			c-0.4-0.3,0.1-0.4-0.3-0.6c-1.2,0-1.2-0.6-2.4-0.7c0.3,0.4,0.4,0.3-0.5,0.4c0.7,0.1,1.3,0.2,2,0.3L80.8,55
			c0.6,0.1,1.3,0.1,1.6,0.3c-0.7,0.1-0.6,0-0.4,0.3c-0.7-0.6-1.6-0.2-2.5-0.6l0.2-0.7c-1.4-0.5-2.6,0-4.4-0.3l0.6,0.2
			c-0.3,0.3-1.1,0-1.8,0.1c0.1-0.3-0.3-0.3-0.6-0.5c0,0.2-1.4,0.1-1.5,0.6L71.2,54c-1.5,0-1.6,0.9-3.1,1c0.4-0.3-0.3-0.4,0.6-0.7
			c-0.5,0.1-0.9,0.1-0.9,0.3c-0.3-0.1-1.2,0.6-1.7,0.5c-0.2,0.2-0.2,0.4-0.7,0.5c-0.1,0,0-0.1,0-0.1c0,0.1-0.8,0.4-0.2,0.5
			c-0.8-0.2-1.8,0.2-2.7,0.5c-1,0.3-1.8,0.9-2.5,0.8c-0.9,0.5-2,1.2-2.8,1.7c0-0.1-0.1-0.1,0.1-0.2c-1.3,0.5-0.3,1-1.7,1.6
			c-0.8,0.1,0.5-0.7,0-0.5c-0.6-0.5-1.4,1.1-2.5,1.4c0.1-0.1,0.1-0.1,0.2-0.2c-0.8,0.3-1.2,1.5-2.2,2.3c0,0,0-0.1-0.1-0.1
			c-0.3,0.9-1.3,2.2-2,3.2c0-0.5,0.2-0.5-0.2-0.6c-0.3,0.4,0.5,0.2-0.1,1.1c-0.3,0.2-0.9,0.7-1.3,0.6l0.6-0.8
			c-0.7,0.2-0.8,1.1-1.2,1.5l-0.1-0.2c-0.8,1.3-0.4,1.7-1.3,3.1l0.2-0.1c0,1-0.6,0.5-0.7,1.5l-0.6,0c-0.2,0.6-0.5,2.1-0.7,3.2
			c-0.1-0.3-0.1-0.8,0-1.4c0.1-0.5,0.2-1,0.3-1.4c-0.1,0.3-0.3,0.8-0.5,1.2c-0.1,0.5-0.2,0.9-0.1,1.1c0-0.2,0-0.6,0.2-0.8
			c0.1,0.8,0,1.8-0.4,2.9c-0.4-0.2-0.7,0.5-0.9,1.4c-0.3,0.9-0.5,1.9-0.9,2.3c0,2.2-0.7,4.2-0.5,6.8c0.7-0.9,0.1,0.7,0.8,0.5
			c0.1,0.6,0.1,0.8,0,0.8c-0.2,0.6-0.2,1.2-0.3,1.8c-0.2,0.4-0.3-0.5-0.4-0.4c0.1,1.3-0.3,0.6-0.3,1.5c0.3-0.2,0.4,0.4,0.5,1.1
			c0-0.4,0.1-0.7,0.2-1.1c0.3,0.9,0.3,1.3,0.2,1.7c-0.1,0.4-0.1,0.8,0.3,1.7l-0.4-0.5c0.3,0.9,1,3.3,1.9,3.9c0,0.2-0.2,0.5-0.3,0.1
			c0.4,1,1.1,2.1,1.7,3.1c0.7,0.9,1.3,1.8,1.6,2.7l-0.2,0c0.3,0.3,0.7,0.4,0.8,0.9c-0.1,0-0.3,0-0.2,0.1c0.2,0.1,0.9,0.7,1.2,1.2
			l-0.4-0.2c0.5,1,1.2,1.5,1.9,2c0.7,0.4,1.3,0.9,2,1.4c-0.4,0.4,0.6,1.7,1.1,2.3l-0.1,0c1.6,1.8,3.3,2.5,5.1,3.9
			c0.3,0.7,1.1,1.6,2.2,2.4c1,0.8,2.2,1.6,3,2.5c-0.2-0.3,0.3-0.3,0.7-0.1c0.4,0.4,1.4,0.5,1,0.9l-0.2-0.1c0,0.7,1.1,1.1,1.8,1.6
			l0.5-0.5c0.7,1,2,1.7,3.2,2.2c1.2,0.6,2.4,0.9,2.7,1.6c0.6,0.1,1.2,0.4,1.7,0.4l-0.2,0.3c0.7,0.4,1.2,0.6,1.7,0.9
			c0.6,0.2,1.2,0.4,2.1,0.7l-0.4,0.1c1,0.4,1.6-0.5,2.5-0.2l0.1,0.6c1.7,0.7,3.4,1.5,5.3,1.5c-0.1,0.1-0.1,0.2-0.4,0.2
			c0.8,0.2,3.2,1.1,3,0.3c-0.1,0.5,1.9,0.3,2.8,0.3l-0.2,0.3c0.9-0.3,0.9-0.4,2.1-0.4c0.3,0.1,0.2,0.3-0.1,0.2
			c0.9,0.3,0.7-0.2,1.8,0.1l-0.4,0.2c0.9,0.1,0.9,0,1.4-0.3c0.6-0.1,1.8,0.2,1.9,0.5c0.1-0.2,0.7-0.4,1.2-0.3
			c0.1,0.1-0.1,0.2-0.2,0.2c1.6,0.3,2.3-0.3,3.4,0c0,0.1,0.1,0.2,0.2,0.2c-1.2,0.1-2.2,0-2.1,0c0,0.3,1,0.4,0.2,0.8
			c0.8-0.2,2.2-0.9,3.2-0.7c0.1,0,0.1,0.1,0.1,0.1l-0.1,0c0.2,0,0.4,0,0.6-0.1c0.3,0,0.5,0.1,0.8,0.1c0.1,0.3,1.2,0.1,1.7,0.1
			c-0.1-0.4,0.6-0.3-0.1-0.6c0.1,0-0.1,0.1-0.4,0.1c-0.1,0-0.2,0-0.2,0.1l0,0c-0.3,0-0.8,0.1-1.2,0.1c0.4-0.2,0.8-0.4,1.4-0.2
			c0.2-0.2,0.5-0.5,0.7-0.6c0.7,0.5,2.1,0.5,2.3,0.8c1.5-0.4,3.6-0.6,4.4-1.5c0.4-0.2,0.5,0.1,0.7,0.1c-0.2,0.1-0.5,0.2-0.6,0.3
			c0.8-0.4,2.5-0.7,2.6-1.2c1.1-0.1-0.5,0.6,0.9,0.1l-0.2,0.2c3.1,0.1,4.2-2.5,7.6-2.7c-0.2,0-0.4,0-0.4,0c3.6-1,6.9-3.4,10.3-4.8
			c1-0.4,0.9-0.7,1.3-1.3l0.4,0.2c0.2-0.3,0.4-0.7,0.7-1c1-1.2,2.7-0.8,3.9-2.5l-0.4-0.1c0.3-0.2,0.7-0.5,1.1-0.8
			c0.3-0.3,0.6-0.5,0.7-0.4c0-0.1,0-0.4,0.3-0.4l0.1,0.1l1-1.4c1.1-0.8,0.4,0.7,1.9-0.5c0.5-0.5,1.1-1.8,0.8-1.7
			c-0.2,0.2-0.6,0.4-0.8,0.3l0.4-0.5c-0.1-0.1-0.2-0.3-0.2-0.4c0.1,0.1,0.2,0.2,0.2,0.2c-0.2-0.2-0.4-0.4-0.6-0.6c0,0-0.1,0-0.1,0
			c-0.1,0-0.2,0-0.3,0c-0.2,0-0.5,0.1-0.9,0.3l-0.6,1l-0.5,0l0.7-0.6c-0.6,0.2-0.7,0.5-0.8,0.9c-0.2-0.1-0.4,0-0.5,0.1l-0.4,1.1
			c-0.2-0.1,0.1-0.7-0.6-0.3c-0.2,0.5,0.7,0.1,0.2,0.8c-0.6,0.2-0.6-0.1-0.9,0.5c-0.2-0.1-0.1-0.2,0-0.4c-0.3,0.5-1.1,1-1.1,1.4
			c-0.7,0.1-1.4,1.2-1.7,0.7c-0.1,0.2-0.5,0.9-0.9,1.3c0.4-1.1-1.5,1.1-1.7,0.3c-0.2,0.9-2,1.5-2.8,2.4c0-0.1,0.1-0.2,0.2-0.3
			c-0.6,0.3-0.9,0.2-1.3,0.4c0.2,0.5-0.7,1.1-1,1.7c-1-0.1,0.2-0.8-0.3-1.1c0.2,0.4-1.1,1-0.7,1.2c-0.7,0-0.6,0.1-1-0.1
			c0.2,0.6-0.5,0.3-0.8,0.9c-1,0.1-0.5-0.4-1.3,0.2C124.8,124.8,125.5,124.2,125.4,124.2L125.4,124.2z M102.4,130.7
			c0.2,0,0.4,0,0.5-0.1C102.8,130.6,102.7,130.7,102.4,130.7z M100.4,130.8c0.2,0,0.6,0,0.9,0c0.1,0.1,0,0.3-0.2,0.3
			C101.2,130.9,100.7,130.9,100.4,130.8z M104.8,133.1c-0.3,0.1-0.4,0-0.5-0.1c0.2,0,0.3,0,0.6-0.1c0,0,0,0,0-0.1
			C104.9,132.9,104.9,133,104.8,133.1L104.8,133.1z"/>
		<path class="st1" d="M105.4,132.6c0,0,0.1,0,0.1,0c-0.1,0-0.1-0.1-0.2-0.1l-0.1,0.1C105.2,132.6,105.4,132.6,105.4,132.6
			L105.4,132.6z"/>
		<path class="st1" d="M116.4,83.7L116.4,83.7C116.4,83.6,116.4,83.7,116.4,83.7C116.4,83.7,116.4,83.7,116.4,83.7z"/>
		<path class="st1" d="M73.4,123.9L73.4,123.9l0.2,0.1L73.4,123.9z"/>
		<path class="st1" d="M123.6,92.6c0,0,0,0.1,0,0.2C123.6,92.8,123.6,92.7,123.6,92.6z"/>
		<path class="st1" d="M127,96.1l0.4,0.6C127.2,96.5,127.1,96.3,127,96.1z"/>
		<path class="st1" d="M129.6,99c0.1,0,0.1,0,0.2-0.1L129.6,99L129.6,99z"/>
		<path class="st1" d="M85.6,58.9c0,0-0.1,0-0.1,0C85.2,58.8,85.4,58.8,85.6,58.9z"/>
		<path class="st1" d="M99.9,68.7c-0.2-0.1-0.4-0.2-0.5-0.3C99.6,68.7,99.8,68.9,99.9,68.7z"/>
		<path class="st1" d="M67,57.8L67,57.8l-0.1,0L67,57.8z"/>
		<path class="st1" d="M98.8,67.9c0.2,0.3,0.4,0.5,0.6,0.6C99.2,68.3,99.1,68,98.8,67.9z"/>
		<path class="st1" d="M141.1,110.7l0.1,0.1c0,0,0,0,0.1,0L141.1,110.7L141.1,110.7z"/>
		<path class="st1" d="M141.2,110.8l0.2,0.1C141.3,110.8,141.3,110.8,141.2,110.8z"/>
		<path class="st1" d="M141.8,111.1l-0.4-0.2C141.5,111,141.6,111.1,141.8,111.1z"/>
		<path class="st1" d="M137.6,107l-0.1,0.1C137.5,107.1,137.6,107.1,137.6,107z"/>
		<path class="st1" d="M136.5,106c0.2,0.3,0.4,0.8,0.9,1.1l0.1,0C137.2,107,136.9,106,136.5,106z"/>
		<path class="st1" d="M133.1,100.3l0.8,1c-0.1-0.3-0.1-0.6,0.3-0.2C133.4,99.7,134.3,101.6,133.1,100.3L133.1,100.3z"/>
		<path class="st1" d="M130.5,97.4c0.5,0.4,0.1-0.2,0.2-0.2C130.3,97,130.2,96.9,130.5,97.4z"/>
		<path class="st1" d="M110.3,77.2l0.3-0.2C110.1,76.6,110.4,77.1,110.3,77.2z"/>
		<path class="st1" d="M105.2,74.5l0.2,0.5l0.4,0L105.2,74.5z"/>
		<path class="st1" d="M104.6,70.5l0.2,0.1l-0.7-0.5L104.6,70.5z"/>
		<path class="st1" d="M60.7,56.6l0.3,0.3C61.4,56.7,61.2,56.2,60.7,56.6z"/>
		<path class="st1" d="M45.4,71.1c-0.3,0.1-0.7,0.6-0.7,1C44.9,71.7,45.3,71.3,45.4,71.1z"/>
		<path class="st1" d="M67.1,124.2l-0.4-0.1l0.8,0.3L67.1,124.2z"/>
		<path class="st1" d="M55.9,112.6c-0.2,0-0.3,0.2,0,0.4l0.5-0.1L55.9,112.6L55.9,112.6z"/>
		<path class="st1" d="M57.3,114.9c0.5,0.2,1.1,0.3,1.2-0.2c-0.6,0-0.6-0.2-1.3-0.2c-0.3-0.2-0.4-0.6-0.3-0.6
			c-0.2,0-0.4-0.5-0.7-0.4c0.2,0.6,0.6,1,1.3,1.3C57.6,114.9,57.4,114.9,57.3,114.9L57.3,114.9z"/>
		<path class="st1" d="M91.8,131.7l-0.2-0.1C91.6,131.7,91.7,131.7,91.8,131.7z"/>
		<path class="st1" d="M115.9,130.6c-0.2,0.1-0.2,0.1-0.2,0.2C115.8,130.7,116,130.6,115.9,130.6z"/>
		<path class="st1" d="M120,129.9c-0.1,0-0.2,0-0.2,0.1C119.9,129.9,120,129.9,120,129.9z"/>
		<path class="st1" d="M91.8,131.7l0.6,0.2C92.5,131.8,92.1,131.8,91.8,131.7z"/>
		<path class="st1" d="M62,117.6c-0.1-0.1-0.2-0.1-0.3-0.1L62,117.6C62,117.6,62,117.6,62,117.6z"/>
		<path class="st1" d="M81.2,129.8l-0.2-0.1c-0.1,0-0.1,0.1-0.2,0.1L81.2,129.8z"/>
		<path class="st1" d="M73.5,126.9c0.2,0.1,0.4-0.2,0.5-0.3c-0.2,0.1-0.3,0.1-0.5,0.1C73.5,126.7,73.5,126.8,73.5,126.9z"/>
		<path class="st1" d="M62.6,119.8l-0.2-0.1C62.4,119.7,62.5,119.8,62.6,119.8z"/>
		<path class="st1" d="M86.9,131.4c0,0,0,0.1,0.1,0.1C87,131.5,87,131.4,86.9,131.4z"/>
		<path class="st1" d="M63.2,107.7C63.2,107.7,63.1,107.7,63.2,107.7C63.1,107.7,63.1,107.7,63.2,107.7z"/>
		<path class="st1" d="M55.3,113.2L55.3,113.2l0-0.1l0-0.1c0,0-0.1-0.1-0.1-0.2l0,0.1v0.1L55.3,113.2L55.3,113.2L55.3,113.2
			L55.3,113.2z"/>
		<path class="st1" d="M127.4,127.5C127.4,127.5,127.3,127.5,127.4,127.5C127.2,127.6,127.3,127.6,127.4,127.5z"/>
		<path class="st1" d="M155.5,70.7c0.1,0.9-1-0.9-0.7,0.3C154.8,70.9,155.8,71.7,155.5,70.7z"/>
		<path class="st1" d="M62.2,117.7l0.3,0.2C62.3,117.8,62.2,117.8,62.2,117.7z"/>
		<path class="st1" d="M154.8,71l0,0.1C154.8,71.1,154.8,71.1,154.8,71L154.8,71z"/>
		<path class="st1" d="M142.2,117.8c-0.1,0-0.2,0-0.2,0C142,117.9,142,117.9,142.2,117.8z"/>
		<path class="st1" d="M131.1,124.9l0.3-0.1C131.3,124.8,131.2,124.8,131.1,124.9z"/>
		<path class="st1" d="M146.8,112.8c0.1-0.1,0.2-0.1,0.4-0.3c0,0-0.1,0-0.1,0C147.1,112.6,147,112.7,146.8,112.8L146.8,112.8z"/>
		<path class="st1" d="M151.7,107.7c0,0-0.1,0-0.1,0.1c0,0.1-0.1,0.1-0.1,0.2L151.7,107.7z"/>
		<path class="st1" d="M78,92.6c-0.2,0-0.3,0-0.5,0C77.8,92.7,77.2,93.5,78,92.6z"/>
		<path class="st1" d="M61.9,117.7c0.1-0.1,0.2-0.1,0.3,0c-0.1,0-0.1-0.1-0.2-0.1C61.9,117.6,61.9,117.7,61.9,117.7L61.9,117.7z"/>
		<path class="st1" d="M145,110.6l0.8-0.7C145.6,110.1,145.3,110.4,145,110.6z"/>
		<path class="st1" d="M114.2,59.2l-0.2,0.1C114.1,59.3,114.2,59.3,114.2,59.2z"/>
		<path class="st1" d="M148.1,107.5c0.2-0.1,0.4-0.2,0.6-0.3c0-0.1,0-0.1,0-0.2L148.1,107.5z"/>
		<path class="st1" d="M73,98.4c0.8-0.7,0-0.7,0-1c0.8-1,0.7-0.2,1.1-0.3c0.5-0.6,0.6-1.4,1-1.8c0.1,0,0.2,0,0.2,0.1
			c0.3-0.9,1.7-1.8,2.1-2.8c0.1,0,0.1,0,0.2,0c-0.3-0.1-0.5-0.2-0.6-0.4c0.3-0.3,0.4-0.8,0.8-0.7c-0.2,0.2-0.1,0.3-0.2,0.5l0.3-0.4
			c0.6,0-0.4,0.6-0.1,0.8c0.6-0.8,1.1-1.8,1.7-2.3c0.4,0.2-1.1,1.3-0.2,0.9l-0.9,0.7c1.1-0.1-0.5,0.5,0.6,0.4c1.2-1,1-1.4,2.2-2.3
			c0.1-0.4-0.3-0.2-0.3-0.6c1.2-1.8,2-0.4,2.7-1.9c0.1-0.5-0.2-1,0.8-1.6l0.1,0.6c1.1-1,0.1-1.1,1.4-1.9c-0.1,0.3-0.7,0.9-0.5,0.8
			c1-0.4,0.3-0.7,0.8-1.2l0.4,0.2c1-1.1,2-2.6,3.2-3.9c0,0.2-0.1,0.5,0.3,0.3c1.4-1.7,3.3-3.2,5-4.5l0.3-0.8
			c0.1-0.1,0.4-0.1,0.3,0.1c0.7-0.5-0.1-0.2,0-0.6c0.3-0.3,0.6-0.3,0.5,0c0.8-1.2,2.4-3.4,3.8-4.2l-0.1,0.3c0.9-0.7,0.4-1.5,1.4-2
			l-0.1,0.2c1.9-1.7,3.7-4,5.5-4.8c0-0.3,0.4-0.7,0.9-1c0.5-0.3,0.9-0.6,0.8-1c1.4-0.5,1.1-0.3,2.9-1c0.5-0.2,0.4-0.8,1-1.2l0.2,0.3
			c0.2-0.3,0.4-0.5,0.6-0.8l0.6,0.2l0.5-0.3c-0.2,0.1-0.5,0.1-0.6-0.1c0.4-0.3,1-0.5,1.4-0.6c0.5-0.1,0.9,0,0.9,0.1l2-1.1
			c0,0.2-0.3,0.3-0.6,0.5c1-0.8,0.3,0.3,1.3-0.3c-0.2-0.1,0-0.2,0-0.3c0.6,0.1,1.8-0.2,2.7-0.5l-0.1,0.3c0.8-0.1,1.7-0.2,2.6-0.4
			c0.9-0.1,1.8-0.2,2.7-0.2c-0.7-0.1-0.5-0.6,0-0.6l0.2,0.4c0.4-0.2-0.6-0.2,0.2-0.5c0.7,0.1,0.5,0.5,0.1,0.6l0.9-0.1
			c0.1,0.1-0.2,0.2-0.2,0.3c0.4-0.2,1.4,0.5,2,0.1l0,0.1c1.8,0.3,2.7,0.2,4.2,0.6c0.1-0.3,0.7-0.1,1.2-0.3c0.5,0.2,1.1,0.5,1.6,0.8
			c0.5,0.3,1.2,0.5,1.8,0.8c0.9,0.2,0.4-0.2,0.9-0.2c-0.1,0.3,1.2,0.9,0.4,0.8c0.8,0.3,1.2,0.5,1.7,0.8c0.5,0.3,1.1,0.5,2,0.9
			c-0.1-0.2-0.3-0.4-0.1-0.4c0.4,0.1,0.6,0.6,0.5,0.7l-0.1,0c1.1,0.5,2.1,1.4,2.8,2.5c0.4,0.5,0.8,1,1.2,1.4c0.4,0.4,0.7,0.8,1.2,1
			l-0.1-0.1c0.5,0.4,1,0.8,1.5,1.2c0.5,0.7-0.5-0.3-0.3,0.4c0.8,0.7,1.3,1.3,1.7,2c0.4,0.7,0.7,1.3,1.3,2c-0.1,0.8,0.4,1.8,1,2.9
			c0.3,0.5,0.5,1.1,0.7,1.6c0.2,0.5,0.3,1.1,0.3,1.5l0.2-0.2c0.4,0.4,0.1,0.6,0.1,0.9c0.2-0.1,0.1-0.5,0.3-0.3
			c1.4,3.7,1.1,7.9,0.5,11.7c-0.3,1.4,1.1,1,0.2,2.7c-0.1-0.2-0.2-0.4-0.3-0.6c-0.1,3-1.5,5.7-2.4,8.4c0-0.2-0.1-0.3,0-0.5
			c-0.5,0.4-1.1,1.9-0.9,2.1c-0.3,0.4-0.2,0-0.5,0.1c-0.2,0.2-0.3,0.6-0.4,0.9c-0.1,0.3-0.3,0.6-0.5,0.7c-0.1,0,0-0.2,0.1-0.3
			c-0.1,0.4-1.1,1.4-0.6,1.4c-0.7,0.8-1.2,1.7-1.9,2.2c-0.1,0.7-1.4,1.2-1.1,1.8c-0.4-0.5-1.7,1.1-2,1.8c0.1-0.3-0.6,0.3-0.5-0.1
			c-0.6,0.6-1,1.2-0.7,1.3c-1.6,0.5-1.8,2.4-3,2.3c-0.8,0.9-1.5,1.8-2.3,2.5c-0.8,0.7-1.6,1.5-2.5,2.1c-0.3-0.5,1.9-1.4,1.4-1.9
			c-1.5,1.4-2.1,2.5-3.9,3.5c-0.5,0.2,0.1-0.4,0.2-0.5c-1.6,1.2-3.4,1.9-4.8,3.1c0-0.1,0.1-0.2,0.3-0.3c-0.3,0.2-0.7,0.3-0.6,0.5
			l0.3-0.2c0.3,0,0.1,0.4-0.2,0.7c-0.3,0.3-0.7,0.7-0.7,0.8c0.2-0.9-1.7,0.6-1.3-0.7c-0.2,0.1-0.4,0.4-0.3,0.5
			c-0.3,0.1-0.5,0.1-0.2-0.3c-1.1,0.7-0.6,0.7-1.6,1.2c-0.1-0.1,0.1-0.3,0.2-0.4c-0.4,0.5-0.9,1-1.8,1.2c0-0.1-0.1-0.1,0.2-0.2
			c-1.6,0.6-2.5,1.6-4.3,2c0.3-0.7-0.7,0-0.9-0.4c-0.3,0.1-0.6,0.3-0.9,0.4c0.2,0,0.3,0.1,0.4,0.1c-0.8,0.2-1.5,0.7-2.3,0.8l0.6-0.3
			l-1.6,0.5l0.9,0c-0.8,0.4,0.2,0.6-0.9,0.7c0.2-0.1-0.9,0.2-1.4,0c-0.4,0.2-0.8,0.5-1.4,0.5c-0.2-0.1,0-0.5-0.1-0.6
			c-0.3,0.4-2,0.4-2.5,0.9c0.2-0.1,0.1-0.4,0.1-0.4l-0.3,0.4c-0.4-0.1-0.5-0.1-0.4-0.3c-1.2,0.1,0.5,0.5-1,0.5
			c0.1,0,0.1-0.1,0.3-0.2c-0.7,0-1.4,0.2-2.1,0.3c-0.7,0.1-1.3,0.2-2,0.1c-0.4-0.5,1.1-0.2,0.7-0.5c-0.9,0.1-1.9,0.3-2.9,0.4
			c-0.5,0.1-1,0.2-1.5,0.2c-0.5,0-1,0-1.4,0l0.3,0.1c-0.3,0.7-1.4-0.4-2.3-0.1c0.2,0,0.3-0.4,0.3-0.3c-0.6-0.1-1.3-0.1-2,0
			c-0.4,0-0.8,0.1-1.2,0.1c-0.4,0-0.9,0-1.3,0l0.3-0.1c-0.7-0.3-1.9-0.4-2.7-0.6c-0.3,0.1-0.7,0-0.5,0.3c-0.6-0.3-1.2-0.5-1.7-0.6
			c-0.6-0.2-1.2-0.2-1.7-0.3c-1.1-0.1-2.3-0.2-3.3-0.9c0.3,0.1,0.7,0,0.4-0.1c-0.6-0.1-1.3-0.2-1.9-0.4c0.1,0.3,0.2,0.3,0.5,0.6
			c-0.3,0.1-0.8,0-1.3-0.1c0.9,0.1,0.1-0.5-0.2-0.7c0,0.1-0.1,0.2-0.1,0.3c-0.8-0.8-0.3,0.5-1.5-0.3l0.1-0.1c-0.5-0.1-1-0.1-1.5-0.3
			c-0.1-0.4,0.6,0,0.7-0.2c-0.7-0.2-1.7,0.1-2.2-0.5c0.3,0.1,0.8,0.2,1.1,0.2c-0.6-0.6-0.7-0.5-1.2-0.8l0.1,0l-1.1-0.7l0.3,0.2
			c-1.2,0.4-1.8-0.7-3.2-0.7c1.4,0,0.3-0.2,0.6-0.5c-0.3-0.2-0.6-0.5-0.5-0.6c-0.7,0-0.8-0.6-1.7-0.7c0-0.1-0.5-0.3-0.3-0.5
			c-0.7-0.3,0.1,0.3-0.1,0.4c-1.3-0.3-2.2-1.9-4-2.3c-1.4-0.6-1.8-0.5-3.1-1.1c-0.3-0.4,0.6-0.1,0.6-0.1c-0.5-0.6-1-0.9-1.7-1.2
			c0.2,0,0.1-0.2,0-0.4c-0.5-0.3-0.6,0.1-1.1-0.5c0.2,0,0.5-0.1,0.8-0.1c-0.6-0.3-1.3-0.5-1.9-0.9c0-0.3,0.5,0,0.8,0.1
			c-0.6-0.4-1.6-1.2-2-1.1l0.3,0.4c-0.2-0.2,0.1-0.3,0.3-0.2c0.7,0.2,0.7,0.7,0.6,0.9l-0.4-0.3c-0.1,0.4,0.4,0.8,0.8,1.1
			c0.5,0.3,1.2,0.5,1.5,0.8l-0.7,0.2l1.1,0.3c0.1,0.2,0,0.6-0.4,0.3c0.4,0.6,0.6,0.2,1,0.8c0,0.1,0,0.1-0.1,0.1l0.7,0.3
			c-0.2,0-0.1,0.4-0.4,0.1c0.9,1,1.9,0.9,2.1,1.5l-0.1,0c1.6,0.8,0.4-0.2,1.7,0.1l0.3,1.3l0.4-0.2c0.2,0.1,0.4,0.3,0.3,0.4
			c0.7,0.1,0-0.2,0.5-0.2c0.6,0.8,2.2,1.1,2.1,1.7c0.4-0.1-0.6-0.6,0.3-0.3c-0.1,0.8,1,0.4,1.6,1c-0.4,0.2-1-0.3-0.4,0.3
			c0.7-0.3,1.4,0.8,2.1,1c0.2-0.4,1.4,0.4,2.5,0.8c-0.1,0.1,1.9,1,2.9,1.5L79,129c0.4-0.4,1.4,0.1,2.1,0.2c-0.1,0.3-0.3,0.3-0.7,0.3
			l0.7,0.2c0.2-0.1,0.5-0.1,0.9,0l-0.3,0.3c1,0.2,2.1,0.1,3.3,0.6c0.1-0.3-0.8-1.1,0.6-1c0,0.2,0,0.5-0.4,0.5c0.1,0,0.4,0,0.7,0.1
			l-0.6,0.2c0.5,0.3,0.4-0.2,0.8,0c-0.1,0.2,0.3,0.3,0.2,0.4c-0.1,0-0.4-0.2-0.6-0.1c0.5,0.2,1.1,0.5,1.3,0.7c0-0.2,0.1-0.3,0.5-0.3
			c1,0.2,0.3,0.4,0.8,0.6c0.3-0.1,0.9,0.1,1-0.2c0.3,0,0.3,0.2,0.4,0.3c0.5-0.1,2.4,0.3,1.9-0.2l-0.1-0.1c0,0,0.1,0,0.1,0
			c0.9-0.1,1.7,0.1,2.6,0.3c0.9,0.1,1.7,0.3,2.6,0.2v0.1c1-0.1,2.2,0,3-0.2c0.3,0,0.7,0.3,0.6,0.4c0.8-0.1,0.9-0.3,2-0.1
			c-0.8,0.3,0.3,0.2-0.8,0.2c1,0.1,1.3,0.3,2.3-0.1c-0.4,0.3,0.8,0.4,1.3,0.3l-0.7-0.2c0.5-0.1,1-0.1,1.5-0.1l-0.2,0.4
			c1.1,0.2,2-0.2,2.8-0.5c0.8-0.3,1.6-0.5,2.5-0.2c0.5-0.4-1.1-0.1-0.7-0.5c0.9-0.1,2,0.4,2.3,0.3c1.3,0,1.1-0.9,2.4-1
			c-0.2-0.1-0.4-0.5,0.5-0.8c0.9-0.2,1.3,0.3,0.7,0.6c-0.2,0.1-0.3,0.1-0.3,0c-0.3,0.1-0.7,0.3-0.3,0.4l0.1-0.2c0.5,0,1.8-0.3,1.5,0
			c0.7-0.3,0.2-0.3-0.3-0.3c1.3-0.1,1.9-0.4,3.1-0.7c-0.2,0-0.4-0.1-0.3-0.2c1.8-0.4,0.7-0.5,1.8-1c0.7,0-0.1,0.6,1.1,0
			c0.8-0.1,0.3,0.3,0.1,0.5c1-0.7,2.1-0.5,2.7-0.8c-0.2,0.1-0.3,0.3-0.5,0.4c0.3-0.2,0.6-0.3,0.9-0.5l-0.4-0.1
			c0.3-0.1,0.6-0.2,0.7-0.1c0.3-0.3-0.4-0.3,0.1-0.9c0.5-0.1,1.2-0.8,1.5-0.5c-1.4,0.5,0.3,0.3-0.8,0.9c0.2-0.1,0.5-0.3,0.8-0.4
			c0.1,0,0,0.1-0.1,0.2c1.5-0.3,0.4-0.7,1.7-1.3c-0.1,0.3,0.5,0.2,0.7,0.1c-0.5,0.3-0.4-0.2,0-0.6c0.9-0.2,0.8-0.6,1.3-0.8l-0.5,0.2
			c0.1-0.3,0.5-0.5,1-0.9c0.1,0.1-0.4,0.4-0.2,0.4c0.4-0.7,1.6-0.5,2.4-1.2c0.5-0.1,0.3,0.3,0.7,0.2c0.8-0.9,1.3-0.3,2.1-1.3
			c-0.4-0.1-0.5,0.1,0.1-0.7c-0.5,0.5-1,0.9-1.5,1.3c0.3-0.3,0.6-0.7,0.8-1c-0.5,0.4-1,0.8-1.3,1c0.4-0.5,0.4-0.4,0-0.5
			c1,0,1.2-1.1,2.1-1.4l0.4,0.6c1.3-0.6,1.8-1.8,3.4-2.7L140,119c0-0.4,0.9-0.7,1.3-1.2c0.1,0.2,0.5,0.1,0.7,0
			c-0.1-0.1,1-0.9,0.8-1.4l0.8-0.3c1.2-0.9,0.8-1.7,1.9-2.6c-0.1,0.5,0.5,0.2-0.1,1c0.4-0.3,0.7-0.6,0.6-0.7
			c0.3-0.1,0.7-1.2,1.1-1.3c0.1-0.2-0.1-0.4,0.3-0.8c0.1,0,0.1,0.1,0.1,0.1c-0.1-0.1,0.5-0.7-0.1-0.6c0.8-0.2,1.5-0.9,2.2-1.7
			c0.7-0.8,1.3-1.5,2-1.8c0.6-0.9,1.3-2,1.8-2.7c0,0.1,0.1,0.1,0,0.2c1-0.9-0.2-1.1,0.8-2.2c0.7-0.4-0.2,0.8,0.2,0.5
			c0.8,0.2,0.9-1.6,1.7-2.3l-0.1,0.2c0.6-0.6,0.6-1.8,1-3c0,0,0.1,0.1,0.1,0.1c-0.1-1,0.3-2.5,0.4-3.7c0.2,0.4,0,0.6,0.4,0.4
			c0.1-0.5-0.5,0-0.4-1c0.3-0.3,0.6-1,1-1l-0.2,1c0.6-0.4,0.3-1.3,0.4-1.8l0.2,0.1c0.1-0.8,0-1.2-0.1-1.6c-0.1-0.4-0.1-0.9-0.1-1.7
			l-0.2,0.2c-0.4-0.9,0.3-0.8,0-1.7l0.5-0.3c-0.1-0.6-0.6-2.1-0.7-3.2c0.4,0.6,0.7,1.8,0.9,2.6c0-0.6-0.1-2.1-0.4-2.4
			c0.1,0.2,0.2,0.5,0.1,0.8c-0.4-0.7-0.7-1.7-0.9-2.8c0.5,0,0.4-0.7,0.3-1.7c-0.2-0.9-0.4-1.9-0.2-2.5c-0.9-2-1.1-4.1-2.3-6.4
			c-0.3,1.1-0.3-0.7-1-0.2c-0.3-0.5-0.4-0.7-0.4-0.7l-0.5-1.7c0-0.5,0.4,0.4,0.5,0.2c-0.6-1.1,0-0.7-0.3-1.5
			c-0.1,0.3-0.6-0.1-0.9-0.8l0.3,1c-1.4-1.2-0.4-1.7-1.8-2.8c0.2,0.1,0.4,0.2,0.6,0.3c-0.3-0.3-0.9-1-1.6-1.6
			c-0.6-0.6-1.3-1.1-1.9-1.2c-0.1-0.2-0.1-0.5,0.3-0.2c-1.6-1.6-4.2-2.7-5.4-3.9l0.2-0.1c-0.4-0.2-0.8-0.1-1.1-0.5
			c0.1-0.1,0.2-0.1,0.1-0.2c-0.2-0.1-1.1-0.3-1.5-0.6c0.2,0,0.3,0,0.5,0c-1.9-1.2-3.2-1-4.9-1.4c0.2-0.5-1.3-1.3-2.2-1.6l0.1-0.1
			c-1.2-0.3-2.3-0.5-3.4-0.5c-1.1,0-2.1,0-3.3,0.1c-0.7-0.3-1.9-0.5-3.3-0.4c-0.7,0-1.4,0-2,0.1c-0.7,0.1-1.3,0.1-1.9,0.1
			c0.4,0.1,0,0.4-0.4,0.6c-0.6-0.1-1.4,0.7-1.4,0.1l0.2,0c-0.5-0.4-1.6,0-2.4,0.2l0.1,0.7c-1.2-0.1-2.6,0.4-3.9,1.1
			c-1.2,0.7-2.3,1.2-3,1.2c-0.4,0.4-1,0.8-1.4,1.2l-0.2-0.3c-0.7,0.3-1.2,0.6-1.7,1c-0.5,0.4-1,0.8-1.8,1.4l0.2-0.4
			c-0.9,0.6-0.4,1.7-1.1,2.3l-0.6-0.2c-0.7,0.6-1.4,1.2-2.1,1.8c-0.7,0.6-1.3,1.2-1.7,2c0-0.1-0.1-0.2,0.1-0.4
			c-0.6,0.6-2.6,2-1.8,2.3c-0.4-0.3-1.3,1.3-1.9,2.1L96.4,70c-0.3,0.9-0.2,1-0.9,1.9c-0.2,0.2-0.4,0-0.1-0.2
			c-0.8,0.5-0.3,0.7-1.2,1.4l0.1-0.4c-0.7,0.6-0.5,0.7-0.7,1.2c-0.3,0.5-1.3,1.2-1.6,1c0.1,0.2-0.1,0.8-0.6,1.1
			c-0.1,0-0.1-0.2,0-0.3c-1.3,0.9-1.3,1.9-2.3,2.4C89.1,78,89,78,88.9,78c0.9-0.9,1.6-1.5,1.5-1.5c-0.2-0.2-1,0.4-0.7-0.4
			c-0.4,0.7-1,2.1-1.8,2.6c-0.1,0-0.1,0-0.2,0l0-0.1c-0.2,0.1-0.3,0.3-0.4,0.5c-0.3,0.2-0.4,0.3-0.6,0.5c-0.3-0.1-0.9,0.7-1.3,1
			c0.3,0.2-0.2,0.6,0.4,0.4c-0.1,0,0-0.1,0.3-0.3c0.1-0.1,0.1-0.1,0.1-0.2v0.1c0.2-0.2,0.5-0.5,0.8-0.9c-0.1,0.4-0.3,0.8-0.9,1
			c0,0.3-0.1,0.7-0.1,0.9c-0.8,0.1-1.9,0.9-2.3,0.8c-0.9,1.2-2.4,2.6-2.6,3.8c-0.2,0.4-0.5,0.2-0.7,0.3c0.1-0.2,0.3-0.4,0.4-0.6
			c-0.5,0.7-1.7,1.8-1.6,2.3c-0.9,0.6,0.1-0.7-0.9,0.4l0-0.2c-2.6,1.5-2.5,4.2-5.5,5.8c0.2-0.1,0.3-0.2,0.4-0.2
			c-2.9,2.3-5.1,5.7-8.1,7.7c-0.8,0.6-0.7,0.9-1,1.5l-0.4-0.1l-0.4,1.1c-0.9,1.3-2.5,1.2-3.5,3h0.4c-0.5,0.5-1.5,1.7-1.6,1.4
			c0,0.1,0,0.4-0.3,0.4l-0.2-0.1l-1,1.5c-1,0.8-0.4-0.7-1.8,0.6c-0.4,0.6-1,1.9-0.7,1.8c0.2-0.2,0.6-0.4,0.8-0.3l-0.4,0.5
			c0.1,0.1,0.2,0.3,0.2,0.4c-0.1-0.1-0.2-0.2-0.2-0.2c0.2,0.2,0.4,0.4,0.6,0.6c0,0,0.1,0,0.1,0c0.1,0,0.2,0,0.3,0
			c0.2,0,0.5-0.2,0.8-0.4l0.5-1l0.5-0.1l-0.7,0.7c0.6-0.2,0.6-0.6,0.8-1c0.2,0,0.4,0,0.6-0.1l0.4-1.2c0.3,0.1,0,0.7,0.6,0.2
			c0.2-0.5-0.7,0-0.2-0.7c0.6-0.2,0.6,0.1,0.9-0.5c0.2,0.1,0.1,0.2,0,0.4c0.3-0.5,1-1.1,1-1.5c0.6-0.2,1.3-1.4,1.6-1
			c0-0.2,0.4-1,0.7-1.4c-0.2,1.1,1.4-1.3,1.7-0.7c0.1-0.9,1.6-2,2.2-3.1c0,0.1,0,0.2-0.1,0.3c0.5-0.5,0.8-0.5,1.2-0.7
			c-0.3-0.4,0.4-1.3,0.6-1.9c0.9-0.3,0.1,0.8,0.6,0.9c-0.3-0.3,0.8-1.3,0.3-1.4c0.7-0.3,0.5-0.3,1-0.2C71,99,71.7,99,71.8,98.4
			c0.9-0.4,0.6,0.2,1.2-0.6C73.5,97.5,73,98.3,73,98.4L73,98.4z M89.7,80.2c-0.1,0.2-0.3,0.3-0.3,0.4C89.4,80.5,89.5,80.4,89.7,80.2
			z M91.1,78.7c-0.2,0.2-0.4,0.4-0.7,0.6c-0.1,0-0.2-0.2,0-0.3C90.4,79.1,90.8,78.9,91.1,78.7L91.1,78.7z M86.3,80
			c0.2-0.3,0.3-0.3,0.4-0.3c-0.1,0.1-0.2,0.3-0.4,0.4c0,0,0,0,0,0.1C86.3,80.2,86.2,80.1,86.3,80z"/>
		<path class="st1" d="M86.2,80.8c0,0,0,0.1-0.1,0.1c0.1,0,0.1-0.1,0.2-0.1c0-0.1,0-0.1,0-0.2C86.3,80.7,86.2,80.7,86.2,80.8z"/>
		<path class="st1" d="M91.5,131.6L91.5,131.6C91.5,131.6,91.5,131.6,91.5,131.6C91.5,131.6,91.5,131.6,91.5,131.6L91.5,131.6z"/>
		<path class="st1" d="M112.3,60.3L112.3,60.3l-0.2,0.1L112.3,60.3z"/>
		<path class="st1" d="M80.7,127.9c0,0,0-0.1-0.1-0.1C80.6,127.8,80.6,127.8,80.7,127.9z"/>
		<path class="st1" d="M76.1,126.2l-0.6-0.4C75.8,126,76,126.1,76.1,126.2z"/>
		<path class="st1" d="M72.8,124.4c-0.1,0-0.1,0.1-0.1,0.1L72.8,124.4z"/>
		<path class="st1" d="M129.7,122.9c0,0,0.1-0.1,0.1-0.1C130.1,122.6,129.9,122.7,129.7,122.9z"/>
		<path class="st1" d="M113.5,129.7c0.2-0.1,0.3-0.2,0.5-0.3C113.7,129.5,113.5,129.5,113.5,129.7z"/>
		<path class="st1" d="M144.9,110.7L144.9,110.7L144.9,110.7z"/>
		<path class="st1" d="M114.8,129.3c-0.3,0-0.6,0.1-0.8,0.2C114.3,129.4,114.6,129.4,114.8,129.3z"/>
		<path class="st1" d="M59.5,115.4l-0.1-0.1c0,0,0,0-0.1,0L59.5,115.4z"/>
		<path class="st1" d="M59.3,115.3l-0.2-0.1C59.2,115.3,59.3,115.4,59.3,115.3z"/>
		<path class="st1" d="M58.8,115l0.4,0.2C59,115.1,58.9,115,58.8,115z"/>
		<path class="st1" d="M63.2,118.6l0.1-0.1C63.4,118.6,63.3,118.6,63.2,118.6z"/>
		<path class="st1" d="M64.5,119.5c-0.3-0.2-0.6-0.8-1-1l-0.1,0.1C63.7,118.5,64.1,119.5,64.5,119.5z"/>
		<path class="st1" d="M69,124.2l-1.1-0.7c0.1,0.2,0.3,0.5-0.2,0.3C68.9,124.9,67.6,123.3,69,124.2L69,124.2z"/>
		<path class="st1" d="M72.5,126.2c-0.7-0.2-0.1,0.2-0.1,0.2C72.8,126.5,72.9,126.6,72.5,126.2z"/>
		<path class="st1" d="M100.5,132.6l-0.1,0.3C101,132.8,100.4,132.8,100.5,132.6z"/>
		<path class="st1" d="M105.9,130.6l-0.5-0.2l-0.2,0.3L105.9,130.6z"/>
		<path class="st1" d="M109.3,132.5l-0.2,0.1l0.9-0.2L109.3,132.5z"/>
		<path class="st1" d="M151.1,108.9l-0.4-0.1C150.5,109.1,150.8,109.4,151.1,108.9z"/>
		<path class="st1" d="M159,89.3c0.2-0.2,0.4-0.8,0.2-1.2C159.1,88.6,159,89.1,159,89.3z"/>
		<path class="st1" d="M116.1,55.2l0.4-0.3l-0.8,0.4L116.1,55.2z"/>
		<g class="st2">
			<path class="st1" d="M100.2,48.4c8.4,0,15.2-6.8,15.2-15.2c0-8.4-6.8-15.2-15.2-15.2S85,24.8,85,33.2
				C85,41.6,91.8,48.4,100.2,48.4z"/>
			<path class="st1" d="M114.6,33.2c0.1,0.1,0.4,0,0.3-0.1l-0.4-0.1L114.6,33.2L114.6,33.2z"/>
			<path class="st1" d="M115.3,32.3c-0.2-0.2-0.6-0.3-1-0.2c0.4,0.1,0.2,0.2,0.7,0.3c0.1,0.1-0.1,0.2-0.3,0.2c0.1,0-0.1,0.2,0.2,0.3
				c0.3-0.2,0.3-0.4,0-0.6C115.1,32.3,115.3,32.3,115.3,32.3L115.3,32.3z"/>
			<path class="st1" d="M109.4,20.4L109.4,20.4C109.4,20.5,109.4,20.4,109.4,20.4z"/>
			<path class="st1" d="M101.3,17.2c0.1,0,0.1-0.1,0.1-0.1C101.3,17.2,101.3,17.2,101.3,17.2z"/>
			<path class="st1" d="M99.8,16.7C99.8,16.7,99.8,16.8,99.8,16.7C99.8,16.7,99.8,16.7,99.8,16.7z"/>
			<path class="st1" d="M109.4,20.4l-0.1-0.2C109.2,20.2,109.3,20.3,109.4,20.4z"/>
			<path class="st1" d="M114.1,30.6c0,0,0.1,0.1,0.1,0.1C114.2,30.7,114.2,30.7,114.1,30.6L114.1,30.6L114.1,30.6z"/>
			<path class="st1" d="M112.5,22.7L112.5,22.7c0.1,0.1,0.2,0,0.2,0L112.5,22.7L112.5,22.7z"/>
			<path class="st1" d="M114.3,25.1c0-0.1-0.3,0.1-0.5,0.2c0.1,0,0.2,0,0.3,0C114.1,25.3,114.2,25.2,114.3,25.1z"/>
			<path class="st1" d="M115.4,29.7L115.4,29.7C115.5,29.8,115.4,29.8,115.4,29.7z"/>
			<path class="st1" d="M111,21.1c0,0,0.1-0.1,0.1-0.1C111,21.1,111,21.1,111,21.1z"/>
			<path class="st1" d="M113.4,36.1C113.4,36.1,113.5,36.1,113.4,36.1C113.5,36.1,113.4,36.1,113.4,36.1z"/>
			<path class="st1" d="M115.5,33.2L115.5,33.2l0.2,0.1L115.5,33.2z"/>
			<path class="st1" d="M96.8,16.6L96.8,16.6C96.9,16.5,96.9,16.6,96.8,16.6z"/>
			<path class="st1" d="M83.9,36.8c0.2-0.3,0.5,0.4,0.8-0.1C84.5,36.7,84,36.4,83.9,36.8z"/>
			<path class="st1" d="M114.1,30.6c0,0,0-0.1,0-0.1C114.1,30.5,114.1,30.5,114.1,30.6z"/>
			<path class="st1" d="M84.7,36.6L84.7,36.6C84.7,36.6,84.7,36.6,84.7,36.6z"/>
			<path class="st1" d="M90.8,19.4c0,0,0.1,0.1,0.1,0.1C90.9,19.4,90.9,19.4,90.8,19.4z"/>
			<path class="st1" d="M89.1,21.4c-0.1,0-0.1,0-0.2,0.1c0,0,0,0,0.1,0C89,21.4,89,21.4,89.1,21.4z"/>
			<path class="st1" d="M87.4,23.3C87.4,23.3,87.4,23.3,87.4,23.3l0.1-0.1L87.4,23.3L87.4,23.3z"/>
			<path class="st1" d="M110.7,42.1c0.1,0,0.2,0.1,0.3,0.1C110.8,42.1,110.9,41.8,110.7,42.1z"/>
			<path class="st1" d="M114.3,30.6c-0.1,0-0.1,0-0.2,0c0,0,0,0.1,0,0.1C114.2,30.6,114.3,30.6,114.3,30.6L114.3,30.6z"/>
			<path class="st1" d="M91,23.5l-0.3,0.2C90.8,23.7,90.9,23.6,91,23.5z"/>
			<path class="st1" d="M96.4,46.4L96.4,46.4C96.5,46.4,96.4,46.4,96.4,46.4z"/>
			<path class="st1" d="M90.1,24.5c-0.1,0-0.2,0-0.3,0c0,0,0,0.1,0,0.1L90.1,24.5z"/>
			<path class="st1" d="M111.6,39.9c-0.2,0.3,0.3,0.4,0.5,0.6c-0.1,0.4-0.4,0-0.7,0c0,0.3,0.2,0.7,0.1,0.8c-0.1,0-0.1,0-0.2-0.1
				c0.1,0.4-0.4,0.6-0.3,1.2c-0.1,0-0.1,0-0.1-0.1c0.2,0.1,0.4,0.3,0.5,0.4c-0.1,0.1,0,0.4-0.2,0.3c0.1-0.1,0-0.2-0.1-0.3v0.2
				c-0.4-0.2,0-0.3-0.2-0.5c-0.1,0.3-0.1,0.8-0.3,0.9c-0.3-0.3,0.3-0.5-0.2-0.5l0.4-0.2c-0.7-0.2,0.2-0.1-0.5-0.4
				c-0.4,0.3-0.2,0.5-0.6,0.8c0.1,0.2,0.3,0.2,0.4,0.5c-0.2,0.8-1.1-0.4-1.1,0.3c0.1,0.3,0.4,0.8-0.1,0.8l-0.2-0.5
				c-0.4,0.2,0.2,0.7-0.4,0.8c0-0.2,0.2-0.4,0.1-0.4c-0.5-0.1,0,0.4-0.2,0.5l-0.3-0.3c-0.4,0.3-0.7,0.9-1.1,1.2c0-0.1,0-0.3-0.2-0.4
				c-0.3,0.2-0.6,0.4-1,0.5c-0.4,0.1-0.8,0.1-1.1,0.1l-0.1,0.4c0,0-0.2-0.1-0.1-0.2c-0.3-0.1,0.1,0.2,0,0.4
				c-0.1,0.1-0.2-0.2-0.2-0.3c-0.3,0.4-1.1,1-1.7,0.7l0.1-0.1c-0.4-0.1-0.3,0.8-0.7,0.5l0.1-0.1c-0.8-0.1-1.8,0.3-2.4-0.3
				c-0.2,0.5-0.8-0.3-0.9,0.4c-0.4-0.4-0.3-0.6-0.9-0.9c-0.2-0.1-0.3,0.4-0.6,0.4l0.1-0.4l-0.4,0.3l0-0.5l-0.2,0.1
				c0.1,0,0.1,0.2,0.1,0.3c-0.4,0.1-0.7-0.5-0.6-0.7l-0.8,0.1c0.1-0.1,0.2-0.2,0.3-0.2c-0.5,0.2,0.1-0.4-0.4-0.2
				c0,0.1-0.1,0.2-0.2,0.3c-0.1-0.3-0.4-0.5-0.8-0.5l0.2-0.2c-0.5-0.3-1.1-0.4-1.6-0.7c0.1,0.2-0.2,0.6-0.4,0.5l0.2-0.4
				c-0.2,0.2,0.1,0.2-0.3,0.4c-0.2-0.2,0.1-0.5,0.3-0.5l-0.3-0.1c0.1-0.1,0.2-0.1,0.3-0.2c-0.2,0.1-0.1-0.6-0.5-0.4l0.1-0.1
				c-0.5-0.3-0.8-0.5-1.1-0.8c-0.3,0.3-0.3,0.1-0.7,0.2c-0.2-0.4-0.2-0.9-0.6-1.2c-0.3-0.1-0.3,0.1-0.5,0.1c0.2-0.2-0.1-0.6,0.3-0.5
				c-0.3-0.4-0.5-0.5-1.1-0.9c-0.1,0.1-0.1,0.2-0.2,0.3c-0.1-0.1,0-0.3,0.1-0.4h0.1c-0.9-0.4,0-2-0.8-2.2l0,0L87,37.9
				c-0.1-0.3,0.3,0.1,0.4-0.2c-0.8-0.5-0.2-1-0.7-1.5c0.4-0.3,0.4-0.7,0.2-1.1c-0.1-0.4-0.3-0.8,0-1.1l-0.2,0.1
				c-0.2-0.1,0.1-0.2,0.2-0.3c-0.2,0-0.2,0.2-0.3,0.1c-0.4-1.3,0.4-2.6,0.9-3.8c0.2-0.4-1.1-0.6-0.4-1l0.4,0.3
				c-0.1-0.5,0.1-1,0.3-1.4c0.2-0.4,0.4-0.9,0.5-1.4c0.1,0.1,0.2,0.2,0.1,0.2c0.4,0,0.4-0.6,0.2-0.8c0.1-0.1,0.2,0.1,0.4,0.1
				c0.3-0.1-0.1-0.6,0.2-0.5c0.1,0,0.1,0.1,0.1,0.1c-0.1-0.2,0.4-0.5,0-0.6c0.3-0.2,0.3-0.7,0.6-0.7c-0.2-0.4,0.5-0.3,0.2-0.7
				c0.4,0.4,0.7-0.1,0.7-0.5c0.1,0.2,0.3,0,0.4,0.2c0.2-0.2,0.3-0.4,0.1-0.6c0.8,0.2,0.4-1,1.1-0.5c0.2-0.4,0.4-0.7,0.7-0.9
				c0.3-0.3,0.5-0.6,0.8-0.8c0.2,0.5-0.7,0.4-0.3,0.9c0.4-0.6,0.6-1.1,1.2-1.3c0.2,0,0,0.3,0,0.4c0.5-0.5,1.2-0.4,1.6-0.9
				c0,0.1,0,0.1-0.1,0.2c0.1-0.1,0.3,0,0.2-0.2l-0.1,0.1c-0.3-0.3,0.2-0.9,0.2-1.1c0,0.8,0.6,0,0.5,1c0.1-0.1,0.1-0.2,0.1-0.4
				c0.1,0,0.2,0.1,0.1,0.3c0.4-0.2,0.2-0.5,0.5-0.5c0,0.1-0.1,0.2-0.1,0.3c0.1-0.3,0.3-0.5,0.6-0.5c0,0.1,0,0.2-0.1,0.2
				c0.5-0.1,0.9-0.7,1.5-0.5c-0.2,0.6,0.2,0.2,0.3,0.7c0.1-0.1,0.2-0.1,0.3-0.1l-0.1-0.2c0.3,0,0.5-0.3,0.8-0.1l-0.2,0.2l0.5-0.1
				l-0.3-0.2c0.3-0.2,0-0.6,0.4-0.4c-0.1,0.1,0.3,0,0.4,0.3c0.2-0.1,0.3-0.3,0.5-0.1c0,0.2-0.1,0.5-0.1,0.6c0.2-0.4,0.7,0,0.9-0.4
				c-0.1,0.1-0.1,0.3-0.1,0.4l0.2-0.3c0.1,0.1,0.1,0.2,0.1,0.4c0.4,0.2,0-0.6,0.4-0.2c0,0,0,0.1-0.1,0.1c0.4,0.3,1,0,1.4,0.4
				c0,0.5-0.4,0-0.4,0.4c0.6,0.1,1.4-0.1,2,0.3l-0.1-0.1c0.4-0.6,0.3,0.5,0.7,0.4c-0.1,0-0.3,0.3-0.2,0.2c0.3,0.3,0.8,0.3,1.5,0.5
				l-0.2,0.1c0.1,0.3,0.5,0.5,0.6,0.7c0.2-0.1,0.3,0,0.4-0.2c0,0.6,0.4,0.8,0.8,1c0.4,0.1,0.8,0.3,0.7,0.9c-0.1-0.1-0.3-0.1-0.2,0
				l0.5,0.4c0.2-0.2,0.1-0.2,0.2-0.4c0.2-0.1,0.4,0,0.5,0.1c-0.4-0.1-0.4,0.3-0.4,0.5c0.1-0.1,0.2-0.1,0.2-0.2
				c-0.2,0.6,0.5-0.3,0.5,0.3l-0.1,0.1c0.2,0.1,0.4,0.1,0.5,0.3c-0.2,0.3-0.2-0.1-0.5,0.1c0.2,0.2,0.9,0,0.7,0.4
				c-0.1,0-0.2-0.2-0.4-0.2c-0.2,0.4-0.1,0.4-0.1,0.6v0l0.1,0.5l0-0.2c0.9-0.2,0.5,0.5,1.2,0.6c-0.7-0.1-0.3,0.1-0.7,0.2
				c-0.1,0.2-0.1,0.3-0.2,0.4c0.4,0-0.1,0.4,0.5,0.5c-0.1,0.1,0.1,0.2-0.2,0.3c0.2,0.2,0.2-0.1,0.3-0.2c0.6,0.2-0.2,1.1,0.6,1.4
				c0.4,0.4,0.8,0.4,1.1,0.8c-0.2,0.2-0.5,0-0.5,0c-0.1,0.3,0,0.5,0.2,0.7c-0.1,0-0.2,0-0.3,0.1c0.1,0.2,0.5,0.1,0.3,0.3
				c-0.1,0-0.4,0-0.5-0.1c0.1,0.2,0.4,0.4,0.6,0.6c-0.2,0.1-0.3-0.1-0.5-0.2c0.1,0.2,0.3,0.6,0.6,0.7l0.1-0.2c0,0.1-0.3,0.1-0.4,0
				c-0.3-0.2,0.1-0.3,0.2-0.4l0.1,0.2c0.7-0.3-0.2-0.7-0.2-1l0.5,0.1l-0.5-0.3c0.1-0.1,0.4-0.2,0.5-0.1c0.2-0.3-0.2-0.2,0-0.5
				c0,0,0.1,0,0.1,0l-0.2-0.2c0.1,0,0.4-0.1,0.3,0c0.2-0.5-0.6-0.6-0.2-0.9l0,0c-0.4-0.5-0.4,0.1-1-0.2l0.8-0.6l-0.4,0.1
				c0-0.1,0-0.2,0.1-0.2c-0.3-0.1-0.1,0.1-0.4,0.1c0.2-0.4-0.5-0.7,0.1-1c-0.3,0-0.1,0.4-0.4,0.2c0.6-0.4-0.3-0.3-0.1-0.7
				c0.3-0.1,0.3,0.3,0.4-0.2c-0.6,0.1-0.1-0.6-0.4-0.7c-0.4,0.2-0.4-0.4-0.8-0.6c0.2-0.1-0.2-0.8-0.3-1.2l0.1,0
				c-0.4,0.2-0.6-0.2-0.8-0.3c0.2-0.2,0.3-0.2,0.5-0.2l-0.2-0.2c-0.2,0.1-0.3,0-0.4-0.1l0.3-0.2c-0.3-0.3-0.8-0.3-1-0.8
				c-0.2,0.2-0.4,0.9-0.9,0.7c0.1-0.1,0.3-0.4,0.4-0.3c-0.1,0-0.2,0-0.2-0.1l0.3-0.1c-0.1-0.2-0.3,0.1-0.4,0c0.2-0.2,0-0.2,0.2-0.3
				c0.1,0,0,0.2,0.2,0.2c-0.1-0.2-0.2-0.4-0.1-0.6c-0.1,0.1-0.2,0.3-0.4,0.2c-0.3-0.2,0.1-0.3,0-0.6c-0.2,0.1-0.3-0.2-0.5,0.1
				c-0.1-0.1,0-0.2,0-0.3c-0.3,0-0.7-0.5-0.8,0l0,0.1c0,0,0,0,0,0c-0.7-0.1-0.9-0.9-1.5-1.1l0.1-0.1c-0.4-0.1-0.8-0.3-1.1-0.2
				c-0.1-0.1-0.1-0.3,0-0.4c-0.3,0-0.4,0.1-0.7-0.3c0.3-0.1,0-0.2,0.3-0.1c-0.3-0.2-0.3-0.4-0.8-0.3c0.2-0.3-0.1-0.5-0.3-0.4
				l0.2,0.3c-0.2,0-0.3-0.1-0.5-0.2l0.2-0.4c-0.6-0.7-1.5,0.5-1.9-0.5c-0.3,0.3,0.4,0.3,0.1,0.6c-0.3-0.1-0.6-0.8-0.7-0.8
				c-0.5-0.3-0.5,0.5-1,0.3c0.1,0.2,0.1,0.6-0.3,0.7c-0.3-0.1-0.4-0.7-0.2-0.8c0.1,0,0.1,0,0.1,0.1c0.1-0.1,0.3-0.1,0.1-0.3
				l-0.1,0.2c-0.2-0.2-0.7-0.2-0.5-0.4c-0.3,0.1-0.1,0.2,0.1,0.3c-0.4-0.2-0.7-0.1-1.2-0.2c0.1,0.1,0.1,0.3,0.1,0.3
				c-0.7-0.2-0.3,0.3-0.7,0.4c-0.3-0.2,0.1-0.5-0.4-0.3c-0.3-0.1-0.1-0.4,0-0.5c-0.4,0.3-0.8-0.1-1.1-0.1l0.2-0.2
				c-0.1,0.1-0.2,0.1-0.4,0.1l0.2,0.3c-0.1,0-0.3,0-0.3-0.1c-0.1,0.2,0.2,0.5,0,0.8c-0.2-0.1-0.5,0.2-0.6-0.1c0.6,0-0.1-0.4,0.3-0.5
				c-0.1,0.1-0.2,0.1-0.3,0.1c0,0,0-0.1,0-0.1c-0.6-0.2-0.2,0.5-0.7,0.6c0-0.2-0.2-0.4-0.3-0.3c0.2-0.1,0.2,0.3,0.1,0.6
				c-0.4-0.1-0.3,0.2-0.5,0.2l0.2,0c0,0.2-0.2,0.2-0.4,0.4c-0.1-0.2,0.2-0.2,0.1-0.2c-0.1,0.5-0.7-0.2-1,0.2
				c-0.2-0.1-0.2-0.4-0.4-0.4c-0.3,0.4-0.5-0.1-0.9,0.3c0.2,0.2,0.2,0.1,0.1,0.5l0.6-0.5l-0.2,0.6c0.2-0.1,0.3-0.4,0.5-0.4
				c-0.1,0.3-0.1,0.2,0.1,0.4c-0.4-0.3-0.4,0.5-0.8,0.4l-0.3-0.7c-0.7-0.1-0.7,0.8-1.3,1h0.3c0.1,0.3-0.3,0.3-0.4,0.5
				c-0.1-0.2-0.3-0.2-0.5-0.3c0.1,0.2-0.4,0.3-0.2,0.7l-0.4-0.1c-0.5,0.2-0.1,0.9-0.5,1.2c-0.1-0.3-0.4-0.3-0.2-0.7
				c-0.1,0.1-0.3,0.2-0.2,0.3c-0.2-0.1-0.1,0.6-0.4,0.5c0,0.1,0.2,0.3,0,0.4C89,22,89,21.9,89,21.9c0.1,0.1-0.1,0.3,0.2,0.4
				c-0.9-0.1-1,1.1-1.7,1c-0.2,0.4-0.4,0.8-0.5,1.1c-0.1-0.1-0.1-0.1-0.1-0.1c-0.4,0.3,0.5,0.6,0,0.9c-0.5,0,0-0.4-0.3-0.3
				c-0.7-0.4-0.3,0.6-0.8,0.7v-0.1c-0.4,0.1,0,0.8-0.3,1.1c0,0-0.1-0.1-0.1-0.1c0.2,0.4,0.2,1,0.1,1.5c-0.3-0.2-0.1-0.2-0.4-0.3
				c0,0.2,0.5,0.1,0.5,0.5c-0.2,0.1-0.5,0.3-0.8,0.2c0-0.1,0.1-0.2,0.1-0.4c-0.5,0-0.1,0.5-0.3,0.6l-0.2-0.1
				c-0.1,0.6,0.4,0.7,0.2,1.3l0.2,0c0.4,0.4-0.3,0.2,0,0.6h-0.5c0.1,0.3,0.4,0.8,0.4,1.2c-0.4-0.3-0.5-0.7-0.7-1
				c0,0.2-0.1,0.8,0.2,0.9c0-0.1-0.1-0.2-0.1-0.3c0.3,0.3,0.5,0.7,0.5,1.1c-1-0.1-0.3,1.1-1,1.4c0.2,0.4,0.2,0.8,0.1,1.2
				c0,0.4-0.1,0.8,0,1.3c0.7-0.5,0.1,0.3,0.8,0.1c0.1,0.2,0.1,0.3,0.1,0.3l-0.3,0.7c-0.2,0.2-0.2-0.2-0.4-0.1
				c0.1,0.5-0.3,0.3-0.4,0.6c0.3-0.1,0.4,0.1,0.4,0.3l0.3-0.5c0.5,0.5-0.5,0.7,0.2,1.3L84.1,39c0.3,0.3,0.4,1.2,1.2,1.3
				c-0.1,0.1-0.2,0.3-0.3,0.1c0.3,0.8,1.4,1.3,1.4,2l-0.2,0.1c0.1,0.1,0.4,0,0.4,0.3c-0.1,0-0.2,0.1-0.2,0.1c0.1,0,0.5,0.1,0.5,0.4
				h-0.3c0.3,0.8,1.1,0.6,1.7,1c-0.4,0.4-0.1,1,0,1.3l-0.1,0.1c0.7,0.7,1.5,0.7,2.3,1c0.1,0.8,1.3,1.2,1.9,1.9
				c-0.1-0.2,0.2-0.4,0.4-0.4c0.1,0.2,0.7-0.1,0.4,0.3l-0.1,0c-0.1,0.5,0.4,0.6,0.7,0.7l0.3-0.6c0.2,0.6,0.8,0.7,1.3,0.8
				c0.5,0,1,0,1.1,0.5c0.2-0.1,0.5-0.1,0.7-0.2l-0.1,0.4c0.5,0.2,0.8,0.3,1.5,0.3l-0.2,0.3c0.4,0.1,0.6-1,0.9-1l0.1,0.5
				c0.7,0.1,1.4,0.4,2-0.1c0,0.1,0,0.2-0.1,0.3c0.3,0,1.3,0.2,1.1-0.5c0.1,0.5,0.7-0.1,1-0.3v0.4c0.2-0.5,0.2-0.6,0.6-0.9
				c0.1,0,0.2,0.3,0,0.2c0.4,0.1,0.2-0.4,0.6-0.3l-0.1,0.3c0.3-0.1,0.3-0.2,0.4-0.5c0.2-0.2,0.6-0.1,0.8,0.2c0-0.2,0.1-0.5,0.3-0.5
				c0.1,0.1,0,0.2,0,0.2c0.6,0,0.6-0.7,1.1-0.6c0.1,0.1,0.1,0.1,0.2,0.2c-0.4,0.2-0.8,0.3-0.7,0.3c0.1,0.3,0.5,0.2,0.4,0.7
				c0.2-0.4,0.4-1.1,0.8-1.1c0,0,0.1,0,0.1,0.1V48c0.1,0,0.1-0.1,0.2-0.2c0.1,0,0.2,0,0.3-0.1c0.2,0.2,0.4-0.1,0.6-0.2
				c-0.2-0.3,0-0.4-0.3-0.5c0,0,0,0.1-0.1,0.1c0,0,0,0.1-0.1,0.1v0c-0.1,0.1-0.2,0.2-0.4,0.3c0-0.2,0.1-0.4,0.4-0.4
				c0-0.2-0.1-0.5-0.1-0.6c0.5,0.3,1,0.3,1.3,0.5c0.3-0.5,1-0.9,0.8-1.7c0.1-0.2,0.3,0,0.4,0.1c0,0.1-0.1,0.2-0.1,0.3
				c0.1-0.3,0.7-0.7,0.4-1.1c0.4-0.1,0.1,0.5,0.5,0l0.1,0.2c0.6-0.1,0.7-0.7,0.8-1.2c0.1-0.5,0.1-1,0.9-1.2c-0.1,0-0.1,0.1-0.2,0
				c1.1-0.9,1.1-2.5,2.1-3.5c0.3-0.3,0-0.5-0.2-0.7l0.4,0l-0.3-0.5c-0.2-0.6,1.2-0.7,0.7-1.6l-0.3,0.1c0.1-0.2,0-0.8,0.3-0.7
				c0,0-0.3-0.1-0.1-0.2h0.2c-0.1-0.2-0.2-0.4-0.3-0.6c0.2-0.5,0.8,0.1,0.9-0.6c-0.1-0.3-0.5-0.8-0.7-0.7c0,0.1-0.1,0.3-0.3,0.3
				l-0.1-0.2c-0.6-0.1-1.2-0.2-1.6,0.3l0.3,0.4l-0.3,0.1v-0.3c-0.3,0.2-0.1,0.3,0.1,0.4c-0.2,0-0.3,0.1-0.3,0.1l0.5,0.4
				c-0.2,0-0.4-0.2-0.6,0c0.2,0.2,0.5-0.1,0.7,0.2c-0.3,0.1-0.5,0.1-0.3,0.3c-0.2,0-0.2-0.1-0.3-0.1c0.2,0.2,0,0.5,0.3,0.6
				c-0.3,0.1,0,0.6-0.6,0.5c0.1,0.1,0.4,0.4,0.3,0.6c-0.6-0.5-0.2,0.6-0.9,0.3c0.5,0.4,0,0.8,0.2,1.3c0,0-0.1-0.1-0.1-0.1
				c-0.1,0.2-0.3,0.2-0.5,0.3c0.4,0.2,0.4,0.6,0.6,0.9c-0.6,0-0.5-0.4-0.9-0.5c0.4,0.2,0.2,0.6,0.5,0.7c-0.4,0.1-0.2,0.1-0.6,0
				c0.5,0.3,0,0.2,0.3,0.5c-0.4,0.1-0.5-0.2-0.5,0.2C111.6,40.2,111.6,39.9,111.6,39.9L111.6,39.9z M106.8,45.9c0,0,0.1-0.1,0.1-0.1
				C106.9,45.8,106.8,45.8,106.8,45.9z M106.1,46.2c0.1,0,0.2-0.1,0.3-0.1c0.1,0.1,0.1,0.2,0,0.3C106.5,46.2,106.3,46.2,106.1,46.2
				L106.1,46.2z M108.7,47.7c-0.1,0.1-0.2,0.1-0.2,0c0.1,0,0.1-0.1,0.2-0.2v-0.1C108.6,47.5,108.7,47.6,108.7,47.7L108.7,47.7z"/>
			<path class="st1" d="M108.6,47.2C108.6,47.2,108.6,47.1,108.6,47.2C108.6,47.1,108.6,47.1,108.6,47.2L108.6,47.2L108.6,47.2z"/>
			<path class="st1" d="M97.2,46.4L97.2,46.4L97.2,46.4L97.2,46.4z"/>
			<path class="st1" d="M111.5,24.1c0,0,0,0.1,0,0.1C111.4,24.2,111.5,24.1,111.5,24.1z"/>
			<path class="st1" d="M112.4,25.4v0.3C112.4,25.6,112.4,25.5,112.4,25.4z"/>
			<path class="st1" d="M112.8,26.6c0,0,0.1,0,0.1-0.1L112.8,26.6L112.8,26.6z"/>
			<path class="st1" d="M96.2,20C96.2,20,96.2,20,96.2,20C96.1,20.1,96.1,20.1,96.2,20z"/>
			<path class="st1" d="M101.9,18.7c-0.1,0.1-0.1,0.1-0.2,0.1C101.8,18.8,101.9,18.9,101.9,18.7z"/>
			<path class="st1" d="M91,23.5L91,23.5L91,23.5z"/>
			<path class="st1" d="M101.4,18.8c0.1,0.1,0.2,0.1,0.3,0C101.6,18.8,101.5,18.7,101.4,18.8z"/>
			<path class="st1" d="M114.2,31.7L114.2,31.7C114.2,31.8,114.3,31.8,114.2,31.7L114.2,31.7z"/>
			<path class="st1" d="M114.3,31.8L114.3,31.8C114.3,31.8,114.3,31.8,114.3,31.8z"/>
			<path class="st1" d="M114.4,32l-0.1-0.1C114.3,31.8,114.3,32,114.4,32z"/>
			<path class="st1" d="M114,29.6c0,0.1-0.2,0.4-0.1,0.5h0.1C113.8,30.1,114.2,29.7,114,29.6z"/>
			<path class="st1" d="M114.8,27c0,0.2,0.1,0.3,0.1,0.5c0.1-0.1,0.2-0.3,0.3-0.1C115.4,26.7,115,27.6,114.8,27z"/>
			<path class="st1" d="M114.3,25.6c0.2,0.2,0.2-0.1,0.3-0.1C114.4,25.4,114.4,25.4,114.3,25.6z"/>
			<path class="st1" d="M106.8,18.6l0.2-0.3C106.7,18.3,106.9,18.4,106.8,18.6z"/>
			<path class="st1" d="M104.4,19.5l0.1,0.2l0.2-0.3C104.6,19.5,104.5,19.5,104.4,19.5z"/>
			<path class="st1" d="M103.9,17L103.9,17h-0.3H103.9z"/>
			<path class="st1" d="M87.4,22.7l0.3,0.2C87.8,22.8,87.5,22.5,87.4,22.7z"/>
			<path class="st1" d="M84.4,29.8c-0.2,0-0.4,0.2-0.2,0.4C84.3,30.1,84.4,29.9,84.4,29.8z"/>
			<path class="st1" d="M94.4,49l-0.2,0.1h0.3L94.4,49z"/>
		</g>
		<path class="st1" d="M101,131.8c-0.1,0-0.4,0-0.3,0.1l0.4,0.1L101,131.8z"/>
		<path class="st1" d="M100.2,132.3c0.2,0.1,0.6,0.2,1,0.1c-0.4-0.1-0.2-0.1-0.7-0.2c-0.1-0.1,0.1-0.1,0.3-0.1
			c-0.1,0,0.1-0.1-0.2-0.2c-0.3,0.1-0.3,0.2-0.1,0.4C100.5,132.3,100.3,132.3,100.2,132.3L100.2,132.3z"/>
		<path class="st1" d="M99.6,139.6L99.6,139.6C99.6,139.6,99.6,139.6,99.6,139.6z"/>
		<path class="st1" d="M99.4,144.2C99.4,144.2,99.3,144.1,99.4,144.2C99.3,144.2,99.3,144.2,99.4,144.2z"/>
		<path class="st1" d="M98.9,145C98.9,145,98.9,144.9,98.9,145C98.9,144.9,98.9,145,98.9,145z"/>
		<path class="st1" d="M99.6,139.6l-0.1,0.1C99.6,139.8,99.6,139.7,99.6,139.6z"/>
		<path class="st1" d="M101.3,133.3c0,0-0.1-0.1-0.1-0.1C101.2,133.2,101.2,133.2,101.3,133.3C101.2,133.3,101.2,133.3,101.3,133.3z
			"/>
		<path class="st1" d="M99.2,137.6L99.2,137.6c0,0-0.1-0.1-0.2-0.1L99.2,137.6z"/>
		<path class="st1" d="M99.2,136.1c0,0,0.3,0.1,0.5,0.1c-0.2,0-0.2-0.1-0.2-0.1C99.4,136.1,99.3,136.1,99.2,136.1z"/>
		<path class="st1" d="M99.8,133.6L99.8,133.6C99.8,133.6,99.8,133.6,99.8,133.6z"/>
		<path class="st1" d="M99.2,138.7c0,0-0.1,0-0.1,0C99.1,138.7,99.1,138.7,99.2,138.7z"/>
		<path class="st1" d="M100.1,183.7L100.1,183.7c-0.1,0-0.2,0-0.2,0L100.1,183.7L100.1,183.7z"/>
		<path class="st1" d="M98.4,146.4C98.4,146.4,98.4,146.4,98.4,146.4L98.4,146.4z"/>
		<path class="st1" d="M98.7,159.5c0.3-0.2,0.4,0.2,0.8,0C99.3,159.5,98.9,159.3,98.7,159.5z"/>
		<path class="st1" d="M99.5,159.5L99.5,159.5C99.5,159.5,99.5,159.5,99.5,159.5z"/>
		<path class="st1" d="M98.7,149.7c0,0,0.1,0,0.2,0C98.8,149.6,98.7,149.6,98.7,149.7z"/>
		<path class="st1" d="M99.2,147.2L99.2,147.2C99.1,147.3,99.1,147.3,99.2,147.2z"/>
		<path class="st1" d="M99.2,151C99.2,151,99.1,151,99.2,151C99.1,151,99.2,151,99.2,151C99.1,151,99.1,151,99.2,151z"/>
		<path class="st1" d="M99.2,152.3C99.2,152.3,99.2,152.3,99.2,152.3C99.2,152.2,99.2,152.2,99.2,152.3L99.2,152.3z"/>
		<path class="st1" d="M101.7,177.9c-0.1,0-0.2,0.1-0.3,0.1C101.6,177.9,101.7,178.1,101.7,177.9z"/>
		<path class="st1" d="M101.1,133.3c0.1,0,0.1,0,0.2,0c0,0,0,0,0,0C101.1,133.3,101.1,133.3,101.1,133.3L101.1,133.3z"/>
		<path class="st1" d="M102,151l-0.1,0.2C101.9,151.2,102,151.1,102,151z"/>
		<path class="st1" d="M101.6,168.4L101.6,168.4C101.7,168.5,101.7,168.4,101.6,168.4z"/>
		<path class="st1" d="M102,151.8c-0.1,0-0.2,0.1-0.2,0.1c0,0,0.1,0,0.1,0L102,151.8z"/>
		<path class="st1" d="M102.2,179.3c0-0.2-0.5-0.1-0.7-0.1c-0.1-0.2,0.3-0.1,0.6-0.2c-0.1-0.2-0.6-0.3-0.5-0.4c0.1,0,0.1,0,0.2,0
			c-0.4-0.2,0-0.5-0.5-0.7c0,0,0.1,0,0.1,0c-0.2,0-0.5,0-0.7,0c0-0.1-0.3-0.2,0-0.2c0,0.1,0.1,0.1,0.2,0.1l-0.1-0.1
			c0.4-0.1,0.2,0.1,0.5,0.1c-0.1-0.2-0.5-0.4-0.4-0.5c0.4,0,0.1,0.3,0.5,0.1l-0.2,0.2c0.7-0.2-0.1,0.1,0.7,0
			c0.1-0.3-0.2-0.3-0.1-0.6c-0.2-0.1-0.4,0-0.6,0c-0.4-0.4,1.1-0.3,0.5-0.6c-0.3-0.1-0.8-0.1-0.5-0.3l0.5,0.1
			c0.1-0.3-0.7-0.2-0.4-0.4c0.2,0.1,0.2,0.2,0.2,0.2c0.4-0.2-0.3-0.1-0.3-0.3l0.4,0c-0.1-0.3-0.4-0.6-0.5-0.9c0.1,0,0.3,0.1,0.4,0
			c-0.2-0.4,0.1-0.9,0.3-1.3l-0.4-0.2c0,0,0.2-0.1,0.2,0c0.1-0.2-0.2,0-0.4-0.1c0-0.1,0.2-0.1,0.3-0.1c-0.3-0.3-0.7-0.8-0.3-1.1
			l0.1,0.1c0.2-0.2-0.8-0.3-0.4-0.5l0.1,0c0.2-0.5-0.2-1,0.4-1.4c-0.5-0.1,0.2-0.5-0.5-0.5c0.4-0.3,0.5-0.2,0.8-0.6
			c0-0.1-0.5-0.2-0.5-0.3h0.4l-0.4-0.2l0.5-0.1l-0.1-0.1c0,0-0.2,0.1-0.3,0.1c-0.2-0.2,0.3-0.5,0.5-0.5l-0.3-0.4
			c0.2,0,0.2,0.1,0.3,0.1c-0.4-0.2,0.4,0,0.1-0.3c-0.1,0-0.2,0-0.3,0c0.2-0.1,0.2-0.4,0.1-0.5l0.3,0c0.1-0.3-0.1-0.7-0.1-1.1
			c-0.1,0.1-0.6,0.1-0.6,0l0.4,0c-0.3-0.1-0.2,0.1-0.5,0c0.1-0.1,0.5-0.1,0.6,0l-0.1-0.2c0.1,0,0.2,0,0.3,0c-0.3-0.1,0.4-0.3,0-0.4
			h0.1c0-0.4-0.1-0.5-0.2-0.9c-0.4,0-0.3-0.1-0.6-0.2c0.1-0.2,0.4-0.5,0.4-0.7c-0.2-0.2-0.3-0.1-0.5-0.1c0.3,0,0.3-0.3,0.5-0.1
			c-0.1-0.3-0.1-0.4-0.3-0.8c-0.1,0-0.2,0.1-0.3,0.1c-0.1-0.1,0.1-0.2,0.3-0.2l0,0c-0.5-0.5,1-1.1,0.3-1.4l0,0l-0.4-0.4
			c0.1-0.2,0.2,0.1,0.4,0c-0.5-0.4,0.1-0.7-0.3-1c1-0.3-0.1-0.9,0.5-1.3l-0.2,0c-0.2-0.1,0.1-0.1,0.2-0.2c-0.2,0-0.2,0.1-0.3,0
			c-0.3-0.8,0.3-1.6,0.5-2.4c0.1-0.3-1.2-0.2-0.6-0.5l0.4,0.1c-0.5-0.6,0-1.2-0.4-1.8c0.1,0,0.2,0,0.2,0.1c0.3-0.1,0-0.4-0.2-0.4
			c0-0.1,0.2,0,0.4-0.1c0.2-0.1-0.4-0.3-0.1-0.4c0.1,0,0.1,0,0.1,0.1c-0.2-0.1,0-0.4-0.3-0.3c0.2-0.2-0.2-0.4,0.1-0.6
			c-0.4-0.1,0.2-0.4-0.4-0.4c0.6,0,0.5-0.4,0.2-0.5c0.2,0.1,0.2-0.1,0.4-0.1c0-0.2-0.1-0.3-0.4-0.3c0.7-0.3-0.6-0.6,0.3-0.7
			c-0.3-0.5-0.5-0.9-0.7-1.3c0.6,0,0.1,0.5,0.7,0.4c-0.2-0.4-0.7-0.6-0.6-1c0.1-0.1,0.3,0.1,0.3,0.1c-0.2-0.4,0.1-0.8-0.3-1.1
			c0.1,0,0.1,0,0.2,0.1c0-0.1,0.1-0.2-0.2-0.2l0.1,0.1c-0.4,0.1-0.8-0.3-1-0.3c0.8,0.1,0.2-0.3,1.1-0.2c-0.1-0.1-0.2-0.1-0.3-0.1
			c0.1-0.1,0.2-0.1,0.4,0c-0.1-0.2-0.4-0.2-0.4-0.4c0.1,0,0.2,0.1,0.3,0.1c-0.2-0.1-0.5-0.2-0.4-0.4c0.1,0,0.2,0,0.2,0.1
			c0-0.3-0.7-0.5-0.4-0.9c0.5,0.1,0.2-0.1,0.7-0.1l-0.1-0.2l-0.2,0.1c0-0.2-0.3-0.3-0.2-0.5l0.2,0.1l-0.1-0.3l-0.2,0.2
			c-0.2-0.2-0.6,0-0.5-0.2c0.1,0.1,0-0.2,0.3-0.3c-0.2-0.1-0.3-0.2-0.2-0.3c0.2,0,0.5,0,0.6,0c-0.4-0.1-0.1-0.4-0.5-0.5
			c0.1,0,0.3,0,0.4,0l-0.3-0.1c0.1-0.1,0.2-0.1,0.4-0.1c0.1-0.2-0.6,0.1-0.3-0.2c0,0,0.1,0,0.1,0.1c0.1-0.3-0.2-0.5-0.1-0.8
			c0.5-0.1,0.1,0.2,0.5,0.1c-0.1-0.4-0.6-0.8-0.5-1.1l-0.1,0.1c-0.7-0.1,0.3-0.3,0-0.4c0.1,0,0.4,0.1,0.3,0.1
			c0.1-0.2-0.2-0.5-0.4-0.9l0.2,0.1c0.2-0.1,0.1-0.4,0.2-0.5c-0.2-0.1-0.1-0.1-0.4-0.1c1-0.5-0.5-0.9,0.3-1.3c0,0.1,0.2,0.1,0.2,0.1
			l-0.2-0.4c-0.3,0-0.2,0.1-0.4,0.1c-0.2-0.1-0.3-0.2-0.3-0.2c0.2,0.2,0.5,0,0.6-0.1c-0.1,0-0.2,0-0.3,0c0.5-0.2-0.6,0-0.2-0.3h0.2
			c-0.1-0.1-0.3-0.2-0.2-0.3c0.3,0,0.2,0.1,0.4,0.1c0-0.1-0.7-0.3-0.3-0.4c0.1,0.1,0.1,0.2,0.2,0.2c0.4-0.1,0.3-0.2,0.4-0.3l0.2-0.2
			l-0.1,0.1c-0.9-0.2-0.2-0.4-0.7-0.6c0.5,0.2,0.3,0,0.7,0.1c0.1-0.1,0.2-0.2,0.3-0.1c-0.3-0.1,0.2-0.2-0.2-0.4c0.1,0,0-0.1,0.3-0.1
			c-0.1-0.2-0.2,0-0.4,0c-0.4-0.2,0.5-0.5-0.1-0.9c-0.2-0.3-0.7-0.3-0.9-0.6c0.2-0.1,0.5,0.1,0.5,0.1c0.2-0.1,0.2-0.3,0-0.4
			c0.1,0,0.2,0,0.3,0c0-0.1-0.5-0.1-0.3-0.2c0.1,0,0.4,0.1,0.5,0.1c-0.1-0.1-0.3-0.3-0.5-0.4c0.2,0,0.3,0.1,0.5,0.1
			c-0.1-0.2-0.2-0.4-0.5-0.4l-0.1,0.1c0,0,0.3,0,0.4,0c0.3,0.1-0.1,0.2-0.2,0.2l-0.1-0.1c-0.7,0.1,0.1,0.4,0.1,0.6l-0.5-0.1l0.4,0.2
			c-0.1,0-0.4,0.1-0.5,0c-0.3,0.1,0.2,0.1-0.1,0.2c-0.1,0-0.1,0-0.1,0l0.2,0.1c-0.1,0-0.4,0-0.3-0.1c-0.3,0.2,0.4,0.4,0,0.5l0,0
			c0.2,0.3,0.4,0,0.8,0.3l-1,0.2l0.4,0c0,0,0,0.1-0.2,0.1c0.3,0.1,0.2,0,0.4,0.1c-0.4,0.2,0.2,0.5-0.5,0.5c0.3,0.1,0.2-0.2,0.4,0
			c-0.7,0.1,0.1,0.2-0.2,0.4c-0.3-0.1-0.2-0.2-0.5,0c0.6,0.1-0.1,0.3,0,0.4c0.5,0,0.2,0.3,0.3,0.5c-0.2,0-0.3,0.4-0.4,0.6h-0.1
			c0.5,0,0.4,0.2,0.5,0.4c-0.3,0-0.4,0-0.5-0.1v0.1c0.2,0,0.2,0.1,0.3,0.2l-0.3,0c0,0.2,0.4,0.4,0.2,0.6c0.3,0,0.9-0.2,1.1,0.1
			c-0.2,0-0.5,0-0.5-0.1c0,0,0.1,0.1,0.1,0.1l-0.3-0.1c-0.1,0.1,0.2,0.1,0.2,0.1c-0.3,0-0.2,0.1-0.4,0.1c0,0,0.1-0.1,0-0.1
			c-0.1,0.1-0.2,0.2-0.4,0.3c0.1,0,0.3,0,0.4,0.1c0,0.2-0.3,0.1-0.4,0.2c0.2,0.1,0,0.2,0.4,0.2c0,0.1-0.2,0.1-0.3,0.1
			c0.2,0.1,0.1,0.5,0.4,0.3l0,0c0,0,0,0,0,0c0.4,0.3-0.2,0.7-0.1,1h-0.1c0.1,0.2,0.1,0.4,0.4,0.6c0,0.1-0.2,0.1-0.4,0.1
			c0.1,0.1,0.2,0.2,0,0.4c-0.2-0.1-0.2,0.1-0.2-0.2c-0.1,0.2-0.3,0.2,0,0.4c-0.3-0.1-0.4,0.1-0.3,0.2l0.2-0.1c0.1,0.1,0,0.2,0,0.3
			l-0.4-0.1c-0.5,0.4,0.9,0.7,0,1c0.3,0.1,0.2-0.2,0.6-0.1c-0.1,0.2-0.7,0.4-0.7,0.4c-0.2,0.2,0.6,0.2,0.5,0.5
			c0.2,0,0.6-0.1,0.7,0.1c-0.1,0.2-0.6,0.2-0.8,0.1c0,0,0-0.1,0.1-0.1c-0.1-0.1-0.1-0.1-0.3-0.1l0.2,0c-0.2,0.1-0.1,0.3-0.4,0.3
			c0.1,0.1,0.2,0.1,0.3,0c-0.2,0.2,0,0.4-0.2,0.6c0.1,0,0.3-0.1,0.3,0c-0.2,0.3,0.3,0.2,0.4,0.4c-0.2,0.1-0.5-0.1-0.4,0.2
			c-0.2,0.1-0.4,0-0.5,0c0.3,0.2-0.2,0.4-0.2,0.5l-0.1-0.1c0.1,0.1,0.1,0.1,0.1,0.2l0.3-0.1c-0.1,0.1-0.1,0.1-0.2,0.1
			c0.2,0.1,0.5-0.1,0.8,0.1c-0.2,0.1,0.2,0.3-0.2,0.3c0.1-0.3-0.4,0-0.5-0.2c0.1,0.1,0.1,0.1,0,0.2c-0.1,0-0.1,0-0.1,0
			c-0.4,0.3,0.5,0.1,0.4,0.4c-0.2,0-0.4,0.1-0.4,0.1c0-0.1,0.4-0.1,0.5,0.1c-0.2,0.2,0.1,0.2,0.1,0.3l0.1-0.1c0.2,0,0.2,0.1,0.3,0.2
			c-0.2,0-0.1-0.1-0.2-0.1c0.4,0.1-0.4,0.3-0.1,0.5c-0.2,0.1-0.4,0-0.5,0.1c0.3,0.2-0.3,0.2-0.1,0.5c0.3-0.1,0.2-0.1,0.5,0.1
			l-0.2-0.4l0.4,0.2c0-0.1-0.2-0.2-0.1-0.3c0.2,0.1,0.2,0.1,0.4,0.1c-0.5,0.2,0.3,0.3,0,0.5h-0.8c-0.3,0.3,0.4,0.5,0.2,0.8l0.1-0.1
			c0.3,0.1,0,0.2,0.2,0.3c-0.3,0-0.3,0.1-0.5,0.1c0.2,0,0,0.3,0.5,0.3l-0.3,0.2c-0.1,0.3,0.7,0.3,0.6,0.6c-0.3-0.1-0.4,0-0.7-0.1
			c0,0.1-0.1,0.2,0.1,0.2c-0.2,0.1,0.3,0.2,0.1,0.3c0.1,0,0.4,0.1,0.4,0.2c-0.1,0-0.1,0-0.1,0c0.1,0,0.2,0.2,0.4,0.1
			c-0.8,0.3,0.1,0.8-0.6,1c0.1,0.2,0.2,0.4,0.2,0.6c-0.1,0-0.1,0-0.1,0c-0.2,0.2,0.7,0.2,0.5,0.4c-0.4,0.1-0.2-0.2-0.4-0.1
			c-0.8,0,0.1,0.3-0.4,0.5l-0.1-0.1c-0.3,0.1,0.3,0.3,0.3,0.6c0,0-0.1,0-0.1,0c0.4,0.2,0.6,0.5,0.7,0.7c-0.3-0.1-0.2-0.1-0.5-0.1
			c0.1,0.1,0.5,0,0.6,0.2c-0.2,0.1-0.3,0.2-0.7,0.2v-0.2c-0.5,0.1,0,0.2-0.1,0.3H99c0.1,0.3,0.6,0.3,0.5,0.6l0.2,0
			c0.5,0.2-0.3,0.1,0.1,0.3l-0.5,0.1c0.1,0.1,0.5,0.4,0.6,0.6c-0.4-0.1-0.6-0.3-0.8-0.5c0,0.1,0,0.4,0.3,0.4
			c-0.1-0.1-0.2-0.1-0.1-0.1c0.4,0.1,0.6,0.3,0.6,0.5c-1,0-0.2,0.6-1,0.7c0.4,0.4-0.2,0.8-0.1,1.2c0.8-0.2,0,0.1,0.8,0.1
			c0.1,0.1,0,0.2,0,0.2l-0.5,0.3c-0.2,0.1-0.2-0.1-0.3-0.1c-0.1,0.2-0.3,0.1-0.5,0.3c0.3,0,0.4,0.1,0.3,0.2l0.4-0.2
			c0.4,0.3-0.7,0.3-0.2,0.6l-0.2-0.1c0.1,0.2,0,0.6,0.6,0.8c-0.1,0-0.3,0.1-0.4,0c-0.1,0.4,0.7,0.9,0.3,1.2l-0.2,0
			c0.1,0.1,0.4,0.1,0.2,0.2c-0.1,0-0.2,0-0.2,0c0.1,0,0.3,0.2,0.2,0.3l-0.2-0.1c-0.3,0.4,0.5,0.6,0.7,0.9c-0.6,0-0.7,0.3-0.8,0.5
			h-0.1c-0.1,0.4,0.5,0.8,0.7,1.2c-0.6,0.3-0.3,0.9-0.6,1.3c0.1-0.1,0.4,0,0.5,0.1c-0.1,0.1,0.4,0.3-0.1,0.3v0
			c-0.5,0.1-0.4,0.3-0.4,0.4l0.7,0c-1,0.4,0.4,1.1-0.5,1.3c0.2,0.1,0.2,0.2,0.3,0.3h-0.4c-0.1,0.3-0.1,0.4-0.1,0.8l-0.3-0.1
			c0,0.2,1,0.2,1.1,0.4l-0.5,0.1c0,0.3-0.5,0.7,0,1c-0.1,0-0.2,0-0.3-0.1c0,0.2-0.4,0.6,0.4,0.6c-0.5,0-0.1,0.3,0.2,0.5l-0.4,0
			c0.5,0.2,0.6,0.2,0.7,0.4c-0.1,0.1-0.3,0.1-0.2,0c-0.2,0.2,0.3,0.1,0.2,0.3l-0.2-0.1c0,0.2,0.1,0.2,0.4,0.3
			c0.1,0.1-0.1,0.3-0.4,0.4c0.2,0,0.5,0.1,0.4,0.2c-0.1,0-0.2,0-0.2,0c-0.2,0.3,0.4,0.4,0.1,0.6c-0.1,0-0.2,0-0.2,0
			c0-0.2,0-0.4,0.1-0.4c-0.3,0-0.4,0.2-0.8,0c0.2,0.2,0.8,0.4,0.6,0.6c0,0-0.1,0-0.1,0h0c0,0,0,0.1,0.1,0.1
			c-0.1,0.1-0.1,0.1-0.1,0.2c-0.3,0-0.1,0.2-0.2,0.3c0.4,0,0.3,0.1,0.6,0c0,0,0,0-0.1-0.1c0,0,0,0,0,0h0c0-0.1,0-0.1,0-0.2
			c0.2,0.1,0.3,0.2,0.1,0.3c0.2,0.1,0.5,0.1,0.6,0.1c-0.5,0.1-0.8,0.4-1.1,0.4c0.2,0.3,0.1,0.7,0.8,0.9c0.1,0.1-0.2,0.1-0.3,0.1
			c-0.1-0.1-0.1-0.1-0.2-0.1c0.2,0.2,0.1,0.5,0.5,0.5c-0.2,0.2-0.4-0.1-0.4,0.2l-0.1,0c-0.8,0.5,1.2,0.9,0.2,1.5
			c0.1,0,0.1-0.1,0.2-0.1c-0.4,0.7,0.4,1.4-0.3,2.1c-0.1,0.2,0.2,0.2,0.4,0.3l-0.4,0l0.4,0.2c0.3,0.3-0.9,0.5-0.3,0.9l0.3-0.1
			c-0.1,0.1,0.2,0.4-0.1,0.4c0.1,0,0.3,0,0.1,0.1h-0.2l0.3,0.3c-0.1,0.3-0.8,0-0.8,0.3c0.1,0.1,0.6,0.4,0.7,0.3
			c0-0.1,0.1-0.1,0.3-0.1l0.1,0.1c0.6,0,1.2,0.1,1.6-0.2l-0.4-0.2l0.3-0.1v0.2c0.3-0.1,0.1-0.2-0.1-0.2c0.2,0,0.3-0.1,0.3-0.1
			l-0.6-0.2c0.2,0,0.5,0.1,0.6-0.1c-0.3-0.1-0.5,0.1-0.7-0.1c0.3-0.1,0.5-0.1,0.3-0.2c0.2,0,0.3,0,0.3,0.1c-0.2-0.1-0.1-0.3-0.4-0.3
			c0.3-0.1-0.1-0.4,0.5-0.3c-0.1,0-0.4-0.2-0.5-0.3c0.7,0.2,0-0.4,0.8-0.3c-0.6-0.1-0.3-0.5-0.6-0.7c0.1,0,0.1,0,0.1,0.1
			c0.1-0.1,0.2-0.2,0.3-0.3c-0.5,0-0.6-0.2-0.9-0.3c0.5-0.2,0.6,0.1,1,0.1c-0.4,0-0.4-0.3-0.7-0.2c0.3-0.1,0.1-0.1,0.6-0.2
			c-0.6,0-0.1-0.1-0.5-0.2c0.3-0.2,0.6-0.1,0.4-0.2c0.2-0.1,0.4,0.1,0.4,0.1L102.2,179.3z M101.1,174.7c0,0,0,0.1,0,0.1
			C101.2,174.7,101.2,174.7,101.1,174.7z M101.1,174.3c0,0,0,0.1,0,0.2c-0.1,0-0.3,0-0.2,0C101,174.4,101,174.3,101.1,174.3z
			 M98.6,175.1C98.6,175.1,98.7,175,98.6,175.1c0.1-0.1,0.1,0,0.1,0c0,0,0,0,0,0C98.7,175.1,98.7,175.1,98.6,175.1L98.6,175.1z"/>
		<path class="st1" d="M99.1,175.2C99.1,175.2,99.1,175.2,99.1,175.2c0.1,0,0.1,0,0.1,0C99.2,175.2,99.1,175.2,99.1,175.2
			C99.1,175.2,99.1,175.2,99.1,175.2L99.1,175.2z"/>
		<path class="st1" d="M101.8,168.8L101.8,168.8L101.8,168.8L101.8,168.8z"/>
		<path class="st1" d="M100.9,137.4C100.9,137.4,100.9,137.4,100.9,137.4C100.9,137.4,100.9,137.4,100.9,137.4z"/>
		<path class="st1" d="M101,136.5l0.1-0.1C101,136.4,101,136.4,101,136.5z"/>
		<path class="st1" d="M101.1,135.7c0,0-0.1,0-0.2,0L101.1,135.7L101.1,135.7z"/>
		<path class="st1" d="M101.6,147.2C101.6,147.2,101.6,147.2,101.6,147.2C101.6,147.3,101.6,147.2,101.6,147.2z"/>
		<path class="st1" d="M100.7,143.8c0.1,0,0.1,0.1,0.2,0.1C100.9,143.8,100.9,143.8,100.7,143.8z"/>
		<path class="st1" d="M100.9,144.1c0.1-0.1,0.1-0.1,0-0.2C100.9,144,100.8,144,100.9,144.1z"/>
		<path class="st1" d="M101.3,132.6L101.3,132.6C101.3,132.6,101.3,132.6,101.3,132.6L101.3,132.6z"/>
		<path class="st1" d="M101.3,132.6L101.3,132.6C101.2,132.6,101.2,132.6,101.3,132.6z"/>
		<path class="st1" d="M101.1,132.5L101.1,132.5C101.2,132.6,101.2,132.5,101.1,132.5z"/>
		<path class="st1" d="M101.2,133.9c0-0.1,0.3-0.2,0.2-0.3h-0.1C101.4,133.6,101,133.8,101.2,133.9z"/>
		<path class="st1" d="M99.6,135.1l0.1-0.2c-0.1,0-0.3,0.1-0.4,0C98.9,135.1,99.6,134.8,99.6,135.1L99.6,135.1z"/>
		<path class="st1" d="M99.4,135.8c-0.1-0.1-0.2,0-0.3,0C99.2,135.9,99.2,135.9,99.4,135.8z"/>
		<path class="st1" d="M99.4,141.3H99C99.1,141.4,99.2,141.3,99.4,141.3z"/>
		<path class="st1" d="M101.1,142.3l0.2-0.1l-0.3,0L101.1,142.3z"/>
		<path class="st1" d="M98.7,142.9L98.7,142.9l0.1,0.1L98.7,142.9z"/>
		<path class="st1" d="M98.8,152l0.4,0C99.2,152,98.7,151.9,98.8,152z"/>
		<path class="st1" d="M99.3,156c-0.2,0-0.3,0.2-0.1,0.2C99.2,156.1,99.3,156,99.3,156z"/>
		<path class="st1" d="M98.6,167.8l-0.1-0.1L98.6,167.8L98.6,167.8z"/>
		<g class="st2">
			<path class="st1" d="M136.9,137.4c-38,2.6-36.7,36.7-36.7,36.7C138.2,171.5,136.9,137.4,136.9,137.4z"/>
			<path class="st1" d="M137.8,137.4c-0.1-0.1-0.4,0-0.3,0.2l0.4,0.1L137.8,137.4z"/>
			<path class="st1" d="M137,138.6c0.2,0.2,0.5,0.4,0.9,0.3c-0.4-0.2-0.2-0.3-0.7-0.5c0-0.2,0.1-0.3,0.3-0.3
				c-0.1-0.1,0.1-0.3-0.2-0.4c-0.3,0.2-0.3,0.5-0.1,0.8C137.2,138.6,137.1,138.6,137,138.6L137,138.6z"/>
			<path class="st1" d="M132.5,154.1L132.5,154.1C132.6,154,132.5,154.1,132.5,154.1z"/>
			<path class="st1" d="M126.7,162.2c0,0,0-0.1,0-0.1C126.7,162.1,126.7,162.2,126.7,162.2z"/>
			<path class="st1" d="M125.2,163C125.2,163,125.2,163,125.2,163C125.2,163,125.2,163,125.2,163z"/>
			<path class="st1" d="M132.5,154.1l-0.2,0.2C132.4,154.4,132.4,154.2,132.5,154.1z"/>
			<path class="st1" d="M137.9,140.9c0,0-0.1-0.1-0.1-0.2C137.8,140.8,137.8,140.9,137.9,140.9L137.9,140.9L137.9,140.9z"/>
			<path class="st1" d="M133.8,149.9L133.8,149.9c0-0.1-0.1-0.2-0.1-0.2L133.8,149.9z"/>
			<path class="st1" d="M134.7,146.7c0,0.1,0.3,0.2,0.4,0.3c-0.1-0.1-0.2-0.2-0.2-0.2C134.9,146.7,134.8,146.7,134.7,146.7
				L134.7,146.7z"/>
			<path class="st1" d="M136.3,141.5l0-0.1C136.3,141.4,136.3,141.5,136.3,141.5z"/>
			<path class="st1" d="M132.9,152.1c0,0-0.1,0-0.1,0C132.8,152.1,132.9,152.1,132.9,152.1z"/>
			<path class="st1" d="M132.7,136.2C132.7,136.2,132.7,136.2,132.7,136.2C132.8,136.2,132.8,136.2,132.7,136.2z"/>
			<path class="st1" d="M136.9,137.5L136.9,137.5l-0.1,0.2L136.9,137.5z"/>
			<path class="st1" d="M122.6,164.7L122.6,164.7C122.7,164.6,122.6,164.6,122.6,164.7z"/>
			<path class="st1" d="M101.9,170.4c-0.4,0.3-0.4-0.6-0.8-0.1C101.3,170.3,101.6,170.8,101.9,170.4z"/>
			<path class="st1" d="M137.8,141c0,0,0,0.1,0,0.1C137.8,141.1,137.8,141,137.8,141z"/>
			<path class="st1" d="M101.1,170.3L101.1,170.3C101.1,170.3,101.1,170.3,101.1,170.3z"/>
			<path class="st1" d="M116.8,168.5c0,0,0.1,0.1,0.1,0.1C116.9,168.6,116.9,168.6,116.8,168.5z"/>
			<path class="st1" d="M121.6,166.3l-0.1,0C121.5,166.4,121.6,166.3,121.6,166.3z"/>
			<path class="st1" d="M114.5,170.1c-0.1,0-0.1,0-0.2,0c0,0,0,0,0,0C114.4,170.1,114.4,170.1,114.5,170.1z"/>
			<path class="st1" d="M111.8,171C111.8,171,111.8,171.1,111.8,171l0.2,0L111.8,171L111.8,171z"/>
			<path class="st1" d="M123.8,138.4c0.1,0.1,0.2,0.2,0.2,0.3C123.9,138.4,124.3,138.2,123.8,138.4z"/>
			<path class="st1" d="M137.7,140.9c0.1,0,0.1,0.1,0.1,0.1v-0.1C137.8,140.9,137.7,140.9,137.7,140.9z"/>
			<path class="st1" d="M115.4,172.7l-0.5,0.1C115.1,172.8,115.3,172.8,115.4,172.7z"/>
			<path class="st1" d="M106.1,151l0-0.1C106.1,150.9,106.1,151,106.1,151z"/>
			<path class="st1" d="M113.6,173.4c-0.1-0.1-0.2-0.1-0.3-0.1c0,0,0,0.1,0,0.1L113.6,173.4z"/>
			<path class="st1" d="M126.8,136.9c-0.5,0.1-0.1,0.5-0.1,0.8c-0.5,0.3-0.3-0.3-0.6-0.4c-0.3,0.2-0.4,0.7-0.7,0.8
				c0-0.1-0.1-0.1-0.1-0.2c-0.2,0.5-1,0.3-1.3,0.9c0,0-0.1-0.1-0.1-0.1c0.1,0.2,0.2,0.4,0.3,0.6c-0.2,0.1-0.3,0.4-0.4,0.1
				c0.1,0,0.1-0.2,0.1-0.3l-0.2,0.2c-0.3-0.4,0.2-0.2,0.1-0.6c-0.3,0.3-0.7,0.8-1,0.8c-0.2-0.4,0.7-0.4,0.1-0.6h0.5
				c-0.6-0.5,0.3-0.1-0.3-0.7c-0.7,0.1-0.6,0.5-1.3,0.6c-0.1,0.3,0.2,0.3,0.1,0.6c-0.7,0.7-1.1-0.8-1.5,0.1
				c-0.1,0.3,0.1,0.9-0.4,0.8l-0.1-0.5c-0.6,0.2,0,0.8-0.8,0.8c0-0.2,0.4-0.4,0.3-0.4c-0.6-0.2-0.2,0.4-0.5,0.5l-0.3-0.4
				c-0.6,0.4-1.1,1-1.7,1.4c0-0.1,0-0.3-0.2-0.3c-0.7,0.6-1.8,1-2.7,1.3l-0.1,0.5c-0.1,0.1-0.2-0.1-0.2-0.2
				c-0.4,0.1,0.1,0.2,0.1,0.4c-0.2,0.1-0.3,0-0.3-0.2c-0.3,0.7-1.1,1.6-1.8,1.7l0-0.2c-0.5,0.2,0.1,1-0.5,1l0-0.1
				c-1,0.6-1.6,1.7-2.6,2c0.3,0.5-0.9,0.7-0.4,1.2c-0.7,0.2-0.7,0-1.5,0.5c-0.2,0.2,0.1,0.6,0,0.9l-0.3-0.2l0.1,0.6l-0.5-0.1
				l-0.1,0.3c0.1-0.1,0.3-0.1,0.4,0c-0.1,0.4-0.8,0.7-1,0.6l-0.3,1c-0.1-0.1-0.1-0.3-0.1-0.4c0,0.7-0.4-0.1-0.4,0.5
				c0.1,0,0.2,0.2,0.2,0.2c-0.3,0.1-0.6,0.6-0.8,1l-0.2-0.2c-0.5,0.6-0.7,1.5-1.1,2.3c0.3-0.2,0.6,0.1,0.6,0.3l-0.4-0.1
				c0.2,0.3,0.3-0.2,0.4,0.3c-0.2,0.3-0.5,0-0.6-0.2l0,0.4c-0.1,0-0.1-0.1-0.3-0.2c0.2,0.3-0.7,0.4-0.4,0.8l-0.1,0
				c-0.4,0.8-0.4,1.2-0.6,1.9c0.3,0.1,0.2,0.4,0.3,0.7c-0.3,0.4-0.7,0.9-0.9,1.5c0,0.5,0.2,0.2,0.4,0.5c-0.3-0.1-0.5,0.5-0.6,0.2
				c-0.2,0.7-0.2,0.9-0.2,1.9c0.2-0.1,0.2-0.2,0.3-0.1c0,0.2-0.2,0.3-0.4,0.3l0-0.1c0.2,1.1-1.5,2.2-1,3.1l0-0.1
				c0.1,0.3,0.1,0.6,0.2,0.9c-0.1,0.4-0.2-0.3-0.4,0c0.4,1-0.3,1.5,0,2.3c-0.5,0.2-0.6,0.8-0.5,1.4v0.2v0.4c0,0.2,0,0.5,0,0.7
				c0,0.5-0.1,0.9-0.2,1.3l0.2-0.2c0.2,0.2-0.1,0.5-0.2,0.8c0.2-0.2,0.2-0.5,0.3-0.4c0,0.3,0.1,0.7,0.1,1v0.3l0,0.1c0,0,0.1,0,0.1,0
				h0.5c0.7,0,1.4,0,2.2,0h1.2l0.7,0.1c0.5,0.1,0.9,0,1.4,0c0.7,0,0.2-1.2,1.1-0.8l-0.2,0.4c1.2-0.7,2.7-0.5,3.9-1.2
				c-0.1,0.1,0,0.2-0.2,0.3c0.3,0.2,1-0.2,0.9-0.5c0.2,0,0.1,0.2,0.3,0.3c0.3,0.1,0.6-0.6,0.8-0.3c0,0-0.1,0.1-0.1,0.2
				c0.1-0.2,0.8-0.2,0.6-0.5c0.5,0,0.9-0.4,1.3-0.3c0.1-0.5,0.9-0.1,0.8-0.7c0.2,0.6,1,0.1,1.2-0.2c0,0.2,0.3,0.1,0.3,0.3
				c0.3-0.1,0.6-0.3,0.4-0.6c0.9,0.4,1-1,1.7-0.4c0.9-0.7,1.6-1.4,2.4-1.9c0.3,0.5-0.9,0.5-0.6,1.1c0.7-0.7,0.9-1.3,1.7-1.7
				c0.2-0.1,0,0.3,0,0.4c0.6-0.7,1.5-0.9,2-1.6c0,0.1,0,0.1-0.1,0.2c0.1-0.1,0.3-0.2,0.2-0.4l-0.1,0.2c-0.4-0.2,0-1-0.1-1.2
				c0.2,0.8,0.7-0.3,1,0.7c0.1-0.1,0.1-0.3,0-0.4c0.2-0.1,0.3,0,0.3,0.3c0.4-0.5,0-0.5,0.4-0.9c0.1,0.1,0,0.2,0.1,0.4
				c0.1-0.4,0.1-0.7,0.5-0.9c0,0.1,0.1,0.1,0,0.2c0.5-0.5,0.5-1.3,1.3-1.7c0.2,0.6,0.3-0.1,0.7,0.3l0.2-0.4l-0.3,0
				c0.3-0.3,0.3-0.7,0.6-0.9l-0.1,0.3c0.2-0.2,0.3-0.4,0.4-0.6l-0.4,0.2c0.1-0.5-0.5-0.4,0-0.7c0,0.1,0.3-0.3,0.6-0.2
				c0-0.2,0-0.5,0.3-0.6c0.2,0,0.4,0.4,0.5,0.4c-0.2-0.4,0.5-0.8,0.3-1.2c0,0.1,0.2,0.3,0.3,0.3l-0.2-0.3c0.2-0.1,0.2-0.1,0.4,0.1
				c0.4-0.4-0.6-0.2,0-0.6c0,0.1,0,0.1,0,0.2c0.5-0.4,0.5-1.1,1-1.5c0.5,0.1-0.2,0.5,0.3,0.5c0.4-0.7,0.5-1.8,1-2.4l-0.1,0.1
				c-0.5-0.4,0.6-0.3,0.5-0.9c0,0.1,0.3,0.3,0.2,0.2c0.4-0.4,0.4-1.1,0.6-1.9l0.1,0.2c0.3-0.2,0.4-0.7,0.7-1c-0.1-0.2,0-0.3-0.3-0.3
				c1.4-0.6,0.3-2.1,1.4-2.7c0,0.1,0.1,0.3,0.1,0.2l0.1-0.8c-0.3,0-0.2,0-0.5,0.1c-0.1-0.2-0.2-0.4-0.1-0.6c0.1,0.4,0.5,0.2,0.7,0.1
				c-0.1,0-0.2-0.1-0.3-0.1c0.6-0.2-0.5-0.3,0-0.7l0.1,0.1c0-0.2-0.2-0.5,0-0.7c0.4,0,0.1,0.3,0.3,0.4c0.1-0.3-0.4-0.8,0-1
				c0.1,0.2,0,0.4,0.1,0.5c0.5-0.2,0.4-0.3,0.5-0.5v0l0.3-0.5l-0.1,0.1c-0.8-0.6,0.1-0.9-0.4-1.5c0.4,0.7,0.3,0.2,0.7,0.3
				c0.1-0.1,0.3-0.3,0.4-0.2c-0.2-0.3,0.3-0.4,0-0.8c0.1,0,0.1-0.3,0.4-0.2c0-0.4-0.2,0-0.4,0c-0.3-0.6,0.7-1.1,0.3-2
				c-0.1-0.7-0.5-0.9-0.7-1.5c0.2-0.2,0.4,0.2,0.4,0.2c0.2-0.3,0.2-0.6,0.1-0.9c0.1,0.1,0.2,0,0.3-0.1c0-0.3-0.4-0.2-0.2-0.5
				c0.1,0.1,0.4,0.2,0.5,0.3c-0.1-0.3-0.3-0.6-0.4-0.9c0.2-0.1,0.3,0.2,0.4,0.3c-0.1-0.4-0.1-0.9-0.5-1l-0.1,0.2
				c0-0.1,0.3-0.1,0.4,0.1c0.3,0.3-0.1,0.4-0.3,0.4l-0.1-0.2c-0.7,0.2,0.1,0.9,0,1.3l-0.5-0.2l0.4,0.5c-0.2,0.1-0.4,0.1-0.5-0.1
				c-0.3,0.3,0.2,0.3-0.2,0.5c-0.1,0-0.1,0-0.1,0l0.1,0.3c-0.1-0.1-0.4,0-0.3-0.2c-0.4,0.5,0.3,0.9-0.1,1l0-0.1
				c0.1,0.8,0.4,0.1,0.7,0.8l-1,0.2l0.4,0.1c0,0.1-0.1,0.2-0.2,0.2c0.2,0.3,0.2,0,0.4,0.2c-0.4,0.3,0,1-0.7,1
				c0.3,0.2,0.3-0.3,0.4,0.1c-0.7,0,0,0.5-0.4,0.7c-0.3-0.2-0.1-0.4-0.4-0.2c0.5,0.3-0.3,0.6-0.2,0.9c0.4,0.1,0,0.6,0.1,1.1
				c-0.1-0.1-0.5,0.8-0.8,1.2l-0.1,0c0.4,0.2,0.2,0.6,0.2,1c-0.3-0.1-0.3-0.2-0.4-0.4l-0.1,0.3c0.1,0.1,0.2,0.2,0.1,0.4l-0.3-0.2
				c-0.1,0.4,0.1,0.9-0.3,1.3c0.3,0.2,1-0.1,1,0.5c-0.2-0.1-0.5-0.1-0.5-0.3c0,0.1,0.1,0.2,0,0.3l-0.2-0.3c-0.2,0.2,0.2,0.2,0.1,0.4
				c-0.2-0.1-0.2,0.1-0.4,0c0-0.1,0.2-0.1,0.1-0.2c-0.1,0.2-0.4,0.4-0.6,0.4c0.1,0,0.3,0.1,0.3,0.3c-0.1,0.4-0.3,0-0.5,0.2
				c0.1,0.2-0.2,0.3,0.2,0.5c-0.1,0.1-0.2,0.1-0.3,0.1c0.1,0.3-0.4,0.9,0.1,0.9l0.1,0v0c0.1,0.8-0.9,1.2-1,1.9l-0.1-0.1
				c-0.1,0.4-0.4,0.8-0.3,1.2c-0.1,0.1-0.3,0.1-0.4,0c-0.1,0.3,0,0.4-0.4,0.7c0-0.4-0.2,0,0-0.4c-0.3,0.3-0.5,0.2-0.5,0.8
				c-0.2-0.3-0.5,0-0.5,0.2l0.4-0.1c-0.1,0.2-0.2,0.3-0.3,0.5l-0.3-0.3c-0.9,0.4-0.2,1.7-1.3,1.7c0.1,0.4,0.4-0.2,0.6,0.2
				c-0.3,0.3-1,0.2-1.1,0.3c-0.5,0.2,0.1,0.8-0.3,1.1c0.2,0.1,0.5,0.3,0.3,0.7c-0.3,0.3-0.8-0.1-0.7-0.3c0.1-0.1,0.1-0.1,0.2,0
				c0-0.1,0.1-0.3-0.1-0.3l0.1,0.1c-0.2,0-0.6,0.4-0.7,0.2c-0.1,0.3,0.1,0.3,0.3,0.2c-0.5,0.2-0.5,0.5-1,0.8c0.1,0,0.3,0.1,0.2,0.1
				c-0.7,0.4,0,0.4-0.4,0.8c-0.4,0-0.3-0.5-0.5,0c-0.3,0.1-0.3-0.3-0.3-0.4c-0.2,0.5-0.8,0.4-1,0.5l0.1-0.2
				c-0.1,0.2-0.2,0.2-0.2,0.3l0.3,0.1c-0.1,0.1-0.2,0.1-0.3,0c0,0.2,0.4,0.3,0.4,0.7c-0.2,0-0.3,0.5-0.7,0.2
				c0.6-0.2-0.3-0.3,0.1-0.6c0,0.1-0.1,0.2-0.3,0.2c0,0,0-0.1,0-0.1c-0.7,0.1,0.1,0.5-0.4,0.9c-0.1-0.2-0.4-0.3-0.4-0.2
				c0.2-0.1,0.3,0.2,0.2,0.5c-0.4,0.1-0.3,0.4-0.4,0.4l0.2-0.1c0.1,0.2-0.1,0.3-0.3,0.5c-0.1-0.1,0.1-0.2,0-0.3c0,0.5-0.8,0-1,0.5
				c-0.2,0-0.2-0.3-0.4-0.3c-0.2,0.5-0.6,0-0.9,0.5c0.3,0.2,0.3,0.1,0.1,0.5l0.6-0.6l-0.2,0.7c0.2-0.1,0.3-0.4,0.5-0.5
				c-0.1,0.3-0.1,0.3,0.1,0.4c-0.5-0.2-0.4,0.6-0.9,0.5l-0.4-0.7c-0.7,0-0.7,0.8-1.4,1h0.3c0.1,0.3-0.4,0.3-0.5,0.5
				c-0.1-0.2-0.3-0.2-0.4-0.3c0.1,0.2-0.5,0.2-0.3,0.7l-0.4-0.2c-0.6,0.1-0.3,0.9-0.9,1.1c0.1-0.3-0.3-0.4,0-0.7
				c-0.2,0.1-0.3,0.1-0.3,0.3c-0.2-0.1-0.4,0.5-0.6,0.3c0,0.1,0,0.4-0.2,0.4c0,0,0-0.1,0-0.1c0,0.1-0.3,0.3,0,0.5
				c-0.8-0.5-1.6,0.7-2.3,0.1c-0.4,0.2-0.9,0.4-1.2,0.5c0-0.1,0-0.1,0-0.1c-0.6-0.1-0.1,0.8-0.8,0.7c-0.4-0.3,0.3-0.3,0-0.4
				c-0.3-0.8-0.7,0.3-1.2-0.1l0.1-0.1c-0.4-0.2-0.7,0.5-1.2,0.5c0,0,0-0.1,0-0.1c-0.3,0.5-0.9,0.8-1.3,1c0.1-0.3,0.2-0.2,0-0.5
				c-0.2,0.1,0.2,0.5-0.3,0.7c-0.2-0.2-0.5-0.3-0.6-0.6l0.4-0.1c-0.3-0.4-0.5,0.1-0.8,0.1v-0.2c-0.6,0.2-0.5,0.7-1.2,0.7l0.1,0.1
				c-0.3,0.5-0.3-0.2-0.7,0.2l-0.2-0.5c-0.1,0.1-0.3,0.2-0.5,0.4c-0.2,0.1-0.4,0.3-0.6,0.3c0.1-0.2,0.3-0.4,0.4-0.5
				c0.1-0.1,0.4-0.3,0.5-0.4c-0.1,0-0.3,0-0.5,0.1c-0.1,0.1-0.2,0.1-0.2,0.3c0.1-0.1,0.1-0.2,0.2-0.1c-0.1,0.4-0.5,0.7-0.9,0.7
				c0.3-0.5,0.1-0.6,0-0.6c-0.3,0.1-0.1-0.3,0.3-0.7c-0.2,0-0.1-0.3-0.1-0.4c0.1,0,0.2-0.6,0.3-1.1c-0.8,0.3,0-0.3-0.8-0.3
				c0-0.2,0-0.3,0.1-0.3l0.5-0.6c0.2-0.1,0.1,0.2,0.3,0.2c0.1-0.5,0.4-0.2,0.6-0.5c-0.3,0-0.4-0.2-0.2-0.5l-0.4,0.3
				c-0.3-0.8,0.7-0.5,0.4-1.3l0.2,0.3c-0.1-0.4,0.2-1.3-0.3-1.8c0.1-0.1,0.3-0.1,0.3,0.1c0.3-0.8-0.2-2,0.3-2.6l0.2,0.1
				c0-0.2-0.3-0.4,0-0.5c0.1,0,0.2,0.1,0.2,0.1c0-0.1-0.2-0.5,0-0.7l0.2,0.2c0.5-0.7-0.1-1.4,0-2.1c0.5,0.2,0.9-0.4,1.1-0.6l0.1,0
				c0.4-0.9,0.2-1.7,0.4-2.6c0.8-0.3,1.1-1.6,1.8-2.2c-0.2,0.1-0.4-0.2-0.3-0.4c0.2-0.1,0-0.7,0.4-0.4l-0.1,0.1
				c0.5,0.1,0.6-0.3,0.8-0.6l-0.5-0.4c1.3-0.2,1-2.1,2.1-2c0-0.3,0.2-0.5,0.2-0.8l0.3,0.2c0.4-0.4,0.7-0.6,1.1-1.2l0.1,0.3
				c0.3-0.3-0.4-1.1-0.2-1.4l0.5,0.3c0.5-0.5,1.3-0.7,1.5-1.5c0,0.1,0.1,0.2,0.1,0.3c0.3-0.2,1.2-0.6,0.7-1c0.3,0.4,0.6-0.5,0.8-0.9
				l0.2,0.3c0-0.5-0.1-0.7,0.2-1c0.1,0,0.2,0.2,0.1,0.2c0.4-0.1,0-0.4,0.5-0.5v0.3c0.3-0.2,0.2-0.3,0.2-0.6c0.1-0.3,0.7-0.3,0.9-0.1
				c-0.1-0.2,0-0.5,0.2-0.6c0.1,0.1,0.1,0.2,0.1,0.2c0.7-0.1,0.6-0.9,1.1-0.8c0.1,0.1,0.1,0.1,0.2,0.2c-0.4,0.2-0.8,0.5-0.8,0.4
				c0.2,0.3,0.5,0.1,0.5,0.7c0.1-0.4,0.3-1.1,0.8-1.2c0,0,0.1,0,0.1,0.1v0.1c0.1,0,0.1-0.1,0.2-0.2c0.1,0,0.2,0,0.3-0.1
				c0.2,0.2,0.5-0.1,0.7-0.2c-0.2-0.3,0.1-0.4-0.3-0.5c0,0,0,0.1-0.1,0.1c0,0-0.1,0.1-0.1,0.1v0c-0.1,0.1-0.3,0.2-0.4,0.3
				c0.1-0.2,0.1-0.4,0.4-0.4c0-0.3,0-0.5,0-0.7c0.5,0.3,1.1,0.3,1.3,0.6c0.5-0.4,1.3-0.7,1.4-1.5c0.1-0.2,0.3,0.1,0.4,0.2
				c-0.1,0.1-0.2,0.1-0.2,0.3c0.2-0.3,0.9-0.4,0.9-0.9c0.5,0-0.1,0.5,0.5,0.2l0,0.2c0.7,0.1,1-0.3,1.4-0.7c0.4-0.4,0.8-0.8,1.6-0.5
				c-0.1,0-0.2,0-0.2-0.1c1.6-0.1,3-1.2,4.6-0.8c0.4,0.1,0.4-0.2,0.7-0.5l0.2,0.4l0.4-0.5c0.6-0.4,1.2,0.8,1.9,0l-0.1-0.2
				c0.3,0,0.9-0.2,0.9,0.1c0-0.1,0.1-0.3,0.2-0.2l0,0.2l0.7-0.4c0.6,0.1,0,0.8,0.8,0.8c0.3-0.1,0.8-0.7,0.7-0.8
				c-0.1,0-0.3-0.1-0.3-0.3l0.3-0.1c0-0.6,0.2-1.2-0.5-1.6l-0.5,0.4l-0.2-0.3l0.4-0.1c-0.3-0.2-0.4,0-0.5,0.2
				c-0.1-0.2-0.1-0.3-0.2-0.3l-0.4,0.6c-0.1-0.2,0.2-0.5-0.2-0.6c-0.2,0.3,0.3,0.5-0.1,0.7c-0.3-0.2-0.2-0.5-0.5-0.2
				c-0.1-0.2,0-0.3,0.1-0.3c-0.2,0.2-0.6,0.1-0.7,0.5c-0.3-0.3-0.8,0.2-0.9-0.4c-0.1,0.1-0.4,0.5-0.6,0.6c0.3-0.7-0.8,0.1-0.8-0.6
				c-0.2,0.7-1,0.4-1.5,0.9c0-0.1,0.1-0.2,0.1-0.1c-0.3,0-0.4-0.1-0.6-0.2c0.1,0.5-0.4,0.7-0.5,1.1c-0.5-0.4,0.1-0.6-0.1-1
				c0.1,0.4-0.5,0.5-0.3,0.8c-0.3-0.2-0.3-0.1-0.5-0.5c0.1,0.6-0.2,0.2-0.4,0.6c-0.5-0.2-0.2-0.5-0.6-0.3
				C126.6,137.3,126.9,137,126.8,136.9L126.8,136.9z M117.2,141.9c0.1-0.1,0.1-0.1,0.2-0.1C117.3,141.8,117.3,141.8,117.2,141.9
				L117.2,141.9z M116.4,142.3c0.1-0.1,0.2-0.1,0.3-0.2c0.1,0.1,0.1,0.2,0,0.3C116.8,142.3,116.6,142.4,116.4,142.3z M119.2,143.6
				c-0.1,0.1-0.2,0.1-0.2,0c0.1,0,0.1-0.1,0.2-0.2v-0.1C119.2,143.5,119.2,143.5,119.2,143.6L119.2,143.6z"/>
			<path class="st1" d="M119.2,143.1C119.2,143.1,119.3,143.1,119.2,143.1C119.2,143,119.2,143,119.2,143.1L119.2,143.1L119.2,143.1
				L119.2,143.1z"/>
			<path class="st1" d="M106.6,150.1L106.6,150.1L106.6,150.1L106.6,150.1z"/>
			<path class="st1" d="M135.5,150c0,0,0.1,0,0.1,0C135.6,150,135.6,150,135.5,150z"/>
			<path class="st1" d="M136.2,148l0.2-0.3C136.3,147.9,136.3,147.9,136.2,148z"/>
			<path class="st1" d="M136.8,146.5c0,0-0.1-0.1-0.1-0.1L136.8,146.5z"/>
			<path class="st1" d="M123.1,168.2C123.1,168.2,123,168.3,123.1,168.2C123,168.4,123,168.3,123.1,168.2z"/>
			<path class="st1" d="M128.3,162.4c0,0.1,0,0.2,0,0.3C128.4,162.6,128.5,162.5,128.3,162.4z"/>
			<path class="st1" d="M115.5,172.7L115.5,172.7L115.5,172.7z"/>
			<path class="st1" d="M128,163c0.1-0.1,0.2-0.2,0.2-0.3C128.2,162.8,128.1,162.9,128,163z"/>
			<path class="st1" d="M138,139.4L138,139.4C138,139.4,138,139.4,138,139.4L138,139.4L138,139.4z"/>
			<path class="st1" d="M138,139.4L138,139.4C137.9,139.3,137.9,139.3,138,139.4z"/>
			<path class="st1" d="M137.8,139.1l0.1,0.2C137.9,139.2,137.9,139.1,137.8,139.1z"/>
			<path class="st1" d="M137.6,141.6l0.1,0C137.8,141.6,137.7,141.6,137.6,141.6z"/>
			<path class="st1" d="M137.6,142.3c0.1-0.2,0.3-0.4,0.3-0.6l-0.1,0C137.9,141.8,137.4,142.1,137.6,142.3z"/>
			<path class="st1" d="M135.6,144.7l0.2-0.5c-0.2,0.1-0.4,0.2-0.3-0.1C134.9,144.7,135.8,144,135.6,144.7L135.6,144.7z"/>
			<path class="st1" d="M135,146.2c0-0.3-0.2,0-0.3-0.1C134.8,146.4,134.9,146.4,135,146.2z"/>
			<path class="st1" d="M130.6,157.1l-0.3-0.2C130.2,157.1,130.4,157,130.6,157.1z"/>
			<path class="st1" d="M130.7,160l0.3-0.1l-0.2-0.3L130.7,160z"/>
			<path class="st1" d="M128,159.7l0-0.1l-0.1,0.3L128,159.7z"/>
			<path class="st1" d="M112.2,170.6l0.2,0.4C112.5,170.8,112.4,170.4,112.2,170.6z"/>
			<path class="st1" d="M103.9,172.8c-0.1-0.2-0.4-0.3-0.5-0.1C103.6,172.8,103.8,172.9,103.9,172.8z"/>
			<path class="st1" d="M107.8,153.9l0,0.2l0.1-0.3L107.8,153.9z"/>
		</g>
		<g class="st2">
			<path class="st1" d="M76.2,127c0,0,76.4-11.1,65.2-68.2c0,0,22.9,13,14,41.2C155.4,100,136.3,145.6,76.2,127z"/>
			<path class="st1" d="M103.1,132.1c-8,0-16.9-1.3-27.1-4.4l-2.7-0.8l2.8-0.4c0.4-0.1,40.3-6.1,57.6-30.6c7.4-10.4,9.8-22.8,7-36.8
				l-0.3-1.4l1.2,0.7c0.2,0.1,23.2,13.6,14.3,41.9C155.8,100.7,142.1,132.1,103.1,132.1L103.1,132.1z M78.9,127.2
				c16.8,4.7,39.9,6.9,58.9-7.2c12-8.9,16.8-20.1,16.9-20.2c3.6-11.4,2.4-21.7-3.6-30.5c-3.2-4.7-7-7.7-8.9-9.1
				c2.4,13.7-0.1,25.9-7.5,36.3C119.7,117.8,88.3,125.3,78.9,127.2L78.9,127.2z"/>
		</g>
	</g>
</g>
</svg>
